<svg width="493" height="200" viewBox="0 0 493 200" fill="none" xmlns="http://www.w3.org/2000/svg">
<rect x="0.673828" width="491.674" height="200" rx="16" fill="url(#paint0_linear_1788_2251)"/>
<mask id="mask0_1788_2251" style="mask-type:alpha" maskUnits="userSpaceOnUse" x="1" y="0" width="492" height="200">
<rect x="1" width="491.674" height="200" rx="16" fill="url(#paint1_linear_1788_2251)"/>
</mask>
<g mask="url(#mask0_1788_2251)">
<path d="M330.329 55.311H186.24V191.92H330.329V55.311Z" stroke="#222F3E" stroke-miterlimit="10"/>
<mask id="mask1_1788_2251" style="mask-type:luminance" maskUnits="userSpaceOnUse" x="178" y="60" width="148" height="129">
<path d="M325.014 188.092H178.722C178.722 145.794 178.716 103.503 178.709 61.205C227.477 61.1132 276.246 61.0215 325.014 60.9297V188.085V188.092Z" fill="white"/>
</mask>
<g mask="url(#mask1_1788_2251)">
<path d="M325.014 60.9365H178.709V188.092H325.014V60.9365Z" fill="#D4E8EE"/>
<path d="M248.128 144.503H152.898V172.378H248.128V144.503Z" fill="#6BA8A5"/>
<path d="M248.062 147.807H152.826V151.996H248.062V147.807Z" fill="#97C8D8"/>
<path d="M248.062 156.186H152.826V160.375H248.062V156.186Z" fill="#97C8D8"/>
<path d="M248.062 164.563H152.826V168.753H248.062V164.563Z" fill="#97C8D8"/>
<path d="M300.907 103.641H205.678V131.516H300.907V103.641Z" fill="#6BA8A5"/>
<path d="M300.835 106.945H205.6V111.134H300.835V106.945Z" fill="#97C8D8"/>
<path d="M300.835 115.33H205.6V119.519H300.835V115.33Z" fill="#97C8D8"/>
<path d="M300.835 123.708H205.6V127.897H300.835V123.708Z" fill="#97C8D8"/>
<path d="M295.624 82.5117H228.598V172.234H295.624V82.5117Z" fill="#7385C5"/>
<path d="M293.363 84.4585H230.65V172.227H293.363V84.4585Z" fill="#97C8D8"/>
<path d="M261.855 84.4585L261.783 172.234" stroke="white" stroke-miterlimit="10"/>
<path d="M254.144 84.4585L254.072 172.234" stroke="white" stroke-miterlimit="10"/>
<path d="M246.292 84.4585L246.213 172.234" stroke="white" stroke-miterlimit="10"/>
<path d="M238.583 84.4585L238.504 172.234" stroke="white" stroke-miterlimit="10"/>
<path d="M230.65 92.3911L293.363 92.4698" stroke="white" stroke-miterlimit="10"/>
<path d="M285.724 84.4585L285.652 172.234" stroke="white" stroke-miterlimit="10"/>
<path d="M277.87 84.4585L277.791 172.234" stroke="white" stroke-miterlimit="10"/>
<path d="M270.161 84.4585L270.082 172.234" stroke="white" stroke-miterlimit="10"/>
<path d="M277.726 100.304L293.362 100.323" stroke="white" stroke-miterlimit="10"/>
<path d="M230.65 100.251L246.266 100.271" stroke="white" stroke-miterlimit="10"/>
<path d="M230.65 108.112L293.363 108.184" stroke="white" stroke-miterlimit="10"/>
<path d="M277.871 116.024L293.362 116.038" stroke="white" stroke-miterlimit="10"/>
<path d="M230.65 115.966L246.26 115.985" stroke="white" stroke-miterlimit="10"/>
<path d="M230.65 123.826L293.363 123.898" stroke="white" stroke-miterlimit="10"/>
<path d="M230.65 131.68L293.363 131.758" stroke="white" stroke-miterlimit="10"/>
<path d="M230.65 139.54L293.363 139.612" stroke="white" stroke-miterlimit="10"/>
<path d="M230.65 147.4L293.363 147.473" stroke="white" stroke-miterlimit="10"/>
<path d="M230.65 155.254L293.363 155.333" stroke="white" stroke-miterlimit="10"/>
<path d="M230.65 163.115L293.363 163.187" stroke="white" stroke-miterlimit="10"/>
<path d="M295.624 131.096H198.225V172.234H295.624V131.096Z" fill="#7385C5"/>
<path d="M270.876 148.804H223.189V172.227H270.876V148.804Z" fill="#97C8D8"/>
<path d="M245.911 148.804H245V172.227H245.911V148.804Z" fill="white"/>
<path d="M268.773 148.804H267.861V172.227H268.773V148.804Z" fill="white"/>
<path d="M273.853 148.804H272.941V172.227H273.853V148.804Z" fill="#263F61"/>
<path d="M222.062 148.804H221.15V172.227H222.062V148.804Z" fill="white"/>
<path d="M270.875 144.516H220.809V150.751H270.875V144.516Z" fill="white"/>
<path d="M273.957 144.516H268.332V150.751H273.957V144.516Z" fill="#263F61"/>
<path d="M245.355 150.075C245.158 150.075 244.994 149.918 244.994 149.715V145.099C244.994 144.903 245.151 144.739 245.355 144.739C245.551 144.739 245.715 144.896 245.715 145.099V149.715C245.715 149.911 245.558 150.075 245.355 150.075Z" fill="#6BA8A5"/>
<path d="M248.016 147.413C248.016 147.61 247.859 147.774 247.656 147.774H243.041C242.844 147.774 242.68 147.617 242.68 147.413C242.68 147.217 242.837 147.053 243.041 147.053H247.656C247.852 147.053 248.016 147.21 248.016 147.413Z" fill="#6BA8A5"/>
<path d="M325.296 82.5117H295.625V172.234H325.296V82.5117Z" fill="#263F61"/>
<path d="M299.21 178.776C302.468 184.414 301.163 191.265 296.306 194.064C291.448 196.864 284.866 194.569 281.614 188.931C278.356 183.293 279.661 176.442 284.518 173.643C289.376 170.837 295.958 173.138 299.21 178.776Z" fill="#6BA8A5"/>
<path d="M324.849 187.253C321.053 193.822 314.045 196.87 309.187 194.064C304.329 191.259 303.464 183.66 307.253 177.092C311.049 170.523 318.057 167.474 322.915 170.28C327.772 173.086 328.638 180.684 324.849 187.253Z" fill="#6BA8A5"/>
<path d="M333.569 192.406C330.73 197.323 325.486 199.604 321.847 197.506C318.209 195.408 317.566 189.718 320.405 184.808C323.244 179.891 328.488 177.609 332.127 179.707C335.765 181.805 336.408 187.496 333.569 192.406Z" fill="#6BA8A5"/>
<path d="M314.094 179.43C317.407 170.506 315.828 161.689 310.567 159.736C305.306 157.782 298.355 163.432 295.042 172.356C291.729 181.279 293.308 190.097 298.569 192.05C303.83 194.004 310.781 188.353 314.094 179.43Z" fill="#6BA8A5"/>
<path d="M284.965 186.84C283.779 184.348 283.071 181.116 284.356 178.514C285.319 176.56 287.319 175.78 289.397 175.826C291.475 175.872 293.416 176.541 295.133 177.55C296.49 178.35 298.096 179.582 298.234 181.287C298.28 181.838 298.267 182.611 297.86 183.037C297.297 183.627 296.222 183.516 295.658 182.965C295.094 182.415 295.035 181.438 295.055 180.684C295.114 178.474 295.887 176.259 296.72 174.233C297.611 172.076 298.752 170.018 300.057 168.084C301.361 166.15 302.902 164.327 305.085 163.567C306.481 163.082 308.304 163.088 309.622 163.835C311.031 164.622 312.106 166.255 312.631 167.736C313.352 169.762 313.267 172.043 312.657 174.082C312.637 174.161 312.742 174.226 312.795 174.161C314.617 172.037 317.79 171.263 320.268 172.745C323.054 174.41 323.467 178.14 321.828 180.743C321.789 180.802 321.855 180.88 321.92 180.861C324.772 180.081 328.076 180.71 329.997 183.103C331.682 185.207 331.583 188.197 330.338 190.498C330.285 190.59 330.43 190.675 330.482 190.583C332.18 187.449 331.583 183.49 328.456 181.529C326.811 180.5 324.792 180.166 322.89 180.481C322.792 180.5 322.136 180.671 322.117 180.631C322.084 180.559 322.353 180.166 322.392 180.068C322.602 179.622 322.759 179.156 322.858 178.678C323.041 177.786 323.028 176.862 322.805 175.983C321.914 172.384 317.816 170.863 314.617 172.496C314.25 172.686 313.902 172.909 313.575 173.171C313.378 173.328 313.142 173.505 312.985 173.708C312.893 173.826 312.795 174.187 312.86 173.971C313.017 173.42 313.129 172.856 313.201 172.292C313.45 170.352 313.227 168.32 312.296 166.576C311.365 164.832 309.858 163.422 307.812 163.141C305.891 162.878 304.088 163.599 302.64 164.825C301.191 166.051 300.168 167.546 299.211 169.093C298.129 170.837 297.179 172.64 296.418 174.541C295.658 176.442 295.068 178.278 294.917 180.231C294.838 181.228 294.832 182.657 295.789 183.273C296.313 183.614 297.159 183.765 297.716 183.411C298.273 183.057 298.391 182.342 298.411 181.746C298.45 180.487 297.828 179.497 296.93 178.665C294.694 176.6 291.154 175.301 288.112 175.734C284.27 176.285 283.103 180.081 283.707 183.503C283.916 184.696 284.316 185.83 284.834 186.918C284.88 187.017 285.018 186.931 284.978 186.833L284.965 186.84Z" fill="#80CADB"/>
<path d="M220.633 164.858C221.809 164.858 222.763 163.828 222.763 162.557C222.763 161.287 221.809 160.256 220.633 160.256C219.456 160.256 218.502 161.287 218.502 162.557C218.502 163.828 219.456 164.858 220.633 164.858Z" fill="#C5513D"/>
<path d="M215.861 166.648V181.307C213.448 181.32 211.035 181.333 208.616 181.346C205.548 181.36 202.48 181.379 199.412 181.392C199.642 179.911 199.871 178.423 200.094 176.941C200.146 176.39 200.527 175.918 201.058 175.761L205.352 174.456C205.64 174.365 205.896 174.188 206.066 173.938L209.619 168.904C209.79 168.661 210.039 168.477 210.327 168.392C212.17 167.815 214.012 167.232 215.854 166.655L215.861 166.648Z" fill="white"/>
<path d="M246.704 165.081V181.307H215.859V165.081C215.859 164.157 216.607 163.41 217.531 163.41H245.039C245.963 163.41 246.711 164.157 246.711 165.081H246.704Z" fill="white"/>
<path d="M228.395 163.41C222.18 165.829 218.542 169.054 216.287 171.847C216.136 172.031 215.998 172.208 215.861 172.391C213.704 175.217 212.943 177.485 209.98 180.199C209.534 180.605 209.075 180.986 208.616 181.346C205.548 181.359 202.48 181.379 199.412 181.392C199.642 179.911 199.871 178.422 200.094 176.941C200.146 176.39 200.527 175.918 201.058 175.761L205.352 174.456C205.64 174.364 205.896 174.187 206.066 173.938L209.619 168.903C209.79 168.661 210.039 168.477 210.327 168.392C212.17 167.815 214.012 167.232 215.854 166.655V165.088C215.854 164.164 216.601 163.416 217.526 163.416H228.389L228.395 163.41Z" fill="#6BA8A5"/>
<path d="M246.534 184.034H199.667C198.913 184.034 198.303 183.425 198.303 182.671C198.303 181.917 198.913 181.307 199.667 181.307H246.534C247.288 181.307 247.897 181.917 247.897 182.671C247.897 183.425 247.288 184.034 246.534 184.034Z" fill="white"/>
<path d="M213.016 183.949C213.016 185.876 211.449 187.443 209.522 187.443C207.594 187.443 206.027 185.876 206.027 183.949C206.027 182.021 207.594 180.455 209.522 180.455C211.449 180.455 213.016 182.021 213.016 183.949Z" fill="#263F61"/>
<path d="M239.94 183.949C239.94 185.876 238.373 187.443 236.445 187.443C234.518 187.443 232.951 185.876 232.951 183.949C232.951 182.021 234.518 180.455 236.445 180.455C238.373 180.455 239.94 182.021 239.94 183.949Z" fill="#263F61"/>
<path d="M210.234 169.546L207.422 174.246H214.515V169.546H210.234Z" fill="#263F61"/>
<path d="M228.133 174.318H217.395C217.991 172.417 218.588 170.509 219.184 168.608C222.167 168.582 225.15 168.549 228.133 168.523V174.318Z" fill="#263F61"/>
<path d="M246.704 178.921C231.056 178.947 215.407 178.98 199.752 179.006C199.811 178.521 199.863 178.042 199.922 177.557H246.704V178.921Z" fill="#C5513D"/>
<path d="M239.886 175.426C242.099 175.426 243.892 173.633 243.892 171.421C243.892 169.208 242.099 167.415 239.886 167.415C237.674 167.415 235.881 169.208 235.881 171.421C235.881 173.633 237.674 175.426 239.886 175.426Z" fill="#C5513D"/>
<path d="M239.809 174.863C239.554 174.863 239.344 174.653 239.344 174.397V168.399C239.344 168.143 239.554 167.933 239.809 167.933C240.065 167.933 240.275 168.143 240.275 168.399V174.397C240.275 174.653 240.065 174.863 239.809 174.863Z" fill="white"/>
<path d="M243.277 171.395C243.277 171.65 243.067 171.86 242.812 171.86H236.813C236.557 171.86 236.348 171.65 236.348 171.395C236.348 171.139 236.557 170.929 236.813 170.929H242.812C243.067 170.929 243.277 171.139 243.277 171.395Z" fill="white"/>
<path d="M246.705 180.369H245.001C244.673 180.369 244.404 180.101 244.404 179.773C244.404 179.609 244.47 179.458 244.581 179.353C244.686 179.242 244.837 179.176 245.001 179.176H246.705V180.369Z" fill="#6BA8A5"/>
<path d="M199.432 181.307H246.777" stroke="#263F61" stroke-miterlimit="10"/>
<path d="M215.859 165.639V179.773" stroke="#263F61" stroke-miterlimit="10"/>
<path d="M223.615 163.41H217.734C217.734 162.938 218.115 162.558 218.587 162.558H222.763C223.235 162.558 223.615 162.938 223.615 163.41Z" fill="#263F61"/>
<path d="M210.883 184.119C210.883 184.873 210.274 185.483 209.52 185.483C208.766 185.483 208.156 184.873 208.156 184.119C208.156 183.366 208.766 182.756 209.52 182.756C210.274 182.756 210.883 183.366 210.883 184.119Z" fill="#6BA8A5"/>
<path d="M237.809 183.949C237.809 184.703 237.199 185.313 236.445 185.313C235.691 185.313 235.082 184.703 235.082 183.949C235.082 183.195 235.691 182.585 236.445 182.585C237.199 182.585 237.809 183.195 237.809 183.949Z" fill="#6BA8A5"/>
<path d="M219.68 142.135V133.407H220.737V137.294H225.39V133.407H226.447V142.135H225.39V138.231H220.737V142.135H219.68ZM235.926 137.771C235.926 138.692 235.76 139.487 235.428 140.157C235.095 140.828 234.639 141.345 234.06 141.709C233.48 142.072 232.818 142.254 232.074 142.254C231.33 142.254 230.668 142.072 230.088 141.709C229.509 141.345 229.053 140.828 228.72 140.157C228.388 139.487 228.222 138.692 228.222 137.771C228.222 136.851 228.388 136.055 228.72 135.385C229.053 134.714 229.509 134.197 230.088 133.834C230.668 133.47 231.33 133.288 232.074 133.288C232.818 133.288 233.48 133.47 234.06 133.834C234.639 134.197 235.095 134.714 235.428 135.385C235.76 136.055 235.926 136.851 235.926 137.771ZM234.904 137.771C234.904 137.015 234.777 136.378 234.524 135.858C234.274 135.338 233.935 134.944 233.506 134.677C233.08 134.41 232.602 134.277 232.074 134.277C231.546 134.277 231.067 134.41 230.638 134.677C230.212 134.944 229.872 135.338 229.619 135.858C229.369 136.378 229.244 137.015 229.244 137.771C229.244 138.527 229.369 139.165 229.619 139.684C229.872 140.204 230.212 140.598 230.638 140.865C231.067 141.132 231.546 141.265 232.074 141.265C232.602 141.265 233.08 141.132 233.506 140.865C233.935 140.598 234.274 140.204 234.524 139.684C234.777 139.165 234.904 138.527 234.904 137.771ZM242.476 135.589C242.425 135.157 242.218 134.822 241.854 134.584C241.49 134.345 241.044 134.226 240.516 134.226C240.129 134.226 239.791 134.288 239.502 134.413C239.215 134.538 238.99 134.71 238.828 134.929C238.669 135.148 238.59 135.396 238.59 135.675C238.59 135.907 238.645 136.108 238.756 136.275C238.869 136.44 239.014 136.578 239.191 136.689C239.367 136.797 239.551 136.886 239.744 136.957C239.938 137.025 240.115 137.081 240.277 137.123L241.164 137.362C241.391 137.422 241.644 137.504 241.922 137.609C242.203 137.714 242.472 137.858 242.727 138.04C242.986 138.219 243.199 138.449 243.367 138.73C243.534 139.011 243.618 139.356 243.618 139.765C243.618 140.237 243.494 140.663 243.247 141.044C243.003 141.425 242.645 141.727 242.173 141.952C241.705 142.176 241.135 142.288 240.465 142.288C239.84 142.288 239.298 142.187 238.841 141.986C238.387 141.784 238.029 141.503 237.767 141.142C237.509 140.781 237.362 140.362 237.328 139.885H238.419C238.448 140.214 238.558 140.487 238.752 140.703C238.948 140.916 239.195 141.075 239.493 141.18C239.794 141.282 240.118 141.334 240.465 141.334C240.868 141.334 241.23 141.268 241.551 141.138C241.872 141.004 242.127 140.819 242.314 140.584C242.502 140.345 242.595 140.067 242.595 139.748C242.595 139.459 242.514 139.223 242.352 139.041C242.191 138.859 241.977 138.711 241.713 138.598C241.449 138.484 241.164 138.385 240.857 138.3L239.783 137.993C239.101 137.797 238.561 137.517 238.164 137.153C237.766 136.79 237.567 136.314 237.567 135.726C237.567 135.237 237.699 134.811 237.963 134.447C238.23 134.081 238.588 133.797 239.037 133.595C239.489 133.39 239.993 133.288 240.55 133.288C241.112 133.288 241.612 133.389 242.05 133.591C242.487 133.79 242.834 134.062 243.09 134.409C243.348 134.756 243.485 135.149 243.499 135.589H242.476ZM245.356 142.135V133.407H248.305C248.989 133.407 249.549 133.531 249.983 133.778C250.421 134.023 250.745 134.354 250.955 134.771C251.165 135.189 251.27 135.655 251.27 136.169C251.27 136.683 251.165 137.15 250.955 137.571C250.748 137.991 250.427 138.327 249.992 138.577C249.557 138.824 249.001 138.947 248.322 138.947H246.208V138.01H248.287C248.756 138.01 249.133 137.929 249.417 137.767C249.701 137.605 249.907 137.386 250.035 137.111C250.165 136.832 250.231 136.518 250.231 136.169C250.231 135.819 250.165 135.507 250.035 135.231C249.907 134.956 249.699 134.74 249.412 134.584C249.126 134.425 248.745 134.345 248.27 134.345H246.412V142.135H245.356ZM254.03 133.407V142.135H252.973V133.407H254.03ZM255.671 134.345V133.407H262.217V134.345H259.472V142.135H258.416V134.345H255.671ZM263.186 142.135H262.078L265.283 133.407H266.374L269.578 142.135H268.47L265.862 134.788H265.794L263.186 142.135ZM263.595 138.726H268.061V139.663H263.595V138.726ZM270.938 142.135V133.407H271.994V141.197H276.051V142.135H270.938Z" fill="white"/>
</g>
<path d="M277.161 13H226.557C224.088 13 222.086 15.0017 222.086 17.471V68.075C222.086 70.5443 224.088 72.546 226.557 72.546H277.161C279.63 72.546 281.632 70.5443 281.632 68.075V17.471C281.632 15.0017 279.63 13 277.161 13Z" fill="#AED5E1"/>
<path d="M250.749 31.7497C250.749 33.0805 249.752 34.1557 248.52 34.1557C247.287 34.1557 246.291 33.0805 246.291 31.7497C246.291 30.4189 247.287 29.3438 248.52 29.3438C249.752 29.3438 250.749 30.4189 250.749 31.7497Z" fill="#C5513D"/>
<path d="M243.537 36.0239V51.3382C241.013 51.3513 238.489 51.3644 235.965 51.3775C232.759 51.3906 229.553 51.4103 226.348 51.43C226.584 49.8763 226.826 48.3291 227.062 46.7754C227.115 46.1985 227.508 45.7068 228.065 45.5429L232.556 44.1793C232.858 44.0875 233.126 43.8974 233.303 43.6352L237.02 38.3774C237.197 38.1218 237.46 37.9317 237.755 37.8399C239.682 37.2367 241.603 36.6336 243.53 36.0239H243.537Z" fill="white"/>
<path d="M275.772 34.3849V51.3382H243.537V34.3849C243.537 33.4212 244.317 32.6411 245.281 32.6411H274.028C274.992 32.6411 275.772 33.4212 275.772 34.3849Z" fill="white"/>
<path d="M256.637 32.6411C250.146 35.1651 246.337 38.5413 243.984 41.4586C243.827 41.6487 243.682 41.8389 243.538 42.0224C241.29 44.9791 240.49 47.3457 237.395 50.1843C236.93 50.6105 236.451 51.0104 235.973 51.3841C232.767 51.3972 229.561 51.4168 226.355 51.4365C226.591 49.8828 226.834 48.3356 227.07 46.7819C227.123 46.205 227.516 45.7133 228.073 45.5494L232.564 44.1858C232.865 44.094 233.134 43.9039 233.311 43.6417L237.028 38.384C237.205 38.1283 237.468 37.9382 237.763 37.8464C239.69 37.2433 241.611 36.6401 243.538 36.0304V34.3915C243.538 33.4278 244.318 32.6477 245.282 32.6477H256.637V32.6411Z" fill="#6BA8A5"/>
<path d="M275.596 54.1899H226.618C225.831 54.1899 225.195 53.554 225.195 52.7673C225.195 51.9806 225.831 51.3447 226.618 51.3447H275.596C276.383 51.3447 277.019 51.9806 277.019 52.7673C277.019 53.554 276.383 54.1899 275.596 54.1899Z" fill="white"/>
<path d="M240.561 54.0979C240.561 56.117 238.929 57.7494 236.909 57.7494C234.89 57.7494 233.258 56.117 233.258 54.0979C233.258 52.0787 234.89 50.4463 236.909 50.4463C238.929 50.4463 240.561 52.0787 240.561 54.0979Z" fill="#263F61"/>
<path d="M268.705 54.0983C268.705 56.1175 267.073 57.7499 265.054 57.7499C263.035 57.7499 261.402 56.1175 261.402 54.0983C261.402 52.0792 263.035 50.4468 265.054 50.4468C267.073 50.4468 268.705 52.0792 268.705 54.0983Z" fill="#263F61"/>
<path d="M237.656 39.0527L234.719 43.963H242.133V39.0527H237.656Z" fill="#263F61"/>
<path d="M256.359 44.0351H245.143C245.765 42.0487 246.388 40.0557 247.011 38.0693C250.125 38.0365 253.246 38.0103 256.359 37.9775V44.0351Z" fill="#263F61"/>
<path d="M275.773 48.8469C259.416 48.8797 243.059 48.9059 226.709 48.9387C226.768 48.4339 226.827 47.9291 226.886 47.4243H275.773V48.8469Z" fill="#C5513D"/>
<path d="M268.645 45.1952C270.955 45.1952 272.828 43.3226 272.828 41.0127C272.828 38.7027 270.955 36.8301 268.645 36.8301C266.335 36.8301 264.463 38.7027 264.463 41.0127C264.463 43.3226 266.335 45.1952 268.645 45.1952Z" fill="#C5513D"/>
<path d="M268.567 44.6055C268.299 44.6055 268.082 44.3891 268.082 44.1203V37.8465C268.082 37.5777 268.299 37.3613 268.567 37.3613C268.836 37.3613 269.053 37.5777 269.053 37.8465V44.1203C269.053 44.3891 268.836 44.6055 268.567 44.6055Z" fill="white"/>
<path d="M272.186 40.9866C272.186 41.2554 271.969 41.4717 271.7 41.4717H265.427C265.158 41.4717 264.941 41.2554 264.941 40.9866C264.941 40.7178 265.158 40.5015 265.427 40.5015H271.7C271.969 40.5015 272.186 40.7178 272.186 40.9866Z" fill="white"/>
<path d="M275.773 50.3613H273.99C273.649 50.3613 273.367 50.0794 273.367 49.7385C273.367 49.5681 273.439 49.4107 273.551 49.2993C273.662 49.1878 273.82 49.1157 273.99 49.1157H275.773V50.3613Z" fill="#6BA8A5"/>
<path d="M275.844 51.2266H226.367V51.456H275.844V51.2266Z" fill="#263F61"/>
<path d="M243.649 34.9683H243.42V49.7384H243.649V34.9683Z" fill="#263F61"/>
<path d="M251.641 32.6411H245.498C245.498 32.1494 245.898 31.7495 246.39 31.7495H250.756C251.247 31.7495 251.647 32.1494 251.647 32.6411H251.641Z" fill="#263F61"/>
<path d="M236.909 55.6977C237.695 55.6977 238.332 55.0608 238.332 54.2751C238.332 53.4895 237.695 52.8525 236.909 52.8525C236.123 52.8525 235.487 53.4895 235.487 54.2751C235.487 55.0608 236.123 55.6977 236.909 55.6977Z" fill="#6BA8A5"/>
<path d="M266.476 54.0984C266.476 54.8851 265.84 55.521 265.053 55.521C264.267 55.521 263.631 54.8851 263.631 54.0984C263.631 53.3117 264.267 52.6758 265.053 52.6758C265.84 52.6758 266.476 53.3117 266.476 54.0984Z" fill="#6BA8A5"/>
<path d="M365.868 114.929H315.264C312.795 114.929 310.793 116.93 310.793 119.4V170.004C310.793 172.473 312.795 174.475 315.264 174.475H365.868C368.337 174.475 370.339 172.473 370.339 170.004V119.4C370.339 116.93 368.337 114.929 365.868 114.929Z" fill="#AED5E1"/>
<path d="M352.449 140.005H323.348V123.294H352.449V140.005ZM324.908 138.445H350.895V124.855H324.908V138.445Z" fill="#569790"/>
<path d="M360.609 133.161H315.893V165.92H360.609V133.161Z" fill="white"/>
<path d="M336.281 160.033C330.492 160.033 325.785 155.326 325.785 149.537C325.785 143.748 330.492 139.041 336.281 139.041C342.07 139.041 346.777 143.748 346.777 149.537C346.777 155.326 342.07 160.033 336.281 160.033ZM336.281 139.821C330.925 139.821 326.565 144.181 326.565 149.537C326.565 154.893 330.925 159.252 336.281 159.252C341.637 159.252 345.997 154.893 345.997 149.537C345.997 144.181 341.637 139.821 336.281 139.821Z" fill="#569790"/>
<path d="M336.552 143.774H336.014C335.717 143.774 335.477 144.015 335.477 144.312V155.227C335.477 155.524 335.717 155.765 336.014 155.765H336.552C336.849 155.765 337.089 155.524 337.089 155.227V144.312C337.089 144.015 336.849 143.774 336.552 143.774Z" fill="#6BA8A5"/>
<path d="M330.291 149.504V150.042C330.291 150.338 330.532 150.579 330.829 150.579H341.744C342.041 150.579 342.282 150.338 342.282 150.042V149.504C342.282 149.207 342.041 148.966 341.744 148.966H330.829C330.532 148.966 330.291 149.207 330.291 149.504Z" fill="#6BA8A5"/>
<path d="M365.247 133.161H356.619V165.92H365.247V133.161Z" fill="#6BA8A5"/>
<path d="M344.646 121.347H331.109C329.965 121.347 329.037 122.275 329.037 123.419V124.205C329.037 125.35 329.965 126.277 331.109 126.277H344.646C345.791 126.277 346.718 125.35 346.718 124.205V123.419C346.718 122.275 345.791 121.347 344.646 121.347Z" fill="white"/>
<path d="M127.015 73.7915H183.788C186.555 73.7915 188.803 76.0401 188.803 78.8067V135.58C188.803 138.346 186.555 140.595 183.788 140.595H127.015C124.249 140.595 122 138.346 122 135.58V78.8067C122 76.0401 124.249 73.7915 127.015 73.7915Z" fill="#AED5E1"/>
<path d="M186.24 82.7139H163.701V113.86H186.24V82.7139Z" stroke="white" stroke-miterlimit="10"/>
<path d="M148.328 100.952H125.789V132.099H148.328V100.952Z" stroke="white" stroke-miterlimit="10"/>
<path d="M147.049 86.1427C149.134 88.0308 149.901 90.581 148.76 91.8397C147.62 93.0984 145.004 92.5936 142.919 90.7055C140.835 88.8175 140.068 86.2673 141.208 85.0086C142.349 83.7499 144.965 84.2547 147.049 86.1427Z" fill="black"/>
<path d="M143.208 89.1909C146.001 88.8762 148.42 89.9907 148.61 91.6755C148.8 93.3603 146.689 94.9862 143.896 95.3008C141.104 95.6155 138.684 94.501 138.494 92.8162C138.304 91.1314 140.415 89.5055 143.208 89.1909Z" fill="black"/>
<path d="M146.558 93.02C149.35 92.7053 151.769 93.8198 151.959 95.5046C152.15 97.1894 150.039 98.8153 147.246 99.1299C144.453 99.4446 142.034 98.3301 141.844 96.6453C141.654 94.9605 143.765 93.3346 146.558 93.02Z" fill="black"/>
<path d="M153.251 92.541C156.043 92.2263 158.462 93.3408 158.653 95.0256C158.843 96.7104 156.732 98.3363 153.939 98.6509C151.146 98.9656 148.727 97.8511 148.537 96.1663C148.347 94.4815 150.458 92.8556 153.251 92.541Z" fill="black"/>
<path d="M154.686 87.7553C157.479 87.4406 159.898 88.5551 160.088 90.24C160.279 91.9248 158.168 93.5506 155.375 93.8653C152.582 94.18 150.163 93.0655 149.973 91.3807C149.783 89.6958 151.894 88.07 154.686 87.7553Z" fill="black"/>
<path d="M156.484 88.5816C155.251 91.1056 153.009 92.5544 151.488 91.807C149.961 91.0597 149.725 88.4111 150.957 85.8806C152.19 83.3501 154.432 81.9078 155.953 82.6552C157.48 83.4025 157.716 86.0511 156.484 88.5816Z" fill="black"/>
<path d="M150.714 85.3956C151.501 89.2569 150.452 92.3775 148.374 92.3643C146.295 92.3512 143.968 89.211 143.181 85.3497C142.395 81.4883 143.444 78.3678 145.522 78.3809C147.6 78.394 149.927 81.5342 150.714 85.3956Z" fill="black"/>
<path d="M154.227 87.1653C153.106 90.9415 150.707 93.2032 148.878 92.2133C147.049 91.2234 146.478 87.3555 147.599 83.5793C148.721 79.8032 151.12 77.5415 152.949 78.5314C154.778 79.5213 155.348 83.3892 154.227 87.1653Z" fill="black"/>
<path d="M152.714 93.4356L146.209 94.5195L147.359 101.419L153.864 100.335L152.714 93.4356Z" fill="#E5BC8D"/>
<path opacity="0.1" d="M146.211 94.5209L146.932 98.8674C148.053 98.7953 148.564 98.5396 148.82 98.3167C149.24 97.9496 149.036 97.6415 149.548 97.235C149.994 96.8744 150.387 96.9203 150.898 96.6188C151.279 96.3959 151.705 95.9829 151.836 95.1634C151.692 94.6651 151.547 94.1603 151.41 93.6621L146.211 94.5275V94.5209Z" fill="black"/>
<path d="M153.435 89.5256C153.488 89.8337 153.52 90.1418 153.534 90.4434V90.4565C153.593 91.6169 153.389 92.7117 152.983 93.636C152.983 93.636 152.983 93.6491 152.97 93.6557C152.354 95.0521 151.265 96.0486 149.902 96.2715C148.584 96.4944 147.273 95.9437 146.25 94.8947C145.568 94.1933 145.011 93.2755 144.664 92.2069C144.539 91.8332 144.447 91.4399 144.375 91.0334C143.824 87.7227 145.404 84.7005 147.909 84.281C150.413 83.8614 152.885 86.2084 153.435 89.5256Z" fill="#E5BC8D"/>
<path d="M155.665 89.001C156.006 89.709 155.704 90.5547 154.996 90.8956C154.288 91.2365 153.442 90.935 153.101 90.2269C152.76 89.5189 153.062 88.6732 153.77 88.3323C154.478 87.9914 155.324 88.293 155.665 89.001Z" fill="#E5BC8D"/>
<path d="M142.328 91.42C142.236 92.2002 142.794 92.9016 143.574 92.9934C144.354 93.0852 145.055 92.528 145.147 91.7478C145.239 90.9677 144.682 90.2597 143.902 90.1744C143.121 90.0827 142.42 90.6399 142.328 91.42Z" fill="#E5BC8D"/>
<path d="M146.198 102.48L159.67 101.883L159.84 120.993L147.961 123.032L146.198 102.48Z" fill="#E5BC8D"/>
<path d="M177.318 140.595H142.809C142.946 139.244 143.13 137.933 143.372 136.642C143.779 134.452 144.336 132.308 145.07 130.092C145.07 130.092 145.09 130.046 145.097 130.02C145.49 128.866 145.883 127.798 146.27 126.834C146.27 126.834 146.283 126.808 146.29 126.795C146.906 125.267 147.496 123.995 147.961 123.038L159.84 120.672L160.896 120.462L162.122 121.963L162.758 122.743L177.318 140.601V140.595Z" fill="#6BA8A5"/>
<path d="M146.767 99.3657C142.906 101.555 136.894 105.653 131.721 112.694C128.548 117.014 126.608 121.183 125.408 124.448C128.057 124.664 130.712 124.887 133.36 125.104C135.694 122.717 138.12 120.049 140.565 117.079C142.532 114.693 144.308 112.359 145.902 110.111C146.19 106.531 146.472 102.945 146.76 99.3657H146.767Z" fill="white"/>
<path d="M125.441 124.507C132.751 129.45 140.061 134.4 147.364 139.343L149.16 136.295C148.052 134.158 146.335 131.371 143.712 128.539C140.992 125.602 138.238 123.622 136.14 122.351C132.574 123.072 129.008 123.793 125.441 124.514V124.507Z" fill="white"/>
<path d="M154.235 140.595H144.212C143.536 140.142 143.084 139.814 142.992 139.749C143.471 138.956 143.949 138.156 144.434 137.356C145.339 135.861 146.237 134.36 147.135 132.865C147.725 131.895 148.309 130.918 148.892 129.941C151.751 134.157 153.613 137.953 154.235 140.595Z" fill="#6BA8A5"/>
<path d="M146.603 99.5098C145.666 108.806 144.728 118.109 143.791 127.405C150.858 125.667 157.925 123.923 164.992 122.186C161.478 114.286 157.958 106.393 154.444 98.4937C154.149 98.8149 152.55 100.487 150.006 100.526C148.321 100.546 147.095 99.8376 146.603 99.5164V99.5098Z" fill="#97C8D8"/>
<path d="M158.326 141.074L157.939 140.595L157.834 140.464" stroke="#263F61" stroke-width="0.5" stroke-miterlimit="10"/>
<path d="M144.748 116.332L143.791 127.405L162.645 123.032" stroke="#263F61" stroke-width="0.5" stroke-miterlimit="10"/>
<path d="M150.419 100.434C150.438 100.644 150.543 101.516 151.277 102.152C152.025 102.794 153.048 102.893 153.854 102.585C155.198 102.06 155.545 100.579 155.571 100.434C155.139 99.8641 154.713 99.2871 154.28 98.7168C154.005 99.0446 153.447 99.6084 152.562 100.008C151.658 100.415 150.845 100.448 150.412 100.441L150.419 100.434Z" stroke="#263F61" stroke-width="0.5" stroke-miterlimit="10"/>
<path d="M150.42 100.434C150.453 100.591 150.682 101.758 149.942 102.584C148.932 103.712 147.142 103.063 146.998 103.017C145.457 102.493 145.071 101.011 145.031 100.867C145.536 100.434 146.047 100.008 146.552 99.5752C146.86 99.8243 147.437 100.224 148.27 100.434C149.227 100.677 150.027 100.532 150.42 100.434Z" stroke="#263F61" stroke-width="0.5" stroke-miterlimit="10"/>
<path d="M160.948 108.819C165.931 113.225 170.913 117.637 175.902 122.042C176.564 119.466 177.226 116.889 177.895 114.313C176.767 111.966 174.755 108.564 171.274 105.378C165.505 100.1 159.126 98.5727 156.228 98.0679C157.802 101.647 159.382 105.233 160.955 108.813L160.948 108.819Z" fill="white"/>
<path d="M188.803 100.828V110.615C184.522 114.411 180.248 118.214 175.967 122.016C175.967 121.95 175.967 121.878 175.967 121.813C175.862 118.24 175.757 114.673 175.652 111.107C175.744 111.015 175.829 110.924 175.928 110.832C177.875 108.885 180.235 106.78 183.034 104.682C185.04 103.188 186.987 101.909 188.81 100.828H188.803Z" fill="white"/>
<path d="M162.121 110.376L157.992 111.734L158.797 114.182L162.926 112.823L162.121 110.376Z" fill="#2B3A92"/>
<path d="M161.532 109.352L157.447 110.696L157.582 111.107L161.668 109.763L161.532 109.352Z" fill="#97C8D8"/>
<path d="M159.336 113.015C159.691 113.015 159.978 112.727 159.978 112.372C159.978 112.018 159.691 111.73 159.336 111.73C158.981 111.73 158.693 112.018 158.693 112.372C158.693 112.727 158.981 113.015 159.336 113.015Z" fill="#6BA8A5"/>
<path d="M160.41 111.73L161.702 111.297" stroke="white" stroke-width="0.25" stroke-miterlimit="10"/>
<path d="M160.41 112.156L161.702 111.73" stroke="white" stroke-width="0.25" stroke-miterlimit="10"/>
<path d="M160.41 112.588L161.702 112.156" stroke="white" stroke-width="0.25" stroke-miterlimit="10"/>
<path d="M153.486 98.0674C157.295 112.175 161.104 126.283 164.913 140.391H177.887L156.22 98.0674C155.309 98.0674 154.398 98.0674 153.486 98.0674Z" fill="white"/>
<path d="M160.7 121.235H160.555L160.398 111.592L157.959 110.386L157.986 110.32L159.703 105.475L155.088 101.909L155.173 101.791L159.874 105.423L159.86 105.475L158.143 110.307L160.542 111.5V111.546L160.7 121.235Z" fill="#233D62"/>
<path d="M149.377 83.3957C147.39 82.9564 145.371 83.6776 144.257 85.2182C142.991 86.9686 143.476 88.9812 143.555 89.2762C145.496 87.316 147.436 85.3558 149.377 83.3957Z" fill="black"/>
<path d="M146.985 99.1558C145.982 99.7851 144.979 100.414 143.976 101.044C142.363 114.227 140.744 127.405 139.131 140.588H148.479C147.981 126.775 147.483 112.962 146.985 99.1558Z" fill="white"/>
<path d="M147.344 104.021L148.334 135.265" stroke="#263F61" stroke-width="0.5" stroke-miterlimit="10"/>
<path d="M139.131 118.791C140.18 117.506 141.229 116.214 142.278 114.929C141.996 117.243 141.714 119.558 141.425 121.865" stroke="#263F61" stroke-width="0.5" stroke-miterlimit="10"/>
<path d="M147.306 123.93L147.443 123.884L144.211 114.798L146.067 112.811L146.021 112.759L142.717 108.826L145.785 103.863L145.66 103.784L142.533 108.839L142.573 108.878L145.87 112.805L144.041 114.759L144.061 114.804L147.306 123.93Z" fill="#233D62"/>
</g>
<defs>
<linearGradient id="paint0_linear_1788_2251" x1="246.511" y1="-135.5" x2="246.511" y2="310.5" gradientUnits="userSpaceOnUse">
<stop stop-color="#3FA5BB"/>
<stop offset="1" stop-color="#94D7C6"/>
</linearGradient>
<linearGradient id="paint1_linear_1788_2251" x1="246.837" y1="-135.5" x2="246.837" y2="310.5" gradientUnits="userSpaceOnUse">
<stop stop-color="#3FA5BB"/>
<stop offset="1" stop-color="#94D7C6"/>
</linearGradient>
</defs>
</svg>
