<svg width="538" height="369" viewBox="0 0 538 369" fill="none" xmlns="http://www.w3.org/2000/svg">
<path d="M491.789 306.154C496.677 297.129 498.236 286.512 494.417 274.182C492.467 267.874 488.378 262.145 482.731 258.71C470.54 251.292 457.475 253.765 444.655 249.285C422.752 241.622 412.943 214.888 391.269 207.071C369.342 199.163 344.249 196.952 321.498 202.501C307.356 205.945 293.206 211.706 278.754 209.927C267.133 208.499 256.729 202.338 245.737 198.315C229.653 192.423 211.928 191.346 195.175 194.789C178.781 198.151 168.882 202.827 158.551 215.982C146.237 231.666 128.186 243.181 108.43 245.898C95.1855 247.718 81.166 248.371 69.7577 256.27C63.7272 260.448 60.0387 268.91 57.6966 275.741C52.0986 292.102 55.2567 312.666 66.5262 326.156C80.2602 342.599 98.7598 345.74 119.079 347.381C140.557 349.119 162.688 341.032 184.469 341.571C215.429 342.338 245.011 353.852 275.481 359.368C331.307 369.487 389.14 359.213 442.819 340.836C461.849 334.324 482.642 323.022 491.789 306.138V306.154Z" fill="#DDEAFA"/>
<path d="M288.038 136.671C284.504 134.239 280.546 135.536 276.776 136.556C276.254 136.695 274.41 136.785 274.393 137.527C274.393 138.139 275.471 138.433 275.936 138.507C277.241 138.711 278.604 138.213 279.771 137.682C278.563 138.809 276.948 139.282 275.34 139.453C273.741 139.625 272.051 139.347 270.501 139.796C269.685 140.033 269.864 140.832 270.452 141.257C270.974 141.64 271.937 141.51 272.541 141.51C273.447 141.51 274.353 141.444 275.25 141.289C276.001 141.159 277.127 141.028 277.764 140.612C276.36 141.526 274.752 142.048 273.112 142.35C272.28 142.505 271.439 142.603 270.591 142.677C270.093 142.717 268.999 142.677 269.122 143.517C269.154 143.729 269.309 143.901 269.481 144.023C270.003 144.39 270.689 144.415 271.333 144.407C273.145 144.382 275.014 144.423 276.784 143.95C275.16 144.937 273.333 145.614 271.578 146.316C271.26 146.447 270.607 146.765 270.795 147.214C270.893 147.45 271.358 147.646 271.586 147.728C272.149 147.924 272.786 147.818 273.341 147.671C274.157 147.459 274.948 147.23 275.756 146.953C276.507 146.7 277.266 146.439 278.049 146.316C279.763 146.055 281.477 146.757 283.027 147.385C285.026 148.193 286.895 148.471 289.066 148.471C292.395 148.471 295.717 148.315 299.03 148.005" fill="#FF91A0"/>
<path d="M287.06 219.809L283.298 227.855C283.298 227.855 274.811 223.497 271.319 227.643L294.772 235.925L299.815 219.841L287.06 219.809Z" fill="#FF91A0"/>
<path d="M283.298 227.863L283.445 227.545C287.688 228.843 291.932 230.148 296.175 231.446L294.772 235.934L271.319 227.651C274.811 223.506 283.298 227.863 283.298 227.863Z" fill="#10124E"/>
<path d="M295.211 228.533L292.665 237.044C292.665 237.044 283.631 233.967 280.783 238.578L305.191 243.352L307.835 226.705L295.211 228.533Z" fill="#FF91A0"/>
<path d="M292.665 237.043L292.763 236.701L305.925 238.7L305.191 243.351L280.783 238.578C283.631 233.967 292.665 237.043 292.665 237.043Z" fill="#10124E"/>
<path d="M316.388 150.291C308.391 151.515 289.859 157.652 285.305 167.868C282.776 173.532 284.922 215.37 285.485 223.735H298.737L316.086 161.797L331.575 152.69C331.575 152.69 324.386 149.075 316.388 150.291Z" fill="#0A1656"/>
<path d="M366.108 223.351L321.805 202.011L322.964 199.62L367.267 220.951L366.108 223.351Z" fill="#62AFE8"/>
<path d="M318.836 223.351L317.669 220.951L362.372 199.62L363.539 202.011L318.836 223.351Z" fill="#62AFE8"/>
<path d="M314.17 246.371C313.093 246.2 312.358 245.196 312.521 244.119L322.061 182.777L325.962 183.381L316.422 244.723C316.251 245.8 315.247 246.535 314.17 246.371Z" fill="#262154"/>
<path d="M371.186 246.371C372.263 246.2 372.997 245.196 372.834 244.119L363.294 182.777L359.394 183.381L368.933 244.723C369.105 245.8 370.108 246.535 371.186 246.371Z" fill="#262154"/>
<path d="M367.409 182.344H319.597V106.42H357.421C364.643 106.42 370.412 112.442 370.102 119.656L367.409 182.336V182.344Z" fill="#FCC26F"/>
<path d="M352.883 131.995C355.046 132.109 357.33 131.84 359.126 130.624C361.28 129.163 362.414 126.478 362.414 123.875C362.414 121.272 361.378 118.75 359.934 116.588C359.126 115.388 358.163 114.197 357.975 112.761C357.706 110.663 359.15 108.787 360.064 106.877C361.647 103.564 361.443 99.1165 358.636 96.7581C357.453 95.7625 355.902 95.1913 354.972 93.9673C354.083 92.8003 353.911 91.2498 353.87 89.781C353.715 84.9174 355.698 77.0426 350.761 74.0069C349.513 73.2317 348.06 72.8481 346.624 72.538C346.689 71.6812 345.89 71.0447 345.171 70.5714C341.189 67.9356 335.656 67.9029 331.038 68.5394C326.598 69.1515 322.159 71.1997 319.67 74.9209C318.128 77.2303 317.434 80.0211 317.247 82.7875C317.01 86.2475 317.981 91.4702 315.492 94.3508C314.497 95.5014 312.987 96.0318 311.665 96.7908C308.858 98.3984 306.785 101.23 306.099 104.388C305.414 107.546 306.124 110.982 308.009 113.609C308.425 114.189 308.923 114.809 308.866 115.519C308.825 116.025 308.515 116.457 308.213 116.865C306.605 119.02 304.916 121.272 304.533 123.924C303.847 128.6 308.246 134.524 313.272 132.949" fill="black"/>
<path d="M332.58 109.57C332.58 109.57 321.474 106.061 316.643 112.981C311.812 119.901 310.637 128.902 307.528 130.077C304.427 131.252 282.214 127.621 280.843 139.813C279.546 151.286 291.215 152.38 293.802 151.694C296.389 151.009 308.826 152.355 317.696 139.331C317.696 139.331 315.46 147.108 316.676 157.096L349.097 153.196L349.897 142.073L363.019 133.178C363.019 133.178 359.232 114.279 349.628 112.247C340.015 110.215 332.572 108.795 332.572 108.795" fill="#62AFE8"/>
<path d="M332.579 108.787V109.57C332.579 109.57 331.225 109.146 329.258 108.877V110.313C329.258 113.602 331.926 116.27 335.215 116.27C338.504 116.27 341.074 113.7 341.164 110.484C335.982 109.432 332.571 108.779 332.571 108.779L332.579 108.787Z" fill="#569BD0"/>
<path d="M330.865 102.813H339.572V109.831C339.572 112.239 337.622 114.189 335.215 114.189C332.807 114.189 330.857 112.239 330.857 109.831V102.813H330.865Z" fill="#ED798F"/>
<path d="M363.735 108.109C363.066 108.558 362.47 109.154 362.021 109.937C360.879 111.92 360.667 114.287 360.496 116.572C359.141 134.818 358.994 153.138 358.888 171.434C358.872 174.951 358.855 178.517 359.753 181.92C359.794 182.059 359.835 182.206 359.883 182.345H367.407L370.1 119.665C370.312 114.752 367.701 110.394 363.735 108.109Z" fill="#EDAC69"/>
<path d="M318.429 137.683C318.511 137.626 317.572 136.491 316.626 134.361C316.169 133.292 315.72 131.97 315.508 130.461C315.312 128.951 315.361 127.237 315.989 125.597C316.609 123.949 317.556 122.521 318.266 121.125C318.992 119.73 319.482 118.4 319.8 117.265C320.118 116.123 320.282 115.176 320.355 114.523C320.428 113.871 320.437 113.503 320.404 113.495C320.322 113.479 320.184 114.94 319.474 117.167C319.115 118.277 318.601 119.567 317.874 120.921C317.156 122.276 316.185 123.712 315.54 125.434C314.879 127.156 314.839 128.967 315.067 130.526C315.312 132.093 315.802 133.431 316.316 134.5C316.83 135.569 317.352 136.377 317.752 136.907C318.144 137.438 318.397 137.707 318.421 137.691L318.429 137.683Z" fill="#569BD0"/>
<path d="M317.694 121.304C317.817 121.337 318.225 120.097 318.257 118.505C318.298 116.914 317.939 115.657 317.817 115.69C317.686 115.715 317.817 116.963 317.784 118.497C317.76 120.031 317.564 121.272 317.694 121.304Z" fill="#569BD0"/>
<path d="M285.305 220.829C285.313 220.976 285.321 221.115 285.329 221.254C287.051 221.27 288.985 221.278 291.033 221.278C294.232 221.278 297.162 221.262 299.439 221.229L299.537 220.87C297.243 220.837 294.281 220.813 291.025 220.813C288.969 220.813 287.035 220.813 285.297 220.837L285.305 220.829Z" fill="#62AFE8"/>
<path d="M349.104 150.282C349.104 150.282 303.797 154.036 299.333 170.903C294.87 187.771 290.455 225.66 289.867 229.862L309.836 231.731L313.279 181.006C313.394 179.341 314.814 178.068 316.478 178.142C324.916 178.525 348.565 179.186 353.037 174.804C360.732 167.256 349.112 150.274 349.112 150.274L349.104 150.282Z" fill="#07216D"/>
<path d="M352.164 87.5696C351.38 87.1535 350.507 87.0066 349.634 87.1045C349.21 87.1535 348.81 86.9902 348.54 86.7128C345.04 88.2225 340.339 85.6275 337.916 80.7639C337.238 79.4011 336.814 78.0056 336.618 76.6592C335.549 77.2222 334.407 77.7527 333.183 78.2097C328.972 79.8091 324.892 80.3722 321.897 79.956C321.701 80.8128 321.587 81.7023 321.587 82.6163V95.8606C321.587 100.887 325.659 104.959 330.686 104.959H336.267C340.845 104.959 344.811 102.381 346.81 98.6025C349.218 99.5654 352.237 98.1863 353.739 95.3547C355.33 92.3598 354.628 88.8671 352.164 87.5615V87.5696Z" fill="#FF91A0"/>
<path d="M328.116 92.9966C328.14 95.1428 329.879 96.8728 332.033 96.8728C334.187 96.8728 335.925 95.1428 335.95 92.9966H328.116Z" fill="#FFEDFF"/>
<path d="M352.197 89.3978C352.197 89.3978 352.042 89.3407 351.764 89.3325C351.479 89.2999 351.071 89.3489 350.573 89.4794C350.083 89.6345 349.512 89.8956 349.006 90.3608C348.5 90.8259 348.06 91.4379 347.725 92.1397C347.08 93.5678 346.95 94.9795 346.958 95.9751C346.974 96.9788 347.129 97.5827 347.186 97.5746C347.26 97.5664 347.219 96.9544 347.292 95.9833C347.366 95.0203 347.554 93.6657 348.157 92.3356C348.468 91.6746 348.867 91.1115 349.308 90.6709C349.749 90.2302 350.246 89.9609 350.687 89.7814C351.577 89.4549 352.205 89.4794 352.205 89.3815L352.197 89.3978Z" fill="#C65F79"/>
<path d="M349.331 95.4034C349.372 95.4442 349.616 95.2891 349.853 94.8893C350.082 94.4976 350.253 93.8366 350.082 93.1266C349.902 92.4248 349.429 91.9189 349.045 91.6904C348.653 91.4456 348.36 91.4293 348.343 91.4864C348.319 91.5517 348.547 91.6822 348.841 91.9597C349.135 92.229 349.478 92.6778 349.625 93.249C349.771 93.8203 349.682 94.3833 349.551 94.7587C349.429 95.1422 349.282 95.3626 349.339 95.4115L349.331 95.4034Z" fill="#C65F79"/>
<path d="M348.531 86.7129C348.319 86.4925 348.18 86.1988 348.18 85.8642V82.6245C348.18 76.0391 342.843 70.7021 336.258 70.7021H333.508C327.836 70.7021 323.103 74.6599 321.887 79.9642C324.882 80.3804 328.963 79.8173 333.173 78.2179C334.389 77.7527 335.532 77.2305 336.609 76.6674C336.805 78.0139 337.229 79.4093 337.906 80.7721C340.338 85.6357 345.03 88.2307 348.531 86.721V86.7129Z" fill="black"/>
<path d="M320.91 118.857H331.396C332.041 118.857 332.563 119.379 332.563 120.024V123.084H319.751V120.024C319.751 119.379 320.274 118.857 320.918 118.857H320.91Z" fill="#07216D"/>
<path d="M338.438 121.696H313.859C312.687 121.696 311.737 122.646 311.737 123.818V157.063C311.737 158.235 312.687 159.185 313.859 159.185H338.438C339.61 159.185 340.56 158.235 340.56 157.063V123.818C340.56 122.646 339.61 121.696 338.438 121.696Z" fill="#FCC26F"/>
<g style="mix-blend-mode:multiply" opacity="0.3">
<path d="M336.496 149.099C333.526 149.025 330.441 149.083 327.724 147.883C323.415 145.99 320.967 141.355 319.759 136.801C318.552 132.248 318.25 127.458 316.577 123.051C316.405 122.594 316.201 122.145 315.981 121.696H313.868C312.692 121.696 311.746 122.643 311.746 123.818V157.063C311.746 158.239 312.692 159.185 313.868 159.185H338.447C339.622 159.185 340.568 158.239 340.568 157.063V149.327C339.214 149.205 337.851 149.132 336.496 149.099Z" fill="#FCC26F"/>
</g>
<path d="M290.268 226.713C290.251 226.819 290.243 226.925 290.227 227.023C293.075 227.357 297.171 227.79 301.749 228.247C304.785 228.549 307.608 228.818 310.008 229.03L310.032 228.63C307.641 228.369 304.826 228.076 301.79 227.774C297.22 227.317 293.116 226.941 290.259 226.705L290.268 226.713Z" fill="#62AFE8"/>
<path d="M326.303 153.269C324.173 153.489 322.092 152.877 320.036 152.461C318.102 152.069 316.355 152.126 314.405 152.233C312.251 152.355 310.096 152.477 307.95 152.592C307.771 152.6 307.567 152.632 307.493 152.796C307.395 153.024 307.665 153.236 307.893 153.334C309.966 154.191 312.251 154.33 314.487 154.444C312.798 155.023 311.002 155.293 309.215 155.227C308.448 155.195 307.624 155.105 306.873 155.301C306.645 155.358 306.4 155.391 306.286 155.627C305.714 156.827 313.556 157.047 314.324 157.039C311.884 158.296 309.076 157.741 306.441 158.092C305.437 158.222 305.878 159.095 306.514 159.381C307.314 159.74 308.317 159.756 309.182 159.789C310.945 159.854 312.626 159.52 314.381 159.381C312.308 160.654 309.566 159.936 307.297 160.801C307.24 160.825 307.183 160.85 307.142 160.891C307.036 161.013 307.142 161.201 307.248 161.323C307.861 161.96 308.815 162.09 309.648 162.107C311.288 162.139 312.879 161.992 314.511 161.805C313.418 162.874 311.459 162.49 310.309 163.494C310.26 163.535 310.211 163.592 310.194 163.657C310.015 164.408 314.707 163.984 315.148 163.992C318.91 164.106 322.541 164.563 326.295 164.106C327.682 163.935 329.078 163.665 330.342 163.07C331.607 162.474 332.742 161.527 333.362 160.279" fill="#FF91A0"/>
<path d="M355.671 116.115C352.097 112.173 347.087 113.985 345.022 118.465C343.855 120.995 343.814 123.924 344.369 126.658C345.03 129.922 350.596 145.182 346.54 146.724C344.606 147.459 342.346 146.912 340.346 146.945C336.641 147.002 332.945 147.165 329.248 147.442C326.947 147.614 324.621 147.834 322.442 148.577C317.726 150.193 316.624 156.982 318.036 161.152C318.64 162.931 319.855 164.53 321.496 165.444C323.903 166.783 327.64 167.182 330.342 166.832C333.385 166.44 336.503 166.358 339.571 165.926C346.589 164.93 354.309 163.6 360.119 159.267C362.991 157.121 365.562 153.938 365.97 150.331C366.639 144.366 364.885 137.234 362.689 131.701C360.617 126.462 359.556 120.423 355.663 116.123L355.671 116.115Z" fill="#62AFE8"/>
<path d="M332.104 147.32C332.104 147.32 332.284 147.344 332.634 147.344C333.14 147.344 333.638 147.328 334.144 147.328C335.948 147.279 337.784 147.222 339.693 147.165C340.95 147.124 342.223 147.075 343.529 147.026C344.206 147.002 344.965 146.953 345.691 146.7C346.409 146.43 347.103 145.949 347.543 145.239C348.384 143.795 348.368 142.032 348.172 140.359C347.952 138.662 347.568 136.964 347.103 135.218C346.124 131.758 344.81 128.592 344.426 125.54C344.222 124.022 344.222 122.553 344.451 121.223C344.671 119.885 345.161 118.701 345.756 117.714C346.964 115.715 348.694 114.744 349.894 114.311C351.118 113.862 351.852 113.821 351.844 113.773C351.844 113.756 351.664 113.773 351.314 113.805C350.971 113.854 350.465 113.936 349.828 114.14C349.2 114.344 348.441 114.662 347.666 115.209C346.891 115.755 346.115 116.531 345.471 117.534C344.834 118.538 344.304 119.762 344.067 121.15C343.814 122.529 343.798 124.038 344.002 125.597C344.377 128.731 345.691 131.929 346.654 135.34C347.103 137.054 347.503 138.768 347.715 140.416C347.919 142.048 347.919 143.729 347.176 145.019C346.785 145.639 346.189 146.063 345.544 146.316C344.883 146.553 344.198 146.61 343.504 146.643C342.207 146.708 340.925 146.773 339.677 146.838C337.767 146.945 335.939 147.051 334.136 147.149C333.63 147.181 333.132 147.222 332.626 147.255C332.284 147.287 332.104 147.312 332.104 147.328V147.32Z" fill="#569BD0"/>
<g style="mix-blend-mode:multiply" opacity="0.11">
<path d="M360.127 159.259C363 157.113 365.57 153.93 365.978 150.323C366.648 144.358 364.893 137.226 362.698 131.693C360.78 126.838 359.728 121.297 356.48 117.094C356.284 119.183 356.912 121.436 357.549 123.492C358.438 126.356 359.336 129.221 360.225 132.085C361.482 136.132 362.755 140.262 362.747 144.497C362.731 148.74 361.229 153.188 357.859 155.758C354.399 158.394 349.739 158.606 345.398 158.924C338.519 159.422 331.378 160.54 325.764 164.539C325.087 165.02 324.401 165.673 324.018 166.399C326.098 166.946 328.473 167.077 330.35 166.832C333.394 166.44 336.511 166.359 339.579 165.926C346.597 164.931 354.317 163.6 360.127 159.267V159.259Z" fill="#62AFE8"/>
</g>
<path d="M319.529 177.073H361.457C366.101 177.073 369.871 180.843 369.871 185.487V187.127C369.871 188.612 368.663 189.812 367.186 189.812H313.817C312.332 189.812 311.132 188.604 311.132 187.127V185.487C311.132 180.843 314.902 177.073 319.545 177.073H319.529Z" fill="#E2A55C"/>
<path d="M516.155 204.214C523.989 198.07 530.623 193.271 534.434 183.242C540.073 168.431 539.216 150.919 530.492 137.593C519.99 121.549 498.863 115.429 480.657 114.842C468.849 114.458 456.771 116.604 446.22 122.055C435.913 127.368 429.72 136.736 426.259 147.736C422.31 160.295 423.501 175.498 433.033 184.58C438.827 190.097 446.783 192.61 454.511 194.699C462.231 196.788 470.244 198.739 476.683 203.48C483.129 208.221 487.65 216.61 485.3 224.256C496.072 218.487 505.905 212.309 515.494 204.753C515.722 204.573 515.942 204.402 516.163 204.223L516.155 204.214Z" fill="#CFB8FF"/>
<path d="M424.245 94.1145C432.234 91.8622 441.35 91.6582 449.469 93.3148C462.379 95.9506 474.505 106.118 474.554 120.154C474.571 125.687 472.653 131.016 470.752 136.206C468.858 141.404 466.932 146.733 466.957 152.266C466.981 157.798 469.356 163.657 474.195 166.326C466.998 168.374 459.409 168.456 451.934 168.244C444.679 168.031 437.375 167.534 430.366 165.649C423.356 163.764 416.607 160.393 411.621 155.114C403.787 146.823 401.168 134.786 401.315 123.378C401.347 120.913 401.494 118.432 402.008 116.017C404.277 105.319 413.718 97.0767 424.254 94.1063L424.245 94.1145Z" fill="#FCC26F"/>
<g style="mix-blend-mode:multiply" opacity="0.35">
<path d="M466.971 139.821C461.887 138.825 456.729 138.238 451.556 138.058C442.53 137.748 432.517 138.368 425.614 132.542C419.094 127.041 417.69 117.559 418.065 109.04C418.261 104.568 418.849 100.112 419.763 95.73C411.129 99.5246 403.932 106.861 401.998 116.017C401.483 118.432 401.337 120.905 401.304 123.377C401.157 134.786 403.777 146.822 411.61 155.113C416.596 160.393 423.345 163.755 430.355 165.648C437.365 167.533 444.668 168.031 451.923 168.243C459.398 168.464 466.995 168.374 474.184 166.326C469.345 163.657 466.971 157.79 466.946 152.265C466.93 148.185 467.974 144.211 469.28 140.318C468.513 140.139 467.738 139.976 466.962 139.821H466.971Z" fill="#FCC26F"/>
</g>
<g style="mix-blend-mode:multiply" opacity="0.23">
<path d="M515.484 204.745C515.712 204.565 515.933 204.394 516.153 204.214C523.987 198.07 530.621 193.271 534.432 183.242C540.071 168.431 539.214 150.919 530.491 137.593C527.104 132.419 522.608 128.282 517.467 125.026C515.068 126.976 512.995 129.294 511.395 131.97C508.833 136.279 507.552 141.216 506.303 146.072C504.777 151.996 503.26 157.92 501.734 163.845C499.457 172.683 496.34 182.598 488.098 186.531C485.078 187.967 481.692 188.408 478.354 188.62C465.403 189.444 452.257 187.118 440.376 181.904C435.985 179.978 431.53 177.628 427.009 175.914C428.437 179.146 430.412 182.092 433.031 184.58C438.825 190.097 446.781 192.61 454.509 194.699C462.229 196.788 470.243 198.739 476.681 203.48C483.128 208.221 487.649 216.61 485.299 224.256C496.07 218.487 505.904 212.31 515.492 204.753L515.484 204.745Z" fill="#CFB8FF"/>
</g>
<path d="M164.547 187.804H212.358L220.404 125.801C221.359 118.424 215.614 111.879 208.172 111.879H174.527C167.305 111.879 161.535 117.902 161.845 125.116L164.538 187.796L164.547 187.804Z" fill="#62AFE8"/>
<path d="M168.218 113.568C168.888 114.017 169.483 114.613 169.932 115.396C171.075 117.379 171.287 119.746 171.458 122.031C172.813 140.277 172.96 158.597 173.066 176.893C173.082 180.41 173.098 183.976 172.201 187.379C172.16 187.518 172.119 187.665 172.07 187.804H164.546L161.853 125.123C161.641 120.211 164.253 115.853 168.218 113.568Z" fill="#58A3D8"/>
<path d="M229.302 126.274L234.72 128.82L248.071 115.25L258.369 119.754C258.369 119.754 246.088 144.39 238.678 144.447C231.277 144.496 222.031 139.527 222.031 139.527" fill="#FF91A0"/>
<g style="mix-blend-mode:multiply" opacity="0.18">
<path d="M245.498 135.186C241.189 137.724 235.803 138.36 231.021 136.875C228.9 136.222 226.917 135.153 225.187 133.774L222.029 139.527C222.029 139.527 231.274 144.497 238.676 144.448C243.556 144.415 250.566 133.684 254.768 126.381C251.928 129.637 249.195 133.007 245.498 135.186Z" fill="#FF91A0"/>
</g>
<path d="M233.804 230.026L231.25 238.537C231.25 238.537 240.487 240.936 240.324 246.355L217.312 236.913L224.264 221.555L233.804 230.026Z" fill="#FF91A0"/>
<path d="M231.251 238.537L231.357 238.194C227.326 236.334 223.295 234.481 219.263 232.629L217.321 236.913L240.334 246.355C240.489 240.936 231.259 238.537 231.259 238.537H231.251Z" fill="#10124E"/>
<path d="M255.503 231.16L259.869 238.896C259.869 238.896 267.997 233.894 271.8 237.762L249.057 247.824L242.79 232.172L255.503 231.152V231.16Z" fill="#FF91A0"/>
<path d="M171.019 226.916L214.922 207.282L213.772 205.079L169.869 224.713L171.019 226.916Z" fill="#F69526"/>
<path d="M201.686 154.158L181.611 150.192L184.459 141.967L169.167 140.065C169.167 140.065 163.022 152.2 163.813 157.945C164.58 163.535 180.648 166.725 199.817 165.085C200.584 161.47 201.115 157.814 201.686 154.158Z" fill="#FF91A0"/>
<path d="M216.84 226.916L217.99 224.713L174.087 205.079L172.945 207.282L216.84 226.916Z" fill="#F69526"/>
<path d="M210.883 158.475C210.883 158.475 243.214 153.734 249.571 163.265C259.657 178.378 238.236 232.621 238.236 232.621L216.717 225.856L233.014 183.062L208.247 175.261L210.874 158.483L210.883 158.475Z" fill="#07216D"/>
<path d="M195.688 116.629C195.688 116.629 180.011 117.902 175.98 124.651C171.949 131.399 167.999 140.849 167.999 140.849L184.083 147.165L180.77 167.174C180.77 167.174 196.087 175.702 217.99 166.726C217.99 166.726 217.362 150.372 216.007 140.041L224.567 143.15L230.426 124.651C230.426 124.651 214.913 115.046 202.42 116.629C189.934 118.212 195.688 116.629 195.688 116.629Z" fill="#FCC26F"/>
<path d="M202.422 116.629C189.936 118.212 195.689 116.629 195.689 116.629C195.689 116.629 194.392 116.735 192.441 117.045L192.458 118.155C192.499 121.787 195.485 124.692 199.117 124.651C202.748 124.61 205.653 121.623 205.612 117.992L205.596 116.458C204.527 116.45 203.466 116.499 202.43 116.629H202.422Z" fill="#DDA264"/>
<path d="M221.343 251.839C222.42 251.667 223.154 250.664 222.991 249.586L213.451 188.245L209.551 188.849L219.09 250.19C219.262 251.267 220.265 252.002 221.343 251.839Z" fill="#262154"/>
<path d="M165.136 251.839C164.059 251.667 163.325 250.664 163.488 249.586L173.027 188.245L176.928 188.849L167.388 250.19C167.217 251.267 166.213 252.002 165.136 251.839Z" fill="#262154"/>
<path d="M199.067 122.521C196.603 122.553 194.571 120.579 194.546 118.106L194.416 107.767L203.351 107.661L203.482 118C203.514 120.464 201.54 122.496 199.067 122.521Z" fill="#ED798F"/>
<path d="M216.285 144.774C216.285 144.774 216.334 144.472 216.326 143.925C216.326 143.378 216.293 142.595 216.236 141.624C216.122 139.682 215.877 137.005 215.444 134.067C215.012 131.13 214.473 128.494 214.024 126.609C213.796 125.662 213.6 124.903 213.445 124.381C213.29 123.859 213.192 123.573 213.159 123.581C213.094 123.598 213.331 124.773 213.698 126.682C214.065 128.584 214.547 131.219 214.979 134.141C215.412 137.062 215.706 139.723 215.901 141.648C216.097 143.574 216.211 144.774 216.285 144.766V144.774Z" fill="#DDA264"/>
<path d="M215.216 132.395C215.338 132.411 215.689 130.624 215.714 128.388C215.738 126.152 215.428 124.357 215.298 124.373C215.159 124.389 215.265 126.177 215.241 128.388C215.224 130.591 215.077 132.379 215.216 132.403V132.395Z" fill="#DDA264"/>
<path d="M225.107 121.811C224.919 121.721 224.723 121.631 224.527 121.542C224.47 121.697 224.413 121.852 224.348 122.015C223.458 124.422 222.316 127.768 221.157 131.505C220.023 135.145 219.084 138.458 218.456 140.931L219.092 141.159C219.884 138.735 220.92 135.439 222.055 131.783C223.213 128.054 224.258 124.675 224.984 122.219C225.025 122.072 225.066 121.95 225.107 121.811Z" fill="#FFEDFF"/>
<path d="M227.873 123.851C227.922 123.655 227.963 123.467 228.012 123.288C227.832 123.19 227.653 123.092 227.457 122.994C226.706 125.23 225.654 128.576 224.462 132.305C223.205 136.255 222.079 139.747 221.41 142L221.949 142.196C222.079 141.877 222.21 141.543 222.357 141.176C223.205 139.005 224.283 135.977 225.36 132.591C226.437 129.204 227.31 126.111 227.873 123.851Z" fill="#FFEDFF"/>
<path d="M186.932 141.248C184.614 140.228 181.725 138.996 178.567 137.691C175.703 136.507 173.035 135.438 170.807 134.573C170.693 134.81 170.586 135.055 170.472 135.283C172.675 136.246 175.328 137.372 178.208 138.556C181.391 139.869 184.337 141.044 186.703 141.958C186.793 141.722 186.866 141.485 186.932 141.24V141.248Z" fill="#FFEDFF"/>
<path d="M185.544 144.545C183.39 143.599 180.721 142.465 177.816 141.265C174.585 139.935 171.606 138.76 169.289 137.878C169.183 138.107 169.085 138.327 168.995 138.539C171.263 139.551 174.209 140.808 177.457 142.138C180.33 143.321 182.99 144.374 185.169 145.215C185.283 144.978 185.405 144.758 185.536 144.545H185.544Z" fill="#FFEDFF"/>
<path d="M181.089 164.612C181.089 164.612 175.091 175.669 181.612 184.058C188.132 192.447 212.474 188.138 212.474 188.138L215.991 187.779C217.746 187.6 219.402 188.603 220.047 190.244L240.195 241.181L261.543 231.282L233.275 175.155C230.876 170.389 226.135 167.256 220.814 166.897C213.829 166.423 204.51 165.811 197.337 165.518C185.3 165.012 181.089 164.62 181.089 164.62V164.612Z" fill="#092D84"/>
<path d="M223.336 195.287H164.891C163.341 195.287 162.084 194.03 162.084 192.48V191.329C162.084 186.482 166.017 182.549 170.865 182.549H217.354C222.202 182.549 226.135 186.482 226.135 191.329V192.48C226.135 194.03 224.878 195.287 223.328 195.287H223.336Z" fill="#4A93C6"/>
<path d="M259.878 238.896L259.706 238.586C255.577 240.21 251.448 241.834 247.311 243.458L249.057 247.832L271.8 237.77C267.997 233.902 259.869 238.904 259.869 238.904L259.878 238.896Z" fill="#10124E"/>
<path d="M210.024 104.16C214.211 102.104 214.872 97.0686 213.843 92.9883C213.77 92.7027 212.57 89.9364 212.53 89.9772C213.811 88.5573 213.574 86.3539 213.044 84.5179C212.269 81.7923 210.816 78.7566 208.278 77.2633C206.026 75.9331 202.248 75.574 199.685 75.5904C195.466 75.623 189.803 76.2677 186.898 79.6869C186.759 79.8501 186.612 80.0296 186.416 80.1112C186.237 80.1928 186.025 80.1847 185.829 80.1765C182.051 80.0868 178.615 81.8331 177.954 85.897C177.211 90.4913 177.938 95.7955 178.672 100.341" fill="black"/>
<path d="M210.858 104.005L209.218 90.8587C209.103 89.9529 208.883 89.0798 208.581 88.2556C208.565 88.2148 208.548 88.174 208.532 88.1332C205.594 89.8224 201.441 90.1651 197.344 88.737C195.247 88.0026 193.427 86.9009 191.983 85.5708C192.187 87.0886 192.105 88.737 191.697 90.4181C190.424 95.6163 186.442 99.1334 182.623 98.5703C182.427 98.6927 182.198 98.7743 181.945 98.7743C181.064 98.7907 180.224 99.0355 179.489 99.5496C177.212 101.149 176.943 104.699 178.893 107.473C180.738 110.101 183.904 111.097 186.173 109.84C188.629 113.341 192.88 115.413 197.418 114.842L202.95 114.149C207.936 113.528 211.478 108.983 210.858 103.997V104.005Z" fill="#FF91A0"/>
<path d="M204.021 101.965C204.266 104.095 202.748 106.029 200.618 106.298C198.48 106.567 196.538 105.058 196.252 102.936L204.021 101.965Z" fill="#FFEDFF"/>
<path d="M180.16 100.887C180.16 100.985 180.788 100.92 181.694 101.189C182.143 101.344 182.657 101.581 183.122 101.989C183.587 102.397 184.02 102.944 184.371 103.58C185.048 104.878 185.317 106.208 185.448 107.171C185.579 108.134 185.57 108.746 185.652 108.754C185.709 108.754 185.832 108.15 185.783 107.146C185.734 106.151 185.513 104.747 184.787 103.368C184.412 102.683 183.93 102.095 183.4 101.663C182.869 101.23 182.282 100.993 181.784 100.871C181.278 100.773 180.87 100.749 180.584 100.789C180.307 100.822 180.152 100.855 180.152 100.887H180.16Z" fill="#C65F79"/>
<path d="M183.373 106.706C183.422 106.657 183.267 106.445 183.12 106.069C182.973 105.702 182.851 105.147 182.957 104.568C183.071 103.988 183.39 103.523 183.667 103.229C183.944 102.936 184.165 102.797 184.14 102.732C184.116 102.674 183.83 102.715 183.455 102.976C183.079 103.238 182.639 103.76 182.5 104.478C182.361 105.196 182.582 105.849 182.826 106.224C183.079 106.608 183.332 106.755 183.373 106.706Z" fill="#C65F79"/>
<path d="M208.532 88.1409C206.639 83.0978 201.49 79.8092 195.908 80.5028L193.175 80.8455C186.638 81.6616 182.003 87.6187 182.819 94.1551L183.219 97.3703C183.26 97.7049 183.162 98.015 182.974 98.2598C182.876 98.3904 182.754 98.4883 182.615 98.5781C186.426 99.1411 190.416 95.6159 191.689 90.4258C192.097 88.7448 192.179 87.0964 191.975 85.5786C193.419 86.9087 195.239 88.0104 197.336 88.7448C201.433 90.1729 205.595 89.8301 208.524 88.1409H208.532Z" fill="black"/>
<path d="M181.611 150.193L181.848 149.507C176.519 149.107 171.215 148.536 166.049 147.23C164.67 150.903 163.43 155.162 163.814 157.937C164.581 163.527 180.648 166.718 199.817 165.077C200.584 161.462 200.135 160.948 200.699 157.292L181.603 150.185L181.611 150.193Z" fill="#FF91A0"/>
<g style="mix-blend-mode:multiply" opacity="0.18">
<path d="M185.682 162.45C182.818 161.756 179.888 161.259 177.146 160.173C174.404 159.088 171.809 157.317 170.414 154.722C169.149 152.372 168.994 149.557 169.451 146.929C169.745 145.232 170.283 143.599 170.904 141.992C170.169 141.665 169.435 141.331 168.717 140.98C167.321 143.901 163.151 153.147 163.812 157.937C164.514 163.029 177.905 166.13 194.781 165.404C191.827 164.188 188.783 163.201 185.682 162.45Z" fill="#FF91A0"/>
</g>
<path d="M186.107 143.37C186.874 141.812 187.559 139.837 188.294 137.666C188.669 136.532 189.045 135.39 189.42 134.247C189.853 133.072 190.138 131.734 190.089 130.379C190.048 129.024 189.714 127.686 189.037 126.576C188.367 125.475 187.478 124.593 186.539 123.892C184.671 122.488 182.59 121.77 180.827 121.696C180.052 121.656 179.35 121.696 178.722 121.794C178.567 121.909 178.42 122.023 178.273 122.137C178.999 122.023 179.848 121.957 180.803 122.031C182.5 122.145 184.483 122.871 186.278 124.242C187.168 124.928 188.016 125.777 188.637 126.821C189.257 127.857 189.575 129.106 189.616 130.395C189.657 131.693 189.404 132.933 188.979 134.1C188.612 135.251 188.245 136.393 187.878 137.528C187.168 139.706 186.531 141.665 185.797 143.24C185.283 144.472 184.752 145.729 184.214 147.026C184.148 147.198 184.091 147.336 184.034 147.475L183.953 147.989C184.067 147.769 184.206 147.483 184.385 147.1C184.981 145.819 185.552 144.578 186.115 143.362L186.107 143.37Z" fill="#DDA264"/>
<path d="M247.109 116.563C249.198 113.062 253.139 112.614 256.803 112.002C257.309 111.92 258.941 111.259 259.243 111.896C259.488 112.418 258.672 113.103 258.305 113.348C257.252 114.042 255.881 114.148 254.657 114.156C256.142 114.654 257.733 114.417 259.186 113.936C260.639 113.454 261.985 112.54 263.511 112.312C264.311 112.189 264.474 112.956 264.139 113.56C263.837 114.099 262.956 114.368 262.434 114.605C261.65 114.964 260.834 115.266 260.002 115.494C259.3 115.682 258.272 116.017 257.562 115.91C259.137 116.147 260.737 115.959 262.271 115.568C263.054 115.372 263.821 115.119 264.58 114.85C265.029 114.686 265.951 114.221 266.188 114.988C266.245 115.184 266.18 115.388 266.082 115.568C265.78 116.098 265.192 116.384 264.637 116.629C263.062 117.322 261.463 118.097 259.749 118.391C261.544 118.603 263.389 118.465 265.192 118.375C265.519 118.359 266.212 118.375 266.228 118.84C266.237 119.085 265.918 119.436 265.747 119.599C265.339 119.991 264.743 120.146 264.205 120.244C263.413 120.382 262.638 120.497 261.83 120.578C261.079 120.652 260.32 120.733 259.594 120.937C258.615 121.215 257.766 121.819 257.072 122.537C256.55 123.083 256.159 123.744 255.791 124.405C255.432 125.05 255.024 125.638 254.747 126.315" fill="#FF91A0"/>
<path d="M194.496 155.75C197.817 156.345 201.237 157.104 204.231 158.72C206.582 159.993 208.997 161.47 209.936 164.122C210.711 166.325 209.372 165.983 207.545 165.909C205.676 165.836 203.791 165.656 201.987 165.134C203.195 166.023 204.599 166.782 205.096 168.276C205.145 168.414 205.178 168.57 205.162 168.716C205.145 168.863 205.064 169.018 204.925 169.075C204.852 169.108 204.762 169.116 204.68 169.116C204.109 169.1 203.603 168.765 203.187 168.382C202.452 167.713 201.808 167.174 200.935 166.701C200.119 166.252 199.221 165.958 198.315 165.779C196.43 165.395 194.488 165.444 192.578 165.387" fill="#FF91A0"/>
<path d="M209.47 165.689C209.47 165.689 209.111 165.371 208.45 164.971C207.789 164.579 206.834 164.098 205.724 163.706C204.614 163.314 203.578 163.086 202.819 162.972C202.06 162.857 201.587 162.849 201.579 162.882C201.562 162.972 203.447 163.184 205.634 163.967C207.821 164.734 209.421 165.754 209.47 165.681V165.689Z" fill="#ED798F"/>
<path d="M209.928 164.286C209.928 164.286 209.659 163.927 209.112 163.47C208.566 163.013 207.741 162.441 206.754 161.976C205.767 161.511 204.804 161.226 204.102 161.095C203.4 160.956 202.951 160.948 202.951 160.981C202.935 161.071 204.689 161.299 206.632 162.229C208.582 163.143 209.871 164.359 209.928 164.294V164.286Z" fill="#ED798F"/>
<path d="M348.825 249.733C346.442 248.411 343.978 247.154 341.326 246.51C338.682 245.865 335.809 245.849 333.304 246.975C333.418 247.848 334.536 248.101 335.41 248.15C336.846 248.232 338.282 248.313 339.718 248.395C338.339 249.472 336.495 249.758 334.749 249.66C333.002 249.562 331.297 249.121 329.567 248.901C328.987 248.827 328.13 249.064 328.269 249.635C328.326 249.88 328.571 250.027 328.791 250.141C331.901 251.798 335.63 252.263 339.049 251.406C336.209 252.622 333.019 253.03 329.967 252.565C329.036 252.426 327.878 252.304 327.372 253.095C328.889 254.401 330.954 254.923 332.953 254.931C334.953 254.931 336.919 254.474 338.87 254.017C336.642 255.902 333.525 255.633 330.97 256.775C330.864 257.192 331.395 257.469 331.811 257.551C333.288 257.853 334.822 257.902 336.315 257.689C337.074 257.583 337.866 257.412 338.6 257.657C338.976 257.779 339.31 258.016 339.637 258.244C340.698 258.995 341.718 259.982 342.901 260.537C343.782 260.954 344.712 261.109 345.577 261.615" fill="#FF91A0"/>
<path d="M378.171 346.083L381.263 354.415C381.263 354.415 372.197 357.393 372.703 362.795L395.071 351.909L387.155 337.025L378.179 346.083H378.171Z" fill="#FF91A0"/>
<path d="M381.263 354.415L381.14 354.081C385.049 351.975 388.95 349.862 392.859 347.756L395.07 351.91L372.702 362.796C372.205 357.402 381.263 354.415 381.263 354.415Z" fill="#10124E"/>
<path d="M356.961 302.711L374.522 350.171L395.021 342.125L374.955 295.219L356.961 302.711Z" fill="#E2A55C"/>
<path d="M373.242 346.711C376.424 345.512 380.202 344.026 384.234 342.321C387.555 340.909 390.656 339.522 393.373 338.257L393.21 337.874C390.485 339.106 387.375 340.477 384.054 341.888C380.039 343.594 376.277 345.104 373.111 346.344L373.25 346.711H373.242Z" fill="#C68647"/>
<path d="M382.365 343.055C380.35 337.653 378.114 331.647 375.674 325.111C372.826 317.391 370.239 310.389 367.979 304.269C367.187 302.147 366.51 300.352 365.971 298.957L365.367 299.21C365.783 300.638 366.346 302.457 367.032 304.595C368.77 310.014 371.324 317.456 374.344 325.6C376.857 332.382 379.297 338.567 381.329 343.48C381.672 343.333 382.014 343.194 382.365 343.055Z" fill="#C68647"/>
<path d="M330.906 344.647L327.136 352.693C327.136 352.693 318.657 348.327 315.156 352.465L338.601 360.772L343.661 344.696L330.906 344.647Z" fill="#FF91A0"/>
<path d="M327.136 352.693L327.283 352.375C331.526 353.68 335.769 354.986 340.013 356.292L338.601 360.78L315.156 352.473C318.649 348.327 327.136 352.701 327.136 352.701V352.693Z" fill="#10124E"/>
<path d="M399.855 223.863L389.21 224.643L390.675 244.647L401.321 243.867L399.855 223.863Z" fill="#EF8096"/>
<path d="M411.375 208.507C417.013 208.507 421.583 203.936 421.583 198.298C421.583 192.66 417.013 188.089 411.375 188.089C405.737 188.089 401.166 192.66 401.166 198.298C401.166 203.936 405.737 208.507 411.375 208.507Z" fill="black"/>
<path d="M410.741 224.012C413.58 221.278 415.041 218.087 416.371 214.48C417.693 210.914 417.481 207.079 415.123 204.002C414.135 202.713 412.928 202.64 411.687 201.677C410.863 201.04 410.52 200.028 409.827 199.269C409.19 198.568 408.219 198.143 407.313 197.874C405.143 197.221 402.874 197.441 400.736 196.658C398.116 195.695 396.289 194.398 393.375 194.487C389.091 194.626 384.603 196.258 383.248 200.722C382.375 203.594 381.853 208.425 383.917 210.922" fill="black"/>
<path d="M384.667 207.87L378.506 213.729L382.309 215.133L384.667 207.87Z" fill="#EF8096"/>
<path d="M412.436 222.853C411.987 221.988 411.269 221.335 410.404 220.919C410.061 220.756 409.808 220.47 409.669 220.144C405.972 219.834 402.447 216.521 401.199 211.804C400.546 209.331 400.627 206.875 401.297 204.802C399.909 205.031 398.408 205.055 396.874 204.827C393.12 204.28 390.011 202.403 388.322 199.979C387.073 201.089 386.094 202.542 385.58 204.264L380.985 219.589C380.39 221.572 380.488 223.596 381.124 225.407C382.34 228.835 385.612 231.111 389.227 231.413L394.548 231.862C397.526 232.115 400.391 231.364 402.798 229.879C404.455 231.177 407.05 231.356 409.367 230.157C412.354 228.598 413.725 225.334 412.436 222.853Z" fill="#FF91A0"/>
<path d="M384.96 217.752C384.96 217.752 384.96 217.736 384.968 217.728L381.908 216.504L381.027 219.442C380.986 219.564 380.962 219.695 380.929 219.817C382.577 220.217 384.316 219.368 384.96 217.744V217.752Z" fill="#FFEDFF"/>
<path d="M411.376 223.236C411.392 223.195 410.805 222.885 409.76 222.852C408.724 222.812 407.247 223.146 405.957 224.101C404.676 225.056 403.893 226.312 403.477 227.235C403.052 228.173 402.946 228.801 402.995 228.818C403.06 228.842 403.281 228.255 403.762 227.381C404.236 226.516 405.027 225.358 406.227 224.46C407.426 223.571 408.789 223.211 409.768 223.171C410.756 223.122 411.36 223.309 411.376 223.236Z" fill="#C65F79"/>
<path d="M405.655 228.353C405.671 228.402 406.014 228.353 406.463 228.059C406.911 227.773 407.45 227.186 407.67 226.37C407.891 225.554 407.711 224.779 407.475 224.305C407.23 223.824 406.96 223.612 406.92 223.652C406.863 223.693 407.034 223.962 407.181 224.428C407.328 224.885 407.426 225.562 407.238 226.264C407.05 226.957 406.626 227.496 406.275 227.822C405.916 228.149 405.638 228.304 405.663 228.361L405.655 228.353Z" fill="#C65F79"/>
<path d="M409.671 220.135C409.548 219.833 409.524 219.49 409.63 219.156L411.548 213.133C413.278 207.69 410.217 201.88 404.742 200.24L397.226 197.988C393.995 197.017 390.665 197.89 388.315 199.971C390.004 202.394 393.113 204.271 396.875 204.818C398.409 205.038 399.911 205.022 401.298 204.794C400.629 206.866 400.547 209.323 401.2 211.795C402.449 216.512 405.974 219.817 409.671 220.135Z" fill="black"/>
<path d="M397.078 236.938C397.078 236.938 381.345 231.429 374.931 245.53L370.296 259.477L348.214 246.91L339.482 260.358C339.482 260.358 363.123 279.674 377.82 284.929C392.517 290.184 400.465 246.901 400.465 246.901L397.078 236.921V236.938Z" fill="#07216D"/>
<path d="M389.212 236.114C389.212 236.114 407.148 232.458 414.003 235.142C420.858 237.827 417.039 243.058 417.039 243.058L411.31 254.352" fill="#07216D"/>
<path d="M389.317 281.306C389.317 281.306 352.938 271.628 344.606 289.05C336.282 306.473 324.589 345.178 324.589 345.178L346.532 351.363L359.45 300.214H390.9L390.419 281.249" fill="#E2A55C"/>
<path d="M351.095 248.558C349.488 250.81 347.954 252.957 346.354 255.201C344.714 257.486 343.147 259.681 341.49 261.982C341.597 262.064 341.694 262.145 341.809 262.235C343.278 260.252 344.959 257.951 346.729 255.478C348.459 253.054 350.067 250.77 351.446 248.77L351.087 248.566L351.095 248.558Z" fill="#62AFE8"/>
<path d="M377.641 263.973C377.714 263.867 375.592 262.48 372.916 260.872C370.231 259.273 368.011 258.065 367.946 258.179C367.881 258.294 370.002 259.681 372.671 261.28C375.348 262.88 377.575 264.087 377.641 263.973Z" fill="#62AFE8"/>
<path d="M376.775 287.704C374.277 287.451 370.605 287.035 366.052 287.541C363.783 287.81 361.302 288.357 358.805 289.426C356.325 290.495 353.803 292.16 351.828 294.534C349.837 296.884 348.352 299.757 347.12 302.793C345.887 305.828 344.908 309.076 344.043 312.414C341.048 324.785 338.527 336.079 336.617 344.655C336.968 344.696 337.311 344.77 337.654 344.876C339.775 336.356 342.444 325.07 345.414 312.765C346.263 309.46 347.218 306.269 348.401 303.307C349.576 300.344 350.979 297.586 352.824 295.375C354.635 293.139 356.937 291.564 359.279 290.503C361.629 289.442 363.995 288.863 366.182 288.536C370.573 287.916 374.228 288.169 376.726 288.251C379.231 288.373 380.626 288.43 380.634 288.324C380.643 288.234 379.272 287.99 376.766 287.696L376.775 287.704Z" fill="#C68647"/>
<path d="M336.113 344.875C340.259 346.132 344.119 347.291 347.326 348.237L347.424 347.854C344.233 346.858 340.389 345.675 336.252 344.418C332.425 343.259 328.842 342.182 325.79 341.276C325.75 341.407 325.709 341.538 325.668 341.66C328.712 342.607 332.286 343.708 336.113 344.867V344.875Z" fill="#C68647"/>
<path d="M365.915 343.145L364.846 340.942L415.905 321.316L416.966 323.52L365.915 343.145Z" fill="#4A93C6"/>
<path d="M415.905 343.145L364.846 323.52L365.915 321.316L416.966 340.942L415.905 343.145Z" fill="#4A93C6"/>
<path d="M359.793 368.067C358.716 367.896 357.982 366.892 358.145 365.815L367.684 304.473L371.585 305.077L362.045 366.419C361.874 367.496 360.87 368.23 359.793 368.067Z" fill="#262154"/>
<path d="M422.017 368.067C423.094 367.896 423.829 366.892 423.666 365.815L414.126 304.473L410.225 305.077L419.765 366.419C419.936 367.496 420.94 368.23 422.017 368.067Z" fill="#262154"/>
<path d="M374.956 295.219L389.628 242.609C390.697 238.765 394.198 236.113 398.188 236.113H430.928C436.689 236.113 440.924 241.515 439.561 247.105L425.746 303.632L374.956 295.219Z" fill="#62AFE8"/>
<g style="mix-blend-mode:multiply" opacity="0.17">
<path d="M436.675 238.219C433.37 248.705 428.074 258.571 421.121 267.098C416.747 272.46 411.541 277.421 405.078 279.918C396.754 283.142 387.207 281.967 378.908 285.255C378.459 285.435 378.018 285.631 377.577 285.835L374.958 295.227L425.748 303.641L439.564 247.114C440.404 243.67 439.123 240.308 436.675 238.227V238.219Z" fill="#62AFE8"/>
</g>
<path d="M362.715 293.718H419.103C422.767 293.718 425.746 296.696 425.746 300.36V303.633C425.746 305.338 424.358 306.717 422.661 306.717H359.157C357.451 306.717 356.072 305.33 356.072 303.633V300.36C356.072 296.696 359.051 293.718 362.715 293.718Z" fill="#4C96C9"/>
<path d="M170.799 339.955L170.832 348.842C170.832 348.842 180.363 348.45 181.791 353.681L157.033 351.347L159.212 334.634L170.799 339.963V339.955Z" fill="#FF91A0"/>
<path d="M170.833 348.841V348.49C166.434 347.887 162.036 347.283 157.637 346.687L157.025 351.355L181.784 353.689C180.356 348.458 170.824 348.85 170.824 348.85L170.833 348.841Z" fill="#4A93C6"/>
<path d="M154.877 283.199L151.335 340.2L178.134 341.326L176.877 280.963L154.877 283.199Z" fill="#417FB0"/>
<path d="M165.528 336.062C165.095 335.997 165.748 336.062 165.83 336.062C165.911 336.062 166.564 335.997 166.131 336.062C166.27 336.038 166.409 336.038 166.548 336.038C166.817 317.97 167.347 299.912 168.163 281.853L166.523 282.016C165.707 300.018 165.185 318.028 164.916 336.046C165.111 336.029 165.324 336.029 165.528 336.062Z" fill="#4A93C6"/>
<path d="M151.604 335.882C160.417 336.347 169.23 336.747 178.043 337.106L178.027 336.29C169.23 335.939 160.441 335.531 151.653 335.074L151.604 335.89V335.882Z" fill="#4A93C6"/>
<path d="M199.988 250.027C204.77 248.983 209.944 249.831 214.146 252.361C216.717 253.911 212.783 253.92 211.706 253.569C210.988 253.34 208.05 252.483 207.732 251.79C208.671 253.846 210.613 255.413 212.816 255.911C214.473 256.278 216.121 256.335 217.81 256.319C218.226 256.319 218.708 256.335 218.977 256.662C219.581 257.404 217.5 258.049 217.1 258.179C215.232 258.8 212.808 258.408 210.964 257.91C209.935 257.633 208.907 257.355 207.887 257.078C208.116 257.143 208.491 257.657 208.687 257.812C209.813 258.726 211.249 259.191 212.653 259.477C213.387 259.632 214.138 259.714 214.881 259.811C215.525 259.893 216.08 260.154 216.749 260.17C217.059 260.17 217.402 260.195 217.606 260.423C218.055 260.938 217.28 261.639 216.619 261.811C215.158 262.194 213.616 262.178 212.131 261.941C210.596 261.696 209.225 261.068 207.724 260.742C207.969 260.799 208.458 261.46 208.679 261.631C209.079 261.949 209.503 262.227 209.952 262.472C210.833 262.945 211.804 263.174 212.686 263.647C212.832 263.72 212.979 263.818 213.045 263.973C213.175 264.3 212.832 264.626 212.498 264.716C212.041 264.846 211.559 264.773 211.102 264.675C209.601 264.365 208.303 263.737 206.924 263.108C205.945 262.659 204.892 262.464 203.913 261.99C201.187 260.676 198.135 260.285 195.198 261.117" fill="#FF91A0"/>
<path d="M130.249 207.03C127.042 204.165 125.312 200.746 123.704 196.878C122.113 193.051 122.178 188.865 124.618 185.397C125.638 183.952 126.952 183.813 128.266 182.712C129.139 181.977 129.474 180.868 130.192 180.011C130.861 179.219 131.889 178.721 132.877 178.387C135.211 177.587 137.699 177.726 140.001 176.779C142.816 175.62 144.758 174.119 147.933 174.103C152.609 174.07 157.57 175.653 159.235 180.476C160.116 183.014 160.345 185.764 159.896 188.416" fill="black"/>
<path d="M156.469 185.584L164.434 194.667L157.987 196.902" fill="#ED798F"/>
<path d="M168.048 258.139C170.815 264.667 173.573 271.195 176.339 277.724C172.847 278.687 169.158 278.629 165.535 278.523C160.165 278.368 154.796 278.132 149.434 277.797C149.761 272.991 149.141 268.119 147.615 263.541C147.264 262.48 146.856 261.354 147.158 260.277" fill="#092D84"/>
<g style="mix-blend-mode:multiply" opacity="0.29">
<path d="M167.681 340.583C167.681 340.681 167.681 340.779 167.673 340.877L178.143 341.317L176.886 280.963L154.894 283.199C159.659 289.531 163.821 296.353 166.612 303.755C169.745 312.062 171.116 321.153 169.623 329.901C169.011 333.467 167.942 336.968 167.681 340.583Z" fill="#417FB0"/>
</g>
<path d="M141.724 227.984L152.392 228.349L153.078 208.303L142.41 207.938L141.724 227.984Z" fill="#ED798F"/>
<path d="M201.491 248.028L174.259 248.722C174.259 248.722 168.515 231.014 165.055 225.367C161.595 219.72 145.91 222.608 145.91 222.608C145.91 222.608 138.737 258.89 159.987 265.247C174.259 269.514 192.898 266.724 203.604 264.43C203.172 258.93 202.445 253.463 201.483 248.02L201.491 248.028Z" fill="#092D84"/>
<path d="M228.565 323.675L235.012 329.787C235.012 329.787 241.32 322.622 246.086 325.209L227.284 341.497L216.708 328.375L228.565 323.675Z" fill="#FF91A0"/>
<path d="M235.012 329.787L234.751 329.542C231.275 332.308 227.807 335.067 224.33 337.833L227.284 341.497L246.086 325.209C241.32 322.63 235.012 329.787 235.012 329.787Z" fill="#4A93C6"/>
<path d="M160.81 266.886C160.81 266.886 184.198 263.59 192.489 268.502C200.788 273.415 235.053 321.741 235.053 321.741L215.403 337.604C215.403 337.604 181.17 294.983 176.698 291.343C172.226 287.704 162.785 290.331 162.785 290.331L160.802 266.894L160.81 266.886Z" fill="#4A93C6"/>
<path d="M212.652 334.185C219.14 328.677 225.709 323.283 232.368 317.995C232.213 317.783 232.058 317.562 231.894 317.334C225.219 322.63 218.634 328.04 212.138 333.549C212.317 333.769 212.489 333.981 212.652 334.185Z" fill="#3A70A1"/>
<path d="M222.691 325.682C215.697 314.486 208.198 303.592 200.07 293.204C195.141 286.896 189.788 280.922 182.321 277.65C175.858 274.818 168.53 275.071 161.561 275.814L161.7 277.446C169.257 276.695 176.854 276.671 183.864 280.163C191.281 283.86 196.545 291.204 201.417 297.635C208.549 307.044 215.208 316.804 221.459 326.816C221.826 326.392 222.242 326.025 222.683 325.674L222.691 325.682Z" fill="#3A70A1"/>
<path d="M128.356 205.83C128.813 204.867 129.564 204.125 130.486 203.635C130.853 203.439 131.123 203.121 131.253 202.754C135.268 202.256 138.973 198.502 140.132 193.304C140.744 190.578 140.548 187.91 139.732 185.674C141.258 185.862 142.89 185.821 144.555 185.511C148.627 184.752 151.94 182.573 153.678 179.864C155.09 181.023 156.216 182.557 156.852 184.417L162.516 200.934C163.25 203.072 163.234 205.275 162.605 207.283C161.422 211.069 157.962 213.689 154.021 214.178L148.243 214.896C145.003 215.296 141.845 214.603 139.169 213.085C137.422 214.57 134.591 214.88 132.02 213.664C128.699 212.097 127.059 208.588 128.364 205.83H128.356Z" fill="#FF91A0"/>
<path d="M167.291 278.751L152.618 226.141C151.549 222.298 148.049 219.646 144.058 219.646H111.319C105.557 219.646 101.322 225.048 102.685 230.638L116.5 287.165L167.291 278.751Z" fill="#FCC26F"/>
<g style="mix-blend-mode:multiply" opacity="0.26">
<path d="M163.765 266.103C158.387 265.14 152.83 264.887 147.379 265.115C143.201 265.287 138.868 265.703 134.943 264.258C130.732 262.708 127.533 259.199 125.052 255.453C120.172 248.093 117.479 239.541 113.611 231.609C111.767 227.83 109.539 224.093 106.83 220.861C103.59 222.763 101.705 226.647 102.684 230.629L116.5 287.156L167.29 278.743L163.765 266.103Z" fill="#FCC26F"/>
</g>
<path d="M126.342 323.43L125.281 321.226L176.332 301.601L177.401 303.804L126.342 323.43Z" fill="#EDAC69"/>
<path d="M176.341 323.43L125.281 303.804L126.342 301.601L177.401 321.226L176.341 323.43Z" fill="#EDAC69"/>
<path d="M120.228 360.601C119.151 360.429 118.417 359.425 118.58 358.348L128.12 284.758L132.02 285.362L122.481 358.952C122.309 360.029 121.306 360.764 120.228 360.601Z" fill="#262154"/>
<path d="M182.452 360.601C183.53 360.429 184.264 359.425 184.101 358.348L174.561 284.758L170.661 285.362L180.2 358.952C180.372 360.029 181.375 360.764 182.452 360.601Z" fill="#262154"/>
<path d="M183.096 290.25H119.592C117.886 290.25 116.507 288.862 116.507 287.165V283.893C116.507 280.229 119.485 277.25 123.149 277.25H179.538C183.202 277.25 186.18 280.229 186.18 283.893V287.165C186.18 288.87 184.793 290.25 183.096 290.25Z" fill="#EDAC69"/>
<path d="M129.53 206.205C129.555 206.287 130.208 206.05 131.285 206.067C132.346 206.067 133.847 206.409 135.194 207.323C136.54 208.245 137.446 209.478 138.001 210.4C138.564 211.33 138.825 211.967 138.899 211.934C138.956 211.918 138.809 211.232 138.311 210.228C137.821 209.233 136.916 207.903 135.471 206.915C134.027 205.928 132.403 205.626 131.277 205.716C130.134 205.797 129.506 206.156 129.53 206.197V206.205Z" fill="#ED798F"/>
<path d="M135.978 211.543C136.002 211.469 135.692 211.322 135.292 210.979C134.893 210.645 134.411 210.074 134.174 209.323C133.946 208.572 134.019 207.83 134.158 207.324C134.297 206.81 134.468 206.516 134.403 206.467C134.354 206.426 134.068 206.671 133.832 207.201C133.587 207.723 133.432 208.58 133.701 209.462C133.979 210.343 134.591 210.955 135.088 211.257C135.594 211.559 135.962 211.6 135.978 211.543Z" fill="#ED798F"/>
<path d="M131.253 202.754C131.376 202.419 131.392 202.044 131.253 201.685L128.911 195.197C126.79 189.33 129.891 182.867 135.782 180.851L143.878 178.077C147.354 176.885 151.026 177.685 153.67 179.864C151.932 182.581 148.619 184.76 144.547 185.519C142.882 185.829 141.25 185.87 139.724 185.682C140.54 187.918 140.736 190.587 140.124 193.312C138.965 198.51 135.26 202.264 131.245 202.762L131.253 202.754Z" fill="black"/>
<path d="M158.28 198.967C158.9 200.934 160.81 202.125 162.785 201.913C162.711 201.587 162.621 201.26 162.507 200.934L161.479 197.939L158.272 198.951C158.272 198.951 158.272 198.959 158.272 198.967H158.28Z" fill="#FFEDFF"/>
<path d="M445.609 14.7871C423.706 -13.048 357.354 -0.0648414 363.131 41.0228C364.16 48.3508 367.587 55.0995 369.847 62.1419C370.786 65.0633 371.528 68.2132 370.68 71.1592C369.831 74.1051 367.171 76.2512 364.078 76.1125C370.753 84.6157 386.535 83.4569 395.846 82.7306C409.189 81.7024 422.906 78.8789 434.021 71.0204C446.775 62.0032 450.97 48.7507 451.492 33.8172C451.761 26.0811 449.517 19.7649 445.6 14.7789L445.609 14.7871Z" fill="#BABEFF"/>
<g style="mix-blend-mode:multiply" opacity="0.18">
<path d="M436.495 6.80601C431.77 9.72744 427.919 14.1912 425.046 19.0221C420.974 25.8769 418.526 33.5477 415.409 40.8839C412.291 48.2201 408.285 55.4828 401.968 60.3383C393.882 66.5565 382.996 68.0172 372.852 66.9808C372.224 66.9155 371.587 66.8421 370.951 66.7523C371.13 68.2375 371.098 69.7227 370.69 71.1508C369.841 74.0967 367.181 76.2429 364.088 76.1042C370.763 84.6073 386.545 83.4485 395.856 82.7222C409.199 81.694 422.916 78.8705 434.031 71.0121C446.785 61.9948 450.98 48.7342 451.502 33.8088C451.771 26.0727 449.527 19.7566 445.61 14.7706C443.097 11.5798 440.004 8.93588 436.495 6.79785V6.80601Z" fill="#BABEFF"/>
</g>
<path d="M281.478 2.2853C271.816 -0.440271 260.799 -0.685084 250.99 1.32238C235.379 4.50493 220.723 16.8027 220.666 33.76C220.642 40.4433 222.967 46.8901 225.261 53.1654C227.554 59.4489 229.871 65.8875 229.847 72.579C229.814 79.2624 226.95 86.3456 221.099 89.5771C229.798 92.0497 238.97 92.1558 248.012 91.8947C256.784 91.6417 265.614 91.0378 274.084 88.7611C282.555 86.4762 290.715 82.4041 296.737 76.0309C306.204 66.0099 309.378 51.4517 309.198 37.6688C309.158 34.6903 308.978 31.6954 308.366 28.774C305.624 15.8397 294.208 5.87588 281.478 2.29346V2.2853Z" fill="#BACBFD"/>
<g style="mix-blend-mode:multiply" opacity="0.26">
<path d="M296.74 76.0228C297.964 74.7253 299.082 73.3543 300.102 71.91C288.653 72.3343 277.017 74.5131 266.375 70.5798C254.192 66.0753 245.836 53.9407 243.624 41.1452C241.405 28.3497 244.628 15.0972 250.259 3.38705C250.601 2.66893 250.969 1.95898 251.336 1.24902C251.23 1.2735 251.115 1.28983 251.001 1.31431C235.39 4.49686 220.734 16.7946 220.677 33.7519C220.653 40.4353 222.978 46.882 225.271 53.1573C227.565 59.4409 229.882 65.8794 229.858 72.5628C229.825 79.2461 226.961 86.3294 221.11 89.5609C229.809 92.0335 238.981 92.1396 248.023 91.8784C256.795 91.6255 265.625 91.0216 274.095 88.7449C282.566 86.4599 290.726 82.3879 296.748 76.0146L296.74 76.0228Z" fill="#BACBFD"/>
</g>
<path d="M103.622 114.393C96.8245 106.371 87.7991 100.259 77.5578 97.6069C69.0057 95.3954 60.1027 94.7997 51.265 94.9548C40.8768 95.1343 31.6474 97.003 22.9076 102.797C2.89011 116.041 -6.77997 142.432 5.32191 164.343C13.0253 178.297 28.6607 187.265 44.5898 187.73C55.5165 188.049 66.2964 184.727 77.2232 184.907C83.776 185.013 91.0306 186.882 94.4906 192.447C96.7429 196.078 96.9388 200.591 96.8571 204.859C108.086 191.949 114.883 175.261 115.887 158.19C116.279 151.49 117.185 144.872 115.659 138.287C114.174 131.889 111.546 125.76 107.98 120.244C106.658 118.204 105.205 116.245 103.63 114.385L103.622 114.393Z" fill="#BABEFF"/>
<g style="mix-blend-mode:multiply" opacity="0.21">
<path d="M115.331 163.82C113.568 163.592 111.806 163.428 110.051 163.33C97.5412 162.645 85.0476 164.669 72.5214 164.995C59.9952 165.322 46.8569 163.755 36.4851 156.721C25.3787 149.197 18.8178 136.026 17.5937 122.675C17.0878 117.126 17.4387 111.569 18.4506 106.102C1.53405 120.105 -5.84296 144.129 5.32047 164.342C13.0239 178.297 28.6592 187.265 44.5883 187.73C55.5151 188.048 66.295 184.727 77.2218 184.907C83.7746 185.013 91.0292 186.881 94.4892 192.447C96.7415 196.078 96.9373 200.591 96.8557 204.859C106.844 193.377 113.315 178.901 115.331 163.812V163.82Z" fill="#BABEFF"/>
</g>
<path d="M129.54 60.5098C121.061 58.1188 111.391 57.9066 102.782 59.6611C89.0806 62.4601 76.2117 73.2482 76.1627 88.1409C76.1464 94.0082 78.1865 99.6634 80.1939 105.18C82.2095 110.696 84.2415 116.351 84.217 122.219C84.1925 128.086 81.671 134.304 76.5381 137.144C84.168 139.315 92.2305 139.405 100.162 139.176C107.858 138.948 115.61 138.425 123.052 136.418C130.486 134.41 137.651 130.836 142.939 125.238C151.247 116.441 154.037 103.662 153.874 91.5601C153.842 88.9406 153.687 86.313 153.14 83.7506C150.732 72.3913 140.711 63.6515 129.54 60.5016V60.5098Z" fill="#FCC26F"/>
<g style="mix-blend-mode:multiply" opacity="0.17">
<path d="M142.939 125.239C151.247 116.442 154.037 103.662 153.874 91.5605C153.842 88.941 153.687 86.3134 153.14 83.751C151.891 77.8511 148.57 72.6692 144.123 68.5972C142.189 71.2085 140.614 74.2115 139.21 77.1003C135.415 84.9506 131.792 92.8825 128.357 100.896C125.011 108.697 121.461 117.045 114.386 121.746C110.134 124.569 105.01 125.761 99.9421 126.373C94.5889 127.017 89.1133 127.058 83.8253 126.144C82.9358 130.682 80.5367 134.933 76.5381 137.136C84.1681 139.307 92.2305 139.397 100.162 139.168C107.858 138.94 115.61 138.418 123.052 136.418C130.487 134.411 137.651 130.837 142.939 125.239Z" fill="#FCC26F"/>
</g>
</svg>
