<svg width="1184" height="500" viewBox="0 0 1184 500" fill="none" xmlns="http://www.w3.org/2000/svg">
<mask id="mask0_974_165" style="mask-type:alpha" maskUnits="userSpaceOnUse" x="0" y="0" width="1184" height="500">
<rect width="1184" height="500" rx="16" fill="url(#paint0_linear_974_165)"/>
</mask>
<g mask="url(#mask0_974_165)">
<rect x="567.735" y="29.6837" width="118.967" height="253.66" rx="20" fill="white"/>
<path d="M670.882 29H583.292C573.745 29 566.007 36.7385 566.007 46.2858V266.752C566.007 276.3 573.745 284.038 583.292 284.038H670.882C680.43 284.038 688.168 276.3 688.168 266.752V46.2858C688.168 36.7385 680.43 29 670.882 29ZM686.491 266.147C686.491 275.103 679.233 282.361 670.277 282.361H583.898C574.942 282.361 567.684 275.103 567.684 266.147V46.891C567.684 37.9356 574.942 30.6773 583.898 30.6773H670.277C679.233 30.6773 686.491 37.9356 686.491 46.891V266.147Z" fill="#E3E3E3"/>
<g style="mix-blend-mode:screen" opacity="0.7">
<path d="M570.62 34.9625C574.136 31.8217 578.691 29.3716 584.035 29.444L667.097 29.6051C677.904 30.2563 687.415 36.1728 687.783 48.7425C687.783 50.1304 688.53 38.2085 680.808 32.9827C677.141 30.3517 671.721 29.2006 668.462 29.1381C663.13 29.0361 592.754 28.9309 584.134 29.1381C576.909 29.3157 573.518 32.2328 570.62 34.9625Z" fill="white"/>
</g>
<path d="M670.277 30.6772H583.898C574.942 30.6772 567.684 37.9356 567.684 46.8909V266.147C567.684 275.103 574.942 282.361 583.898 282.361H670.277C679.233 282.361 686.491 275.103 686.491 266.147V46.8909C686.491 37.9356 679.233 30.6772 670.277 30.6772ZM685.652 265.657C685.652 274.418 678.549 281.522 669.787 281.522H584.388C575.626 281.522 568.522 274.418 568.522 265.657V47.3809C568.522 38.6196 575.626 31.5159 584.388 31.5159H669.787C678.549 31.5159 685.652 38.6196 685.652 47.3809V265.66V265.657Z" fill="#DCDCDC"/>
<path d="M670.277 282.443H583.897C574.912 282.443 567.601 275.132 567.601 266.147V46.891C567.601 37.906 574.912 30.5951 583.897 30.5951H670.277C679.262 30.5951 686.573 37.906 686.573 46.891V266.147C686.573 275.132 679.262 282.443 670.277 282.443ZM583.897 30.7595C575.001 30.7595 567.766 37.9948 567.766 46.891V266.147C567.766 275.043 575.001 282.279 583.897 282.279H670.277C679.17 282.279 686.408 275.043 686.408 266.147V46.891C686.408 37.9948 679.173 30.7595 670.277 30.7595H583.897ZM669.787 281.604H584.387C575.593 281.604 568.44 274.451 568.44 265.657V47.381C568.44 38.5868 575.593 31.4337 584.387 31.4337H669.787C678.581 31.4337 685.734 38.5868 685.734 47.381V265.66C685.734 274.455 678.581 281.608 669.787 281.608V281.604ZM584.387 31.5982C575.685 31.5982 568.604 38.6789 568.604 47.381V265.66C568.604 274.363 575.685 281.443 584.387 281.443H669.787C678.489 281.443 685.57 274.363 685.57 265.66V47.381C685.57 38.6789 678.489 31.5982 669.787 31.5982H584.387Z" fill="#DDDDDD"/>
<g style="mix-blend-mode:screen" opacity="0.5">
<path d="M570.62 278.076C574.139 281.22 578.691 283.667 584.039 283.597L667.1 283.436C677.907 282.785 687.418 276.869 687.786 264.299C687.786 262.911 688.533 274.833 680.811 280.059C677.144 282.69 671.724 283.841 668.465 283.903C663.134 284.005 592.757 284.11 584.137 283.903C576.915 283.729 573.521 280.812 570.624 278.079L570.62 278.076Z" fill="white"/>
</g>
<path d="M688.559 82.3506H688.168V109.634H688.559V82.3506Z" fill="url(#paint1_linear_974_165)"/>
<path d="M688.559 109.634V82.3539L688.753 82.5906C688.655 84.5442 688.661 107.447 688.753 109.394L688.559 109.631V109.634Z" fill="url(#paint2_linear_974_165)"/>
<path d="M565.589 82.3506H565.197V100.689H565.589V82.3506Z" fill="url(#paint3_linear_974_165)"/>
<path d="M565.197 100.689V82.3539L565 82.5906C565.099 84.5442 565.092 98.5018 565 100.449L565.197 100.686V100.689Z" fill="url(#paint4_linear_974_165)"/>
<path d="M566.003 82.3571H565.585V100.695H566.003V82.3571Z" fill="url(#paint5_linear_974_165)"/>
<path d="M565.589 105.342H565.197V123.681H565.589V105.342Z" fill="url(#paint6_linear_974_165)"/>
<path d="M565.197 123.684V105.349L565 105.586C565.099 107.539 565.092 121.497 565 123.444L565.197 123.681V123.684Z" fill="url(#paint7_linear_974_165)"/>
<path d="M566.003 105.349H565.585V123.687H566.003V105.349Z" fill="url(#paint8_linear_974_165)"/>
<path d="M565.589 60.6381H565.197V70.5899H565.589V60.6381Z" fill="url(#paint9_linear_974_165)"/>
<path d="M565.197 70.5931V60.6446L565 60.8814C565.099 62.8349 565.092 68.4061 565 70.3531L565.197 70.5899V70.5931Z" fill="url(#paint10_linear_974_165)"/>
<path d="M566.003 60.6446H565.585V70.5964H566.003V60.6446Z" fill="url(#paint11_linear_974_165)"/>
<path d="M633.133 283.581H621.041C620.794 283.581 620.58 283.611 620.514 283.657L619.982 283.887C619.883 283.953 620.146 284.018 620.508 284.018H633.666C634.031 284.018 634.294 283.953 634.192 283.887L633.66 283.657C633.594 283.611 633.377 283.581 633.133 283.581Z" fill="#AAAAAA"/>
<rect x="1003.73" y="-60.3163" width="118.967" height="253.66" rx="20" fill="white"/>
<path d="M1106.88 -61H1019.29C1009.75 -61 1002.01 -53.2615 1002.01 -43.7142V176.752C1002.01 186.3 1009.75 194.038 1019.29 194.038H1106.88C1116.43 194.038 1124.17 186.3 1124.17 176.752V-43.7142C1124.17 -53.2615 1116.43 -61 1106.88 -61ZM1122.49 176.147C1122.49 185.103 1115.23 192.361 1106.28 192.361H1019.9C1010.94 192.361 1003.68 185.103 1003.68 176.147V-43.109C1003.68 -52.0644 1010.94 -59.3227 1019.9 -59.3227H1106.28C1115.23 -59.3227 1122.49 -52.0644 1122.49 -43.109V176.147Z" fill="#E3E3E3"/>
<path d="M1106.28 -59.3228H1019.9C1010.94 -59.3228 1003.68 -52.0644 1003.68 -43.1091V176.147C1003.68 185.103 1010.94 192.361 1019.9 192.361H1106.28C1115.23 192.361 1122.49 185.103 1122.49 176.147V-43.1091C1122.49 -52.0644 1115.23 -59.3228 1106.28 -59.3228ZM1121.65 175.657C1121.65 184.418 1114.55 191.522 1105.79 191.522H1020.39C1011.63 191.522 1004.52 184.418 1004.52 175.657V-42.6191C1004.52 -51.3804 1011.63 -58.4841 1020.39 -58.4841H1105.79C1114.55 -58.4841 1121.65 -51.3804 1121.65 -42.6191V175.66V175.657Z" fill="#DCDCDC"/>
<path d="M1106.28 192.443H1019.9C1010.91 192.443 1003.6 185.132 1003.6 176.147V-43.109C1003.6 -52.094 1010.91 -59.4049 1019.9 -59.4049H1106.28C1115.26 -59.4049 1122.57 -52.094 1122.57 -43.109V176.147C1122.57 185.132 1115.26 192.443 1106.28 192.443ZM1019.9 -59.2405C1011 -59.2405 1003.77 -52.0052 1003.77 -43.109V176.147C1003.77 185.043 1011 192.279 1019.9 192.279H1106.28C1115.17 192.279 1122.41 185.043 1122.41 176.147V-43.109C1122.41 -52.0052 1115.17 -59.2405 1106.28 -59.2405H1019.9ZM1105.79 191.604H1020.39C1011.59 191.604 1004.44 184.451 1004.44 175.657V-42.619C1004.44 -51.4132 1011.59 -58.5663 1020.39 -58.5663H1105.79C1114.58 -58.5663 1121.73 -51.4132 1121.73 -42.619V175.66C1121.73 184.455 1114.58 191.608 1105.79 191.608V191.604ZM1020.39 -58.4018C1011.69 -58.4018 1004.6 -51.3211 1004.6 -42.619V175.66C1004.6 184.363 1011.69 191.443 1020.39 191.443H1105.79C1114.49 191.443 1121.57 184.363 1121.57 175.66V-42.619C1121.57 -51.3211 1114.49 -58.4018 1105.79 -58.4018H1020.39Z" fill="#DDDDDD"/>
<g style="mix-blend-mode:screen" opacity="0.5">
<path d="M1006.62 188.076C1010.14 191.22 1014.69 193.667 1020.04 193.597L1103.1 193.436C1113.91 192.785 1123.42 186.869 1123.79 174.299C1123.79 172.911 1124.53 184.833 1116.81 190.059C1113.14 192.69 1107.72 193.841 1104.46 193.903C1099.13 194.005 1028.76 194.11 1020.14 193.903C1012.92 193.729 1009.52 190.812 1006.62 188.079L1006.62 188.076Z" fill="white"/>
</g>
<path d="M1124.56 -7.64948H1124.17V19.6342H1124.56V-7.64948Z" fill="url(#paint12_linear_974_165)"/>
<path d="M1124.56 19.6342V-7.64618L1124.75 -7.40939C1124.65 -5.45585 1124.66 17.4472 1124.75 19.3941L1124.56 19.6309V19.6342Z" fill="url(#paint13_linear_974_165)"/>
<path d="M1001.59 -7.64948H1001.2V10.6887H1001.59V-7.64948Z" fill="url(#paint14_linear_974_165)"/>
<path d="M1001.2 10.6888V-7.64618L1001 -7.40939C1001.1 -5.45585 1001.09 8.50172 1001 10.4487L1001.2 10.6855V10.6888Z" fill="url(#paint15_linear_974_165)"/>
<path d="M1002 -7.64288H1001.59V10.6953H1002V-7.64288Z" fill="url(#paint16_linear_974_165)"/>
<path d="M1001.59 15.3424H1001.2V33.6806H1001.59V15.3424Z" fill="url(#paint17_linear_974_165)"/>
<path d="M1001.2 33.6839V15.349L1001 15.5858C1001.1 17.5393 1001.09 31.4969 1001 33.4439L1001.2 33.6807V33.6839Z" fill="url(#paint18_linear_974_165)"/>
<path d="M1002 15.349H1001.59V33.6872H1002V15.349Z" fill="url(#paint19_linear_974_165)"/>
<path d="M1069.13 193.581H1057.04C1056.79 193.581 1056.58 193.611 1056.51 193.657L1055.98 193.887C1055.88 193.953 1056.15 194.018 1056.51 194.018H1069.67C1070.03 194.018 1070.29 193.953 1070.19 193.887L1069.66 193.657C1069.59 193.611 1069.38 193.581 1069.13 193.581Z" fill="#AAAAAA"/>
<rect x="713.735" y="122.684" width="118.967" height="253.66" rx="20" fill="white"/>
<path d="M816.882 122H729.292C719.745 122 712.007 129.738 712.007 139.286V359.752C712.007 369.3 719.745 377.038 729.292 377.038H816.882C826.43 377.038 834.168 369.3 834.168 359.752V139.286C834.168 129.738 826.43 122 816.882 122ZM832.491 359.147C832.491 368.103 825.233 375.361 816.277 375.361H729.898C720.942 375.361 713.684 368.103 713.684 359.147V139.891C713.684 130.936 720.942 123.677 729.898 123.677H816.277C825.233 123.677 832.491 130.936 832.491 139.891V359.147Z" fill="#E3E3E3"/>
<g style="mix-blend-mode:screen" opacity="0.7">
<path d="M716.62 127.963C720.136 124.822 724.691 122.372 730.035 122.444L813.097 122.605C823.904 123.256 833.415 129.173 833.783 141.743C833.783 143.13 834.53 131.209 826.808 125.983C823.141 123.352 817.721 122.201 814.462 122.138C809.13 122.036 738.754 121.931 730.134 122.138C722.909 122.316 719.518 125.233 716.62 127.963Z" fill="white"/>
</g>
<path d="M816.277 123.677H729.898C720.942 123.677 713.684 130.936 713.684 139.891V359.147C713.684 368.103 720.942 375.361 729.898 375.361H816.277C825.233 375.361 832.491 368.103 832.491 359.147V139.891C832.491 130.936 825.233 123.677 816.277 123.677ZM831.652 358.657C831.652 367.418 824.549 374.522 815.787 374.522H730.388C721.626 374.522 714.522 367.418 714.522 358.657V140.381C714.522 131.62 721.626 124.516 730.388 124.516H815.787C824.549 124.516 831.652 131.62 831.652 140.381V358.66V358.657Z" fill="#DCDCDC"/>
<path d="M816.277 375.443H729.897C720.912 375.443 713.601 368.132 713.601 359.147V139.891C713.601 130.906 720.912 123.595 729.897 123.595H816.277C825.262 123.595 832.573 130.906 832.573 139.891V359.147C832.573 368.132 825.262 375.443 816.277 375.443ZM729.897 123.76C721.001 123.76 713.766 130.995 713.766 139.891V359.147C713.766 368.043 721.001 375.279 729.897 375.279H816.277C825.17 375.279 832.408 368.043 832.408 359.147V139.891C832.408 130.995 825.173 123.76 816.277 123.76H729.897ZM815.787 374.604H730.387C721.593 374.604 714.44 367.451 714.44 358.657V140.381C714.44 131.587 721.593 124.434 730.387 124.434H815.787C824.581 124.434 831.734 131.587 831.734 140.381V358.66C831.734 367.455 824.581 374.608 815.787 374.608V374.604ZM730.387 124.598C721.685 124.598 714.604 131.679 714.604 140.381V358.66C714.604 367.363 721.685 374.443 730.387 374.443H815.787C824.489 374.443 831.57 367.363 831.57 358.66V140.381C831.57 131.679 824.489 124.598 815.787 124.598H730.387Z" fill="#DDDDDD"/>
<g style="mix-blend-mode:screen" opacity="0.5">
<path d="M716.62 371.076C720.139 374.22 724.691 376.667 730.039 376.597L813.1 376.436C823.907 375.785 833.418 369.869 833.786 357.299C833.786 355.911 834.533 367.833 826.811 373.059C823.144 375.69 817.724 376.841 814.465 376.903C809.134 377.005 738.757 377.11 730.137 376.903C722.915 376.729 719.521 373.812 716.624 371.079L716.62 371.076Z" fill="white"/>
</g>
<path d="M834.559 175.351H834.168V202.634H834.559V175.351Z" fill="url(#paint20_linear_974_165)"/>
<path d="M834.559 202.634V175.354L834.753 175.591C834.655 177.544 834.661 200.447 834.753 202.394L834.559 202.631V202.634Z" fill="url(#paint21_linear_974_165)"/>
<path d="M711.589 175.351H711.197V193.689H711.589V175.351Z" fill="url(#paint22_linear_974_165)"/>
<path d="M711.197 193.689V175.354L711 175.591C711.099 177.544 711.092 191.502 711 193.449L711.197 193.686V193.689Z" fill="url(#paint23_linear_974_165)"/>
<path d="M712.003 175.357H711.585V193.695H712.003V175.357Z" fill="url(#paint24_linear_974_165)"/>
<path d="M711.589 198.342H711.197V216.681H711.589V198.342Z" fill="url(#paint25_linear_974_165)"/>
<path d="M711.197 216.684V198.349L711 198.586C711.099 200.539 711.092 214.497 711 216.444L711.197 216.681V216.684Z" fill="url(#paint26_linear_974_165)"/>
<path d="M712.003 198.349H711.585V216.687H712.003V198.349Z" fill="url(#paint27_linear_974_165)"/>
<path d="M711.589 153.638H711.197V163.59H711.589V153.638Z" fill="url(#paint28_linear_974_165)"/>
<path d="M711.197 163.593V153.645L711 153.881C711.099 155.835 711.092 161.406 711 163.353L711.197 163.59V163.593Z" fill="url(#paint29_linear_974_165)"/>
<path d="M712.003 153.645H711.585V163.596H712.003V153.645Z" fill="url(#paint30_linear_974_165)"/>
<path d="M779.133 376.581H767.041C766.794 376.581 766.58 376.611 766.514 376.657L765.982 376.887C765.883 376.953 766.146 377.018 766.508 377.018H779.666C780.031 377.018 780.294 376.953 780.192 376.887L779.66 376.657C779.594 376.611 779.377 376.581 779.133 376.581Z" fill="#AAAAAA"/>
<rect x="855.735" y="62.6837" width="118.967" height="253.66" rx="20" fill="white"/>
<path d="M958.882 62H871.292C861.745 62 854.007 69.7385 854.007 79.2858V299.752C854.007 309.3 861.745 317.038 871.292 317.038H958.882C968.43 317.038 976.168 309.3 976.168 299.752V79.2858C976.168 69.7385 968.43 62 958.882 62ZM974.491 299.147C974.491 308.103 967.233 315.361 958.277 315.361H871.898C862.942 315.361 855.684 308.103 855.684 299.147V79.891C855.684 70.9356 862.942 63.6773 871.898 63.6773H958.277C967.233 63.6773 974.491 70.9356 974.491 79.891V299.147Z" fill="#E3E3E3"/>
<g style="mix-blend-mode:screen" opacity="0.7">
<path d="M858.62 67.9625C862.136 64.8217 866.691 62.3716 872.035 62.444L955.097 62.6051C965.904 63.2563 975.415 69.1728 975.783 81.7425C975.783 83.1304 976.53 71.2085 968.808 65.9827C965.141 63.3517 959.721 62.2006 956.462 62.1381C951.13 62.0361 880.754 61.9309 872.134 62.1381C864.909 62.3157 861.518 65.2328 858.62 67.9625Z" fill="white"/>
</g>
<path d="M958.277 63.6773H871.898C862.942 63.6773 855.684 70.9356 855.684 79.891V299.147C855.684 308.103 862.942 315.361 871.898 315.361H958.277C967.233 315.361 974.491 308.103 974.491 299.147V79.891C974.491 70.9356 967.233 63.6773 958.277 63.6773ZM973.652 298.657C973.652 307.418 966.549 314.522 957.787 314.522H872.388C863.626 314.522 856.522 307.418 856.522 298.657V80.381C856.522 71.6197 863.626 64.5159 872.388 64.5159H957.787C966.549 64.5159 973.652 71.6197 973.652 80.381V298.66V298.657Z" fill="#DCDCDC"/>
<path d="M958.277 315.443H871.897C862.912 315.443 855.601 308.132 855.601 299.147V79.891C855.601 70.906 862.912 63.5951 871.897 63.5951H958.277C967.262 63.5951 974.573 70.906 974.573 79.891V299.147C974.573 308.132 967.262 315.443 958.277 315.443ZM871.897 63.7595C863.001 63.7595 855.766 70.9948 855.766 79.891V299.147C855.766 308.043 863.001 315.279 871.897 315.279H958.277C967.17 315.279 974.408 308.043 974.408 299.147V79.891C974.408 70.9948 967.173 63.7595 958.277 63.7595H871.897ZM957.787 314.604H872.387C863.593 314.604 856.44 307.451 856.44 298.657V80.381C856.44 71.5868 863.593 64.4337 872.387 64.4337H957.787C966.581 64.4337 973.734 71.5868 973.734 80.381V298.66C973.734 307.455 966.581 314.608 957.787 314.608V314.604ZM872.387 64.5981C863.685 64.5981 856.604 71.6789 856.604 80.381V298.66C856.604 307.363 863.685 314.443 872.387 314.443H957.787C966.489 314.443 973.57 307.363 973.57 298.66V80.381C973.57 71.6789 966.489 64.5981 957.787 64.5981H872.387Z" fill="#DDDDDD"/>
<g style="mix-blend-mode:screen" opacity="0.5">
<path d="M858.62 311.076C862.139 314.22 866.691 316.667 872.039 316.597L955.1 316.436C965.907 315.785 975.418 309.869 975.786 297.299C975.786 295.911 976.533 307.833 968.811 313.059C965.144 315.69 959.724 316.841 956.465 316.903C951.134 317.005 880.757 317.11 872.137 316.903C864.915 316.729 861.521 313.812 858.624 311.079L858.62 311.076Z" fill="white"/>
</g>
<path d="M976.559 115.351H976.168V142.634H976.559V115.351Z" fill="url(#paint31_linear_974_165)"/>
<path d="M976.559 142.634V115.354L976.753 115.591C976.655 117.544 976.661 140.447 976.753 142.394L976.559 142.631V142.634Z" fill="url(#paint32_linear_974_165)"/>
<path d="M853.589 115.351H853.197V133.689H853.589V115.351Z" fill="url(#paint33_linear_974_165)"/>
<path d="M853.197 133.689V115.354L853 115.591C853.099 117.544 853.092 131.502 853 133.449L853.197 133.686V133.689Z" fill="url(#paint34_linear_974_165)"/>
<path d="M854.003 115.357H853.585V133.695H854.003V115.357Z" fill="url(#paint35_linear_974_165)"/>
<path d="M853.589 138.342H853.197V156.681H853.589V138.342Z" fill="url(#paint36_linear_974_165)"/>
<path d="M853.197 156.684V138.349L853 138.586C853.099 140.539 853.092 154.497 853 156.444L853.197 156.681V156.684Z" fill="url(#paint37_linear_974_165)"/>
<path d="M854.003 138.349H853.585V156.687H854.003V138.349Z" fill="url(#paint38_linear_974_165)"/>
<path d="M853.589 93.6381H853.197V103.59H853.589V93.6381Z" fill="url(#paint39_linear_974_165)"/>
<path d="M853.197 103.593V93.6446L853 93.8814C853.099 95.8349 853.092 101.406 853 103.353L853.197 103.59V103.593Z" fill="url(#paint40_linear_974_165)"/>
<path d="M854.003 93.6446H853.585V103.596H854.003V93.6446Z" fill="url(#paint41_linear_974_165)"/>
<path d="M921.133 316.581H909.041C908.794 316.581 908.58 316.611 908.514 316.657L907.982 316.887C907.883 316.953 908.146 317.018 908.508 317.018H921.666C922.031 317.018 922.294 316.953 922.192 316.887L921.66 316.657C921.594 316.611 921.377 316.581 921.133 316.581Z" fill="#AAAAAA"/>
<rect x="713.735" y="394.684" width="118.967" height="253.66" rx="20" fill="white"/>
<path d="M816.882 394H729.292C719.745 394 712.007 401.738 712.007 411.286V631.752C712.007 641.3 719.745 649.038 729.292 649.038H816.882C826.43 649.038 834.168 641.3 834.168 631.752V411.286C834.168 401.738 826.43 394 816.882 394ZM832.491 631.147C832.491 640.103 825.233 647.361 816.277 647.361H729.898C720.942 647.361 713.684 640.103 713.684 631.147V411.891C713.684 402.936 720.942 395.677 729.898 395.677H816.277C825.233 395.677 832.491 402.936 832.491 411.891V631.147Z" fill="#E3E3E3"/>
<g style="mix-blend-mode:screen" opacity="0.7">
<path d="M716.62 399.963C720.136 396.822 724.691 394.372 730.035 394.444L813.097 394.605C823.904 395.256 833.415 401.173 833.783 413.743C833.783 415.13 834.53 403.209 826.808 397.983C823.141 395.352 817.721 394.201 814.462 394.138C809.13 394.036 738.754 393.931 730.134 394.138C722.909 394.316 719.518 397.233 716.62 399.963Z" fill="white"/>
</g>
<path d="M816.277 395.677H729.898C720.942 395.677 713.684 402.936 713.684 411.891V631.147C713.684 640.103 720.942 647.361 729.898 647.361H816.277C825.233 647.361 832.491 640.103 832.491 631.147V411.891C832.491 402.936 825.233 395.677 816.277 395.677ZM831.652 630.657C831.652 639.418 824.549 646.522 815.787 646.522H730.388C721.626 646.522 714.522 639.418 714.522 630.657V412.381C714.522 403.62 721.626 396.516 730.388 396.516H815.787C824.549 396.516 831.652 403.62 831.652 412.381V630.66V630.657Z" fill="#DCDCDC"/>
<path d="M816.277 647.443H729.897C720.912 647.443 713.601 640.132 713.601 631.147V411.891C713.601 402.906 720.912 395.595 729.897 395.595H816.277C825.262 395.595 832.573 402.906 832.573 411.891V631.147C832.573 640.132 825.262 647.443 816.277 647.443ZM729.897 395.76C721.001 395.76 713.766 402.995 713.766 411.891V631.147C713.766 640.043 721.001 647.279 729.897 647.279H816.277C825.17 647.279 832.408 640.043 832.408 631.147V411.891C832.408 402.995 825.173 395.76 816.277 395.76H729.897ZM815.787 646.604H730.387C721.593 646.604 714.44 639.451 714.44 630.657V412.381C714.44 403.587 721.593 396.434 730.387 396.434H815.787C824.581 396.434 831.734 403.587 831.734 412.381V630.66C831.734 639.455 824.581 646.608 815.787 646.608V646.604ZM730.387 396.598C721.685 396.598 714.604 403.679 714.604 412.381V630.66C714.604 639.363 721.685 646.443 730.387 646.443H815.787C824.489 646.443 831.57 639.363 831.57 630.66V412.381C831.57 403.679 824.489 396.598 815.787 396.598H730.387Z" fill="#DDDDDD"/>
<path d="M834.559 447.351H834.168V474.634H834.559V447.351Z" fill="url(#paint42_linear_974_165)"/>
<path d="M834.559 474.634V447.354L834.753 447.591C834.655 449.544 834.661 472.447 834.753 474.394L834.559 474.631V474.634Z" fill="url(#paint43_linear_974_165)"/>
<path d="M711.589 447.351H711.197V465.689H711.589V447.351Z" fill="url(#paint44_linear_974_165)"/>
<path d="M711.197 465.689V447.354L711 447.591C711.099 449.544 711.092 463.502 711 465.449L711.197 465.685V465.689Z" fill="url(#paint45_linear_974_165)"/>
<path d="M712.003 447.357H711.585V465.695H712.003V447.357Z" fill="url(#paint46_linear_974_165)"/>
<path d="M711.589 470.342H711.197V488.681H711.589V470.342Z" fill="url(#paint47_linear_974_165)"/>
<path d="M711.197 488.684V470.349L711 470.586C711.099 472.539 711.092 486.497 711 488.444L711.197 488.681V488.684Z" fill="url(#paint48_linear_974_165)"/>
<path d="M712.003 470.349H711.585V488.687H712.003V470.349Z" fill="url(#paint49_linear_974_165)"/>
<path d="M711.589 425.638H711.197V435.59H711.589V425.638Z" fill="url(#paint50_linear_974_165)"/>
<path d="M711.197 435.593V425.645L711 425.881C711.099 427.835 711.092 433.406 711 435.353L711.197 435.59V435.593Z" fill="url(#paint51_linear_974_165)"/>
<path d="M712.003 425.645H711.585V435.596H712.003V425.645Z" fill="url(#paint52_linear_974_165)"/>
<rect x="855.735" y="334.684" width="118.967" height="253.66" rx="20" fill="white"/>
<path d="M958.882 334H871.292C861.745 334 854.007 341.738 854.007 351.286V571.752C854.007 581.3 861.745 589.038 871.292 589.038H958.882C968.43 589.038 976.168 581.3 976.168 571.752V351.286C976.168 341.738 968.43 334 958.882 334ZM974.491 571.147C974.491 580.103 967.233 587.361 958.277 587.361H871.898C862.942 587.361 855.684 580.103 855.684 571.147V351.891C855.684 342.936 862.942 335.677 871.898 335.677H958.277C967.233 335.677 974.491 342.936 974.491 351.891V571.147Z" fill="#E3E3E3"/>
<g style="mix-blend-mode:screen" opacity="0.7">
<path d="M858.62 339.963C862.136 336.822 866.691 334.372 872.035 334.444L955.097 334.605C965.904 335.256 975.415 341.173 975.783 353.743C975.783 355.13 976.53 343.209 968.808 337.983C965.141 335.352 959.721 334.201 956.462 334.138C951.13 334.036 880.754 333.931 872.134 334.138C864.909 334.316 861.518 337.233 858.62 339.963Z" fill="white"/>
</g>
<path d="M958.277 335.677H871.898C862.942 335.677 855.684 342.936 855.684 351.891V571.147C855.684 580.103 862.942 587.361 871.898 587.361H958.277C967.233 587.361 974.491 580.103 974.491 571.147V351.891C974.491 342.936 967.233 335.677 958.277 335.677ZM973.652 570.657C973.652 579.418 966.549 586.522 957.787 586.522H872.388C863.626 586.522 856.522 579.418 856.522 570.657V352.381C856.522 343.62 863.626 336.516 872.388 336.516H957.787C966.549 336.516 973.652 343.62 973.652 352.381V570.66V570.657Z" fill="#DCDCDC"/>
<path d="M958.277 587.443H871.897C862.912 587.443 855.601 580.132 855.601 571.147V351.891C855.601 342.906 862.912 335.595 871.897 335.595H958.277C967.262 335.595 974.573 342.906 974.573 351.891V571.147C974.573 580.132 967.262 587.443 958.277 587.443ZM871.897 335.76C863.001 335.76 855.766 342.995 855.766 351.891V571.147C855.766 580.043 863.001 587.279 871.897 587.279H958.277C967.17 587.279 974.408 580.043 974.408 571.147V351.891C974.408 342.995 967.173 335.76 958.277 335.76H871.897ZM957.787 586.604H872.387C863.593 586.604 856.44 579.451 856.44 570.657V352.381C856.44 343.587 863.593 336.434 872.387 336.434H957.787C966.581 336.434 973.734 343.587 973.734 352.381V570.66C973.734 579.455 966.581 586.608 957.787 586.608V586.604ZM872.387 336.598C863.685 336.598 856.604 343.679 856.604 352.381V570.66C856.604 579.363 863.685 586.443 872.387 586.443H957.787C966.489 586.443 973.57 579.363 973.57 570.66V352.381C973.57 343.679 966.489 336.598 957.787 336.598H872.387Z" fill="#DDDDDD"/>
<path d="M976.559 387.351H976.168V414.634H976.559V387.351Z" fill="url(#paint53_linear_974_165)"/>
<path d="M976.559 414.634V387.354L976.753 387.591C976.655 389.544 976.661 412.447 976.753 414.394L976.559 414.631V414.634Z" fill="url(#paint54_linear_974_165)"/>
<path d="M853.589 387.351H853.197V405.689H853.589V387.351Z" fill="url(#paint55_linear_974_165)"/>
<path d="M853.197 405.689V387.354L853 387.591C853.099 389.544 853.092 403.502 853 405.449L853.197 405.686V405.689Z" fill="url(#paint56_linear_974_165)"/>
<path d="M854.003 387.357H853.585V405.695H854.003V387.357Z" fill="url(#paint57_linear_974_165)"/>
<path d="M853.589 410.342H853.197V428.681H853.589V410.342Z" fill="url(#paint58_linear_974_165)"/>
<path d="M853.197 428.684V410.349L853 410.586C853.099 412.539 853.092 426.497 853 428.444L853.197 428.681V428.684Z" fill="url(#paint59_linear_974_165)"/>
<path d="M854.003 410.349H853.585V428.687H854.003V410.349Z" fill="url(#paint60_linear_974_165)"/>
<path d="M853.589 365.638H853.197V375.59H853.589V365.638Z" fill="url(#paint61_linear_974_165)"/>
<path d="M853.197 375.593V365.645L853 365.881C853.099 367.835 853.092 373.406 853 375.353L853.197 375.59V375.593Z" fill="url(#paint62_linear_974_165)"/>
<path d="M854.003 365.645H853.585V375.596H854.003V365.645Z" fill="url(#paint63_linear_974_165)"/>
<rect x="713.735" y="-148.316" width="118.967" height="253.66" rx="20" fill="white"/>
<path d="M816.882 -149H729.292C719.745 -149 712.007 -141.262 712.007 -131.714V88.7523C712.007 98.2996 719.745 106.038 729.292 106.038H816.882C826.43 106.038 834.168 98.2996 834.168 88.7523V-131.714C834.168 -141.262 826.43 -149 816.882 -149ZM832.491 88.1472C832.491 97.1025 825.233 104.361 816.277 104.361H729.898C720.942 104.361 713.684 97.1025 713.684 88.1472V-131.109C713.684 -140.064 720.942 -147.323 729.898 -147.323H816.277C825.233 -147.323 832.491 -140.064 832.491 -131.109V88.1472Z" fill="#E3E3E3"/>
<path d="M816.277 -147.323H729.898C720.942 -147.323 713.684 -140.064 713.684 -131.109V88.1472C713.684 97.1025 720.942 104.361 729.898 104.361H816.277C825.233 104.361 832.491 97.1025 832.491 88.1472V-131.109C832.491 -140.064 825.233 -147.323 816.277 -147.323ZM831.652 87.6572C831.652 96.4185 824.549 103.522 815.787 103.522H730.388C721.626 103.522 714.522 96.4185 714.522 87.6572V-130.619C714.522 -139.38 721.626 -146.484 730.388 -146.484H815.787C824.549 -146.484 831.652 -139.38 831.652 -130.619V87.6604V87.6572Z" fill="#DCDCDC"/>
<path d="M816.277 104.443H729.897C720.912 104.443 713.601 97.1322 713.601 88.1472V-131.109C713.601 -140.094 720.912 -147.405 729.897 -147.405H816.277C825.262 -147.405 832.573 -140.094 832.573 -131.109V88.1472C832.573 97.1322 825.262 104.443 816.277 104.443ZM729.897 -147.24C721.001 -147.24 713.766 -140.005 713.766 -131.109V88.1472C713.766 97.0434 721.001 104.279 729.897 104.279H816.277C825.17 104.279 832.408 97.0434 832.408 88.1472V-131.109C832.408 -140.005 825.173 -147.24 816.277 -147.24H729.897ZM815.787 103.604H730.387C721.593 103.604 714.44 96.4514 714.44 87.6572V-130.619C714.44 -139.413 721.593 -146.566 730.387 -146.566H815.787C824.581 -146.566 831.734 -139.413 831.734 -130.619V87.6605C831.734 96.4547 824.581 103.608 815.787 103.608V103.604ZM730.387 -146.402C721.685 -146.402 714.604 -139.321 714.604 -130.619V87.6605C714.604 96.3626 721.685 103.443 730.387 103.443H815.787C824.489 103.443 831.57 96.3626 831.57 87.6605V-130.619C831.57 -139.321 824.489 -146.402 815.787 -146.402H730.387Z" fill="#DDDDDD"/>
<g style="mix-blend-mode:screen" opacity="0.5">
<path d="M716.62 100.076C720.139 103.22 724.691 105.667 730.039 105.597L813.1 105.436C823.907 104.785 833.418 98.8686 833.786 86.2989C833.786 84.911 834.533 96.8329 826.811 102.059C823.144 104.69 817.724 105.841 814.465 105.903C809.134 106.005 738.757 106.11 730.137 105.903C722.915 105.729 719.521 102.812 716.624 100.079L716.62 100.076Z" fill="white"/>
</g>
<path d="M779.133 105.581H767.041C766.794 105.581 766.58 105.611 766.514 105.657L765.982 105.887C765.883 105.953 766.146 106.018 766.508 106.018H779.666C780.031 106.018 780.294 105.953 780.192 105.887L779.66 105.657C779.594 105.611 779.377 105.581 779.133 105.581Z" fill="#AAAAAA"/>
<rect x="855.735" y="-208.316" width="118.967" height="253.66" rx="20" fill="white"/>
<path d="M958.882 -209H871.292C861.745 -209 854.007 -201.262 854.007 -191.714V28.7523C854.007 38.2996 861.745 46.0381 871.292 46.0381H958.882C968.43 46.0381 976.168 38.2996 976.168 28.7523V-191.714C976.168 -201.262 968.43 -209 958.882 -209ZM974.491 28.1472C974.491 37.1025 967.233 44.3609 958.277 44.3609H871.898C862.942 44.3609 855.684 37.1025 855.684 28.1472V-191.109C855.684 -200.064 862.942 -207.323 871.898 -207.323H958.277C967.233 -207.323 974.491 -200.064 974.491 -191.109V28.1472Z" fill="#E3E3E3"/>
<path d="M958.277 -207.323H871.898C862.942 -207.323 855.684 -200.064 855.684 -191.109V28.1472C855.684 37.1025 862.942 44.3608 871.898 44.3608H958.277C967.233 44.3608 974.491 37.1025 974.491 28.1472V-191.109C974.491 -200.064 967.233 -207.323 958.277 -207.323ZM973.652 27.6572C973.652 36.4185 966.549 43.5222 957.787 43.5222H872.388C863.626 43.5222 856.522 36.4185 856.522 27.6572V-190.619C856.522 -199.38 863.626 -206.484 872.388 -206.484H957.787C966.549 -206.484 973.652 -199.38 973.652 -190.619V27.6604V27.6572Z" fill="#DCDCDC"/>
<path d="M958.277 44.4431H871.897C862.912 44.4431 855.601 37.1322 855.601 28.1472V-191.109C855.601 -200.094 862.912 -207.405 871.897 -207.405H958.277C967.262 -207.405 974.573 -200.094 974.573 -191.109V28.1472C974.573 37.1322 967.262 44.4431 958.277 44.4431ZM871.897 -207.24C863.001 -207.24 855.766 -200.005 855.766 -191.109V28.1472C855.766 37.0434 863.001 44.2787 871.897 44.2787H958.277C967.17 44.2787 974.408 37.0434 974.408 28.1472V-191.109C974.408 -200.005 967.173 -207.24 958.277 -207.24H871.897ZM957.787 43.6045H872.387C863.593 43.6045 856.44 36.4514 856.44 27.6572V-190.619C856.44 -199.413 863.593 -206.566 872.387 -206.566H957.787C966.581 -206.566 973.734 -199.413 973.734 -190.619V27.6605C973.734 36.4547 966.581 43.6078 957.787 43.6078V43.6045ZM872.387 -206.402C863.685 -206.402 856.604 -199.321 856.604 -190.619V27.6605C856.604 36.3626 863.685 43.4433 872.387 43.4433H957.787C966.489 43.4433 973.57 36.3626 973.57 27.6605V-190.619C973.57 -199.321 966.489 -206.402 957.787 -206.402H872.387Z" fill="#DDDDDD"/>
<g style="mix-blend-mode:screen" opacity="0.5">
<path d="M858.62 40.0756C862.139 43.2197 866.691 45.6665 872.039 45.5975L955.1 45.4363C965.907 44.7852 975.418 38.8686 975.786 26.2989C975.786 24.9111 976.533 36.8329 968.811 42.0588C965.144 44.6898 959.724 45.8408 956.465 45.9033C951.134 46.0053 880.757 46.1105 872.137 45.9033C864.915 45.729 861.521 42.8119 858.624 40.0789L858.62 40.0756Z" fill="white"/>
</g>
<path d="M921.133 45.581H909.041C908.794 45.581 908.58 45.6106 908.514 45.6566L907.982 45.8868C907.883 45.9526 908.146 46.0184 908.508 46.0184H921.666C922.031 46.0184 922.294 45.9526 922.192 45.8868L921.66 45.6566C921.594 45.6106 921.377 45.581 921.133 45.581Z" fill="#AAAAAA"/>
<rect x="567.735" y="301.684" width="118.967" height="253.66" rx="20" fill="white"/>
<path d="M670.882 301H583.292C573.745 301 566.007 308.738 566.007 318.286V538.752C566.007 548.3 573.745 556.038 583.292 556.038H670.882C680.43 556.038 688.168 548.3 688.168 538.752V318.286C688.168 308.738 680.43 301 670.882 301ZM686.491 538.147C686.491 547.103 679.233 554.361 670.277 554.361H583.898C574.942 554.361 567.684 547.103 567.684 538.147V318.891C567.684 309.936 574.942 302.677 583.898 302.677H670.277C679.233 302.677 686.491 309.936 686.491 318.891V538.147Z" fill="#E3E3E3"/>
<g style="mix-blend-mode:screen" opacity="0.7">
<path d="M570.62 306.963C574.136 303.822 578.691 301.372 584.035 301.444L667.097 301.605C677.904 302.256 687.415 308.173 687.783 320.743C687.783 322.13 688.53 310.209 680.808 304.983C677.141 302.352 671.721 301.201 668.462 301.138C663.13 301.036 592.754 300.931 584.134 301.138C576.909 301.316 573.518 304.233 570.62 306.963Z" fill="white"/>
</g>
<path d="M670.277 302.677H583.898C574.942 302.677 567.684 309.936 567.684 318.891V538.147C567.684 547.103 574.942 554.361 583.898 554.361H670.277C679.233 554.361 686.491 547.103 686.491 538.147V318.891C686.491 309.936 679.233 302.677 670.277 302.677ZM685.652 537.657C685.652 546.418 678.549 553.522 669.787 553.522H584.388C575.626 553.522 568.522 546.418 568.522 537.657V319.381C568.522 310.62 575.626 303.516 584.388 303.516H669.787C678.549 303.516 685.652 310.62 685.652 319.381V537.66V537.657Z" fill="#DCDCDC"/>
<path d="M670.277 554.443H583.897C574.912 554.443 567.601 547.132 567.601 538.147V318.891C567.601 309.906 574.912 302.595 583.897 302.595H670.277C679.262 302.595 686.573 309.906 686.573 318.891V538.147C686.573 547.132 679.262 554.443 670.277 554.443ZM583.897 302.76C575.001 302.76 567.766 309.995 567.766 318.891V538.147C567.766 547.043 575.001 554.279 583.897 554.279H670.277C679.17 554.279 686.408 547.043 686.408 538.147V318.891C686.408 309.995 679.173 302.76 670.277 302.76H583.897ZM669.787 553.604H584.387C575.593 553.604 568.44 546.451 568.44 537.657V319.381C568.44 310.587 575.593 303.434 584.387 303.434H669.787C678.581 303.434 685.734 310.587 685.734 319.381V537.66C685.734 546.455 678.581 553.608 669.787 553.608V553.604ZM584.387 303.598C575.685 303.598 568.604 310.679 568.604 319.381V537.66C568.604 546.363 575.685 553.443 584.387 553.443H669.787C678.489 553.443 685.57 546.363 685.57 537.66V319.381C685.57 310.679 678.489 303.598 669.787 303.598H584.387Z" fill="#DDDDDD"/>
<path d="M688.559 354.351H688.168V381.634H688.559V354.351Z" fill="url(#paint64_linear_974_165)"/>
<path d="M688.559 381.634V354.354L688.753 354.591C688.655 356.544 688.661 379.447 688.753 381.394L688.559 381.631V381.634Z" fill="url(#paint65_linear_974_165)"/>
<path d="M565.589 354.351H565.197V372.689H565.589V354.351Z" fill="url(#paint66_linear_974_165)"/>
<path d="M565.197 372.689V354.354L565 354.591C565.099 356.544 565.092 370.502 565 372.449L565.197 372.685V372.689Z" fill="url(#paint67_linear_974_165)"/>
<path d="M566.003 354.357H565.585V372.695H566.003V354.357Z" fill="url(#paint68_linear_974_165)"/>
<path d="M565.589 377.342H565.197V395.681H565.589V377.342Z" fill="url(#paint69_linear_974_165)"/>
<path d="M565.197 395.684V377.349L565 377.586C565.099 379.539 565.092 393.497 565 395.444L565.197 395.681V395.684Z" fill="url(#paint70_linear_974_165)"/>
<path d="M566.003 377.349H565.585V395.687H566.003V377.349Z" fill="url(#paint71_linear_974_165)"/>
<path d="M565.589 332.638H565.197V342.59H565.589V332.638Z" fill="url(#paint72_linear_974_165)"/>
<path d="M565.197 342.593V332.645L565 332.881C565.099 334.835 565.092 340.406 565 342.353L565.197 342.59V342.593Z" fill="url(#paint73_linear_974_165)"/>
<path d="M566.003 332.645H565.585V342.596H566.003V332.645Z" fill="url(#paint74_linear_974_165)"/>
<rect x="1003.73" y="211.684" width="118.967" height="253.66" rx="20" fill="white"/>
<path d="M1106.88 211H1019.29C1009.75 211 1002.01 218.738 1002.01 228.286V448.752C1002.01 458.3 1009.75 466.038 1019.29 466.038H1106.88C1116.43 466.038 1124.17 458.3 1124.17 448.752V228.286C1124.17 218.738 1116.43 211 1106.88 211ZM1122.49 448.147C1122.49 457.103 1115.23 464.361 1106.28 464.361H1019.9C1010.94 464.361 1003.68 457.103 1003.68 448.147V228.891C1003.68 219.936 1010.94 212.677 1019.9 212.677H1106.28C1115.23 212.677 1122.49 219.936 1122.49 228.891V448.147Z" fill="#E3E3E3"/>
<g style="mix-blend-mode:screen" opacity="0.7">
<path d="M1006.62 216.963C1010.14 213.822 1014.69 211.372 1020.04 211.444L1103.1 211.605C1113.9 212.256 1123.41 218.173 1123.78 230.743C1123.78 232.13 1124.53 220.209 1116.81 214.983C1113.14 212.352 1107.72 211.201 1104.46 211.138C1099.13 211.036 1028.75 210.931 1020.13 211.138C1012.91 211.316 1009.52 214.233 1006.62 216.963Z" fill="white"/>
</g>
<path d="M1106.28 212.677H1019.9C1010.94 212.677 1003.68 219.936 1003.68 228.891V448.147C1003.68 457.103 1010.94 464.361 1019.9 464.361H1106.28C1115.23 464.361 1122.49 457.103 1122.49 448.147V228.891C1122.49 219.936 1115.23 212.677 1106.28 212.677ZM1121.65 447.657C1121.65 456.418 1114.55 463.522 1105.79 463.522H1020.39C1011.63 463.522 1004.52 456.418 1004.52 447.657V229.381C1004.52 220.62 1011.63 213.516 1020.39 213.516H1105.79C1114.55 213.516 1121.65 220.62 1121.65 229.381V447.66V447.657Z" fill="#DCDCDC"/>
<path d="M1106.28 464.443H1019.9C1010.91 464.443 1003.6 457.132 1003.6 448.147V228.891C1003.6 219.906 1010.91 212.595 1019.9 212.595H1106.28C1115.26 212.595 1122.57 219.906 1122.57 228.891V448.147C1122.57 457.132 1115.26 464.443 1106.28 464.443ZM1019.9 212.76C1011 212.76 1003.77 219.995 1003.77 228.891V448.147C1003.77 457.043 1011 464.279 1019.9 464.279H1106.28C1115.17 464.279 1122.41 457.043 1122.41 448.147V228.891C1122.41 219.995 1115.17 212.76 1106.28 212.76H1019.9ZM1105.79 463.604H1020.39C1011.59 463.604 1004.44 456.451 1004.44 447.657V229.381C1004.44 220.587 1011.59 213.434 1020.39 213.434H1105.79C1114.58 213.434 1121.73 220.587 1121.73 229.381V447.66C1121.73 456.455 1114.58 463.608 1105.79 463.608V463.604ZM1020.39 213.598C1011.69 213.598 1004.6 220.679 1004.6 229.381V447.66C1004.6 456.363 1011.69 463.443 1020.39 463.443H1105.79C1114.49 463.443 1121.57 456.363 1121.57 447.66V229.381C1121.57 220.679 1114.49 213.598 1105.79 213.598H1020.39Z" fill="#DDDDDD"/>
<g style="mix-blend-mode:screen" opacity="0.5">
<path d="M1006.62 460.076C1010.14 463.22 1014.69 465.667 1020.04 465.597L1103.1 465.436C1113.91 464.785 1123.42 458.869 1123.79 446.299C1123.79 444.911 1124.53 456.833 1116.81 462.059C1113.14 464.69 1107.72 465.841 1104.46 465.903C1099.13 466.005 1028.76 466.11 1020.14 465.903C1012.92 465.729 1009.52 462.812 1006.62 460.079L1006.62 460.076Z" fill="white"/>
</g>
<path d="M1124.56 264.351H1124.17V291.634H1124.56V264.351Z" fill="url(#paint75_linear_974_165)"/>
<path d="M1124.56 291.634V264.354L1124.75 264.591C1124.65 266.544 1124.66 289.447 1124.75 291.394L1124.56 291.631V291.634Z" fill="url(#paint76_linear_974_165)"/>
<path d="M1001.59 264.351H1001.2V282.689H1001.59V264.351Z" fill="url(#paint77_linear_974_165)"/>
<path d="M1001.2 282.689V264.354L1001 264.591C1001.1 266.544 1001.09 280.502 1001 282.449L1001.2 282.686V282.689Z" fill="url(#paint78_linear_974_165)"/>
<path d="M1002 264.357H1001.59V282.695H1002V264.357Z" fill="url(#paint79_linear_974_165)"/>
<path d="M1001.59 287.342H1001.2V305.681H1001.59V287.342Z" fill="url(#paint80_linear_974_165)"/>
<path d="M1001.2 305.684V287.349L1001 287.586C1001.1 289.539 1001.09 303.497 1001 305.444L1001.2 305.681V305.684Z" fill="url(#paint81_linear_974_165)"/>
<path d="M1002 287.349H1001.59V305.687H1002V287.349Z" fill="url(#paint82_linear_974_165)"/>
<path d="M1001.59 242.638H1001.2V252.59H1001.59V242.638Z" fill="url(#paint83_linear_974_165)"/>
<path d="M1001.2 252.593V242.645L1001 242.881C1001.1 244.835 1001.09 250.406 1001 252.353L1001.2 252.59V252.593Z" fill="url(#paint84_linear_974_165)"/>
<path d="M1002 242.645H1001.59V252.596H1002V242.645Z" fill="url(#paint85_linear_974_165)"/>
<path d="M1069.13 465.581H1057.04C1056.79 465.581 1056.58 465.611 1056.51 465.657L1055.98 465.887C1055.88 465.953 1056.15 466.018 1056.51 466.018H1069.67C1070.03 466.018 1070.29 465.953 1070.19 465.887L1069.66 465.657C1069.59 465.611 1069.38 465.581 1069.13 465.581Z" fill="#AAAAAA"/>
</g>
<defs>
<linearGradient id="paint0_linear_974_165" x1="1223" y1="317" x2="526" y2="314.5" gradientUnits="userSpaceOnUse">
<stop stop-color="#60496F"/>
<stop offset="1" stop-color="#7E6F89"/>
</linearGradient>
<linearGradient id="paint1_linear_974_165" x1="688.362" y1="82.3506" x2="688.362" y2="109.634" gradientUnits="userSpaceOnUse">
<stop stop-color="#D9D9D9"/>
<stop offset="0.02" stop-color="#FAFAFA"/>
<stop offset="0.04" stop-color="#D8D8D8"/>
<stop offset="0.08" stop-color="#ABABAB"/>
<stop offset="0.11" stop-color="#E1E1E1"/>
<stop offset="0.9" stop-color="#D7D7D7"/>
<stop offset="0.94" stop-color="#ABABAB"/>
<stop offset="0.96" stop-color="#D8D8D8"/>
<stop offset="0.98" stop-color="#F5F5F5"/>
<stop offset="1" stop-color="#D6D6D6"/>
</linearGradient>
<linearGradient id="paint2_linear_974_165" x1="688.658" y1="82.3539" x2="688.658" y2="109.634" gradientUnits="userSpaceOnUse">
<stop stop-color="#EDEDED"/>
<stop offset="0.06" stop-color="#D8D8D8"/>
<stop offset="0.19" stop-color="#E8E8E8"/>
<stop offset="0.81" stop-color="#E8E8E8"/>
<stop offset="0.92" stop-color="#D8D8D8"/>
<stop offset="1" stop-color="#EDEDED"/>
</linearGradient>
<linearGradient id="paint3_linear_974_165" x1="565.391" y1="248.983" x2="565.391" y2="100.689" gradientUnits="userSpaceOnUse">
<stop stop-color="#D9D9D9"/>
<stop offset="0.02" stop-color="#FAFAFA"/>
<stop offset="0.04" stop-color="#D8D8D8"/>
<stop offset="0.08" stop-color="#ABABAB"/>
<stop offset="0.11" stop-color="#E1E1E1"/>
<stop offset="0.9" stop-color="#D7D7D7"/>
<stop offset="0.94" stop-color="#ABABAB"/>
<stop offset="0.96" stop-color="#D8D8D8"/>
<stop offset="0.98" stop-color="#F5F5F5"/>
<stop offset="1" stop-color="#D6D6D6"/>
</linearGradient>
<linearGradient id="paint4_linear_974_165" x1="565.099" y1="248.983" x2="565.099" y2="100.689" gradientUnits="userSpaceOnUse">
<stop stop-color="#EDEDED"/>
<stop offset="0.06" stop-color="#D8D8D8"/>
<stop offset="0.19" stop-color="#E8E8E8"/>
<stop offset="0.81" stop-color="#E8E8E8"/>
<stop offset="0.92" stop-color="#D8D8D8"/>
<stop offset="1" stop-color="#EDEDED"/>
</linearGradient>
<linearGradient id="paint5_linear_974_165" x1="565.796" y1="100.695" x2="565.796" y2="82.3571" gradientUnits="userSpaceOnUse">
<stop stop-color="#D9D9D9"/>
<stop offset="0.05" stop-color="#ABABAB"/>
<stop offset="0.52" stop-color="#D8D8D8"/>
<stop offset="0.96" stop-color="#ABABAB"/>
<stop offset="1" stop-color="#D6D6D6"/>
</linearGradient>
<linearGradient id="paint6_linear_974_165" x1="565.391" y1="105.342" x2="565.391" y2="123.681" gradientUnits="userSpaceOnUse">
<stop stop-color="#D9D9D9"/>
<stop offset="0.02" stop-color="#FAFAFA"/>
<stop offset="0.04" stop-color="#D8D8D8"/>
<stop offset="0.08" stop-color="#ABABAB"/>
<stop offset="0.11" stop-color="#E1E1E1"/>
<stop offset="0.9" stop-color="#D7D7D7"/>
<stop offset="0.94" stop-color="#ABABAB"/>
<stop offset="0.96" stop-color="#D8D8D8"/>
<stop offset="0.98" stop-color="#F5F5F5"/>
<stop offset="1" stop-color="#D6D6D6"/>
</linearGradient>
<linearGradient id="paint7_linear_974_165" x1="565.099" y1="105.349" x2="565.099" y2="123.681" gradientUnits="userSpaceOnUse">
<stop stop-color="#EDEDED"/>
<stop offset="0.06" stop-color="#D8D8D8"/>
<stop offset="0.19" stop-color="#E8E8E8"/>
<stop offset="0.81" stop-color="#E8E8E8"/>
<stop offset="0.92" stop-color="#D8D8D8"/>
<stop offset="1" stop-color="#EDEDED"/>
</linearGradient>
<linearGradient id="paint8_linear_974_165" x1="565" y1="123.687" x2="565.329" y2="105.349" gradientUnits="userSpaceOnUse">
<stop stop-color="#D9D9D9"/>
<stop offset="0.05" stop-color="#ABABAB"/>
<stop offset="0.52" stop-color="#D8D8D8"/>
<stop offset="0.96" stop-color="#ABABAB"/>
<stop offset="1" stop-color="#D6D6D6"/>
</linearGradient>
<linearGradient id="paint9_linear_974_165" x1="565.391" y1="60.6381" x2="565.391" y2="70.5899" gradientUnits="userSpaceOnUse">
<stop stop-color="#D9D9D9"/>
<stop offset="0.02" stop-color="#FAFAFA"/>
<stop offset="0.04" stop-color="#D8D8D8"/>
<stop offset="0.08" stop-color="#ABABAB"/>
<stop offset="0.11" stop-color="#E1E1E1"/>
<stop offset="0.9" stop-color="#D7D7D7"/>
<stop offset="0.94" stop-color="#ABABAB"/>
<stop offset="0.96" stop-color="#D8D8D8"/>
<stop offset="0.98" stop-color="#F5F5F5"/>
<stop offset="1" stop-color="#D6D6D6"/>
</linearGradient>
<linearGradient id="paint10_linear_974_165" x1="565.099" y1="60.6446" x2="565.099" y2="70.5899" gradientUnits="userSpaceOnUse">
<stop stop-color="#EDEDED"/>
<stop offset="0.06" stop-color="#D8D8D8"/>
<stop offset="0.19" stop-color="#E8E8E8"/>
<stop offset="0.81" stop-color="#E8E8E8"/>
<stop offset="0.92" stop-color="#D8D8D8"/>
<stop offset="1" stop-color="#EDEDED"/>
</linearGradient>
<linearGradient id="paint11_linear_974_165" x1="565" y1="70.5964" x2="565.796" y2="60.6446" gradientUnits="userSpaceOnUse">
<stop stop-color="#D9D9D9"/>
<stop offset="0.05" stop-color="#ABABAB"/>
<stop offset="0.52" stop-color="#D8D8D8"/>
<stop offset="0.96" stop-color="#ABABAB"/>
<stop offset="1" stop-color="#D6D6D6"/>
</linearGradient>
<linearGradient id="paint12_linear_974_165" x1="1124.36" y1="-7.64948" x2="1124.36" y2="19.6342" gradientUnits="userSpaceOnUse">
<stop stop-color="#D9D9D9"/>
<stop offset="0.02" stop-color="#FAFAFA"/>
<stop offset="0.04" stop-color="#D8D8D8"/>
<stop offset="0.08" stop-color="#ABABAB"/>
<stop offset="0.11" stop-color="#E1E1E1"/>
<stop offset="0.9" stop-color="#D7D7D7"/>
<stop offset="0.94" stop-color="#ABABAB"/>
<stop offset="0.96" stop-color="#D8D8D8"/>
<stop offset="0.98" stop-color="#F5F5F5"/>
<stop offset="1" stop-color="#D6D6D6"/>
</linearGradient>
<linearGradient id="paint13_linear_974_165" x1="1124.66" y1="-7.64618" x2="1124.66" y2="19.6342" gradientUnits="userSpaceOnUse">
<stop stop-color="#EDEDED"/>
<stop offset="0.06" stop-color="#D8D8D8"/>
<stop offset="0.19" stop-color="#E8E8E8"/>
<stop offset="0.81" stop-color="#E8E8E8"/>
<stop offset="0.92" stop-color="#D8D8D8"/>
<stop offset="1" stop-color="#EDEDED"/>
</linearGradient>
<linearGradient id="paint14_linear_974_165" x1="1001.39" y1="158.983" x2="1001.39" y2="10.6887" gradientUnits="userSpaceOnUse">
<stop stop-color="#D9D9D9"/>
<stop offset="0.02" stop-color="#FAFAFA"/>
<stop offset="0.04" stop-color="#D8D8D8"/>
<stop offset="0.08" stop-color="#ABABAB"/>
<stop offset="0.11" stop-color="#E1E1E1"/>
<stop offset="0.9" stop-color="#D7D7D7"/>
<stop offset="0.94" stop-color="#ABABAB"/>
<stop offset="0.96" stop-color="#D8D8D8"/>
<stop offset="0.98" stop-color="#F5F5F5"/>
<stop offset="1" stop-color="#D6D6D6"/>
</linearGradient>
<linearGradient id="paint15_linear_974_165" x1="1001.1" y1="158.983" x2="1001.1" y2="10.6888" gradientUnits="userSpaceOnUse">
<stop stop-color="#EDEDED"/>
<stop offset="0.06" stop-color="#D8D8D8"/>
<stop offset="0.19" stop-color="#E8E8E8"/>
<stop offset="0.81" stop-color="#E8E8E8"/>
<stop offset="0.92" stop-color="#D8D8D8"/>
<stop offset="1" stop-color="#EDEDED"/>
</linearGradient>
<linearGradient id="paint16_linear_974_165" x1="1001.8" y1="10.6953" x2="1001.8" y2="-7.64288" gradientUnits="userSpaceOnUse">
<stop stop-color="#D9D9D9"/>
<stop offset="0.05" stop-color="#ABABAB"/>
<stop offset="0.52" stop-color="#D8D8D8"/>
<stop offset="0.96" stop-color="#ABABAB"/>
<stop offset="1" stop-color="#D6D6D6"/>
</linearGradient>
<linearGradient id="paint17_linear_974_165" x1="1001.39" y1="15.3424" x2="1001.39" y2="33.6806" gradientUnits="userSpaceOnUse">
<stop stop-color="#D9D9D9"/>
<stop offset="0.02" stop-color="#FAFAFA"/>
<stop offset="0.04" stop-color="#D8D8D8"/>
<stop offset="0.08" stop-color="#ABABAB"/>
<stop offset="0.11" stop-color="#E1E1E1"/>
<stop offset="0.9" stop-color="#D7D7D7"/>
<stop offset="0.94" stop-color="#ABABAB"/>
<stop offset="0.96" stop-color="#D8D8D8"/>
<stop offset="0.98" stop-color="#F5F5F5"/>
<stop offset="1" stop-color="#D6D6D6"/>
</linearGradient>
<linearGradient id="paint18_linear_974_165" x1="1001.1" y1="15.349" x2="1001.1" y2="33.6806" gradientUnits="userSpaceOnUse">
<stop stop-color="#EDEDED"/>
<stop offset="0.06" stop-color="#D8D8D8"/>
<stop offset="0.19" stop-color="#E8E8E8"/>
<stop offset="0.81" stop-color="#E8E8E8"/>
<stop offset="0.92" stop-color="#D8D8D8"/>
<stop offset="1" stop-color="#EDEDED"/>
</linearGradient>
<linearGradient id="paint19_linear_974_165" x1="1001" y1="33.6872" x2="1001.33" y2="15.349" gradientUnits="userSpaceOnUse">
<stop stop-color="#D9D9D9"/>
<stop offset="0.05" stop-color="#ABABAB"/>
<stop offset="0.52" stop-color="#D8D8D8"/>
<stop offset="0.96" stop-color="#ABABAB"/>
<stop offset="1" stop-color="#D6D6D6"/>
</linearGradient>
<linearGradient id="paint20_linear_974_165" x1="834.362" y1="175.351" x2="834.362" y2="202.634" gradientUnits="userSpaceOnUse">
<stop stop-color="#D9D9D9"/>
<stop offset="0.02" stop-color="#FAFAFA"/>
<stop offset="0.04" stop-color="#D8D8D8"/>
<stop offset="0.08" stop-color="#ABABAB"/>
<stop offset="0.11" stop-color="#E1E1E1"/>
<stop offset="0.9" stop-color="#D7D7D7"/>
<stop offset="0.94" stop-color="#ABABAB"/>
<stop offset="0.96" stop-color="#D8D8D8"/>
<stop offset="0.98" stop-color="#F5F5F5"/>
<stop offset="1" stop-color="#D6D6D6"/>
</linearGradient>
<linearGradient id="paint21_linear_974_165" x1="834.658" y1="175.354" x2="834.658" y2="202.634" gradientUnits="userSpaceOnUse">
<stop stop-color="#EDEDED"/>
<stop offset="0.06" stop-color="#D8D8D8"/>
<stop offset="0.19" stop-color="#E8E8E8"/>
<stop offset="0.81" stop-color="#E8E8E8"/>
<stop offset="0.92" stop-color="#D8D8D8"/>
<stop offset="1" stop-color="#EDEDED"/>
</linearGradient>
<linearGradient id="paint22_linear_974_165" x1="711.391" y1="341.983" x2="711.391" y2="193.689" gradientUnits="userSpaceOnUse">
<stop stop-color="#D9D9D9"/>
<stop offset="0.02" stop-color="#FAFAFA"/>
<stop offset="0.04" stop-color="#D8D8D8"/>
<stop offset="0.08" stop-color="#ABABAB"/>
<stop offset="0.11" stop-color="#E1E1E1"/>
<stop offset="0.9" stop-color="#D7D7D7"/>
<stop offset="0.94" stop-color="#ABABAB"/>
<stop offset="0.96" stop-color="#D8D8D8"/>
<stop offset="0.98" stop-color="#F5F5F5"/>
<stop offset="1" stop-color="#D6D6D6"/>
</linearGradient>
<linearGradient id="paint23_linear_974_165" x1="711.099" y1="341.983" x2="711.099" y2="193.689" gradientUnits="userSpaceOnUse">
<stop stop-color="#EDEDED"/>
<stop offset="0.06" stop-color="#D8D8D8"/>
<stop offset="0.19" stop-color="#E8E8E8"/>
<stop offset="0.81" stop-color="#E8E8E8"/>
<stop offset="0.92" stop-color="#D8D8D8"/>
<stop offset="1" stop-color="#EDEDED"/>
</linearGradient>
<linearGradient id="paint24_linear_974_165" x1="711.796" y1="193.695" x2="711.796" y2="175.357" gradientUnits="userSpaceOnUse">
<stop stop-color="#D9D9D9"/>
<stop offset="0.05" stop-color="#ABABAB"/>
<stop offset="0.52" stop-color="#D8D8D8"/>
<stop offset="0.96" stop-color="#ABABAB"/>
<stop offset="1" stop-color="#D6D6D6"/>
</linearGradient>
<linearGradient id="paint25_linear_974_165" x1="711.391" y1="198.342" x2="711.391" y2="216.681" gradientUnits="userSpaceOnUse">
<stop stop-color="#D9D9D9"/>
<stop offset="0.02" stop-color="#FAFAFA"/>
<stop offset="0.04" stop-color="#D8D8D8"/>
<stop offset="0.08" stop-color="#ABABAB"/>
<stop offset="0.11" stop-color="#E1E1E1"/>
<stop offset="0.9" stop-color="#D7D7D7"/>
<stop offset="0.94" stop-color="#ABABAB"/>
<stop offset="0.96" stop-color="#D8D8D8"/>
<stop offset="0.98" stop-color="#F5F5F5"/>
<stop offset="1" stop-color="#D6D6D6"/>
</linearGradient>
<linearGradient id="paint26_linear_974_165" x1="711.099" y1="198.349" x2="711.099" y2="216.681" gradientUnits="userSpaceOnUse">
<stop stop-color="#EDEDED"/>
<stop offset="0.06" stop-color="#D8D8D8"/>
<stop offset="0.19" stop-color="#E8E8E8"/>
<stop offset="0.81" stop-color="#E8E8E8"/>
<stop offset="0.92" stop-color="#D8D8D8"/>
<stop offset="1" stop-color="#EDEDED"/>
</linearGradient>
<linearGradient id="paint27_linear_974_165" x1="711" y1="216.687" x2="711.329" y2="198.349" gradientUnits="userSpaceOnUse">
<stop stop-color="#D9D9D9"/>
<stop offset="0.05" stop-color="#ABABAB"/>
<stop offset="0.52" stop-color="#D8D8D8"/>
<stop offset="0.96" stop-color="#ABABAB"/>
<stop offset="1" stop-color="#D6D6D6"/>
</linearGradient>
<linearGradient id="paint28_linear_974_165" x1="711.391" y1="153.638" x2="711.391" y2="163.59" gradientUnits="userSpaceOnUse">
<stop stop-color="#D9D9D9"/>
<stop offset="0.02" stop-color="#FAFAFA"/>
<stop offset="0.04" stop-color="#D8D8D8"/>
<stop offset="0.08" stop-color="#ABABAB"/>
<stop offset="0.11" stop-color="#E1E1E1"/>
<stop offset="0.9" stop-color="#D7D7D7"/>
<stop offset="0.94" stop-color="#ABABAB"/>
<stop offset="0.96" stop-color="#D8D8D8"/>
<stop offset="0.98" stop-color="#F5F5F5"/>
<stop offset="1" stop-color="#D6D6D6"/>
</linearGradient>
<linearGradient id="paint29_linear_974_165" x1="711.099" y1="153.645" x2="711.099" y2="163.59" gradientUnits="userSpaceOnUse">
<stop stop-color="#EDEDED"/>
<stop offset="0.06" stop-color="#D8D8D8"/>
<stop offset="0.19" stop-color="#E8E8E8"/>
<stop offset="0.81" stop-color="#E8E8E8"/>
<stop offset="0.92" stop-color="#D8D8D8"/>
<stop offset="1" stop-color="#EDEDED"/>
</linearGradient>
<linearGradient id="paint30_linear_974_165" x1="711" y1="163.596" x2="711.796" y2="153.645" gradientUnits="userSpaceOnUse">
<stop stop-color="#D9D9D9"/>
<stop offset="0.05" stop-color="#ABABAB"/>
<stop offset="0.52" stop-color="#D8D8D8"/>
<stop offset="0.96" stop-color="#ABABAB"/>
<stop offset="1" stop-color="#D6D6D6"/>
</linearGradient>
<linearGradient id="paint31_linear_974_165" x1="976.362" y1="115.351" x2="976.362" y2="142.634" gradientUnits="userSpaceOnUse">
<stop stop-color="#D9D9D9"/>
<stop offset="0.02" stop-color="#FAFAFA"/>
<stop offset="0.04" stop-color="#D8D8D8"/>
<stop offset="0.08" stop-color="#ABABAB"/>
<stop offset="0.11" stop-color="#E1E1E1"/>
<stop offset="0.9" stop-color="#D7D7D7"/>
<stop offset="0.94" stop-color="#ABABAB"/>
<stop offset="0.96" stop-color="#D8D8D8"/>
<stop offset="0.98" stop-color="#F5F5F5"/>
<stop offset="1" stop-color="#D6D6D6"/>
</linearGradient>
<linearGradient id="paint32_linear_974_165" x1="976.658" y1="115.354" x2="976.658" y2="142.634" gradientUnits="userSpaceOnUse">
<stop stop-color="#EDEDED"/>
<stop offset="0.06" stop-color="#D8D8D8"/>
<stop offset="0.19" stop-color="#E8E8E8"/>
<stop offset="0.81" stop-color="#E8E8E8"/>
<stop offset="0.92" stop-color="#D8D8D8"/>
<stop offset="1" stop-color="#EDEDED"/>
</linearGradient>
<linearGradient id="paint33_linear_974_165" x1="853.391" y1="281.983" x2="853.391" y2="133.689" gradientUnits="userSpaceOnUse">
<stop stop-color="#D9D9D9"/>
<stop offset="0.02" stop-color="#FAFAFA"/>
<stop offset="0.04" stop-color="#D8D8D8"/>
<stop offset="0.08" stop-color="#ABABAB"/>
<stop offset="0.11" stop-color="#E1E1E1"/>
<stop offset="0.9" stop-color="#D7D7D7"/>
<stop offset="0.94" stop-color="#ABABAB"/>
<stop offset="0.96" stop-color="#D8D8D8"/>
<stop offset="0.98" stop-color="#F5F5F5"/>
<stop offset="1" stop-color="#D6D6D6"/>
</linearGradient>
<linearGradient id="paint34_linear_974_165" x1="853.099" y1="281.983" x2="853.099" y2="133.689" gradientUnits="userSpaceOnUse">
<stop stop-color="#EDEDED"/>
<stop offset="0.06" stop-color="#D8D8D8"/>
<stop offset="0.19" stop-color="#E8E8E8"/>
<stop offset="0.81" stop-color="#E8E8E8"/>
<stop offset="0.92" stop-color="#D8D8D8"/>
<stop offset="1" stop-color="#EDEDED"/>
</linearGradient>
<linearGradient id="paint35_linear_974_165" x1="853.796" y1="133.695" x2="853.796" y2="115.357" gradientUnits="userSpaceOnUse">
<stop stop-color="#D9D9D9"/>
<stop offset="0.05" stop-color="#ABABAB"/>
<stop offset="0.52" stop-color="#D8D8D8"/>
<stop offset="0.96" stop-color="#ABABAB"/>
<stop offset="1" stop-color="#D6D6D6"/>
</linearGradient>
<linearGradient id="paint36_linear_974_165" x1="853.391" y1="138.342" x2="853.391" y2="156.681" gradientUnits="userSpaceOnUse">
<stop stop-color="#D9D9D9"/>
<stop offset="0.02" stop-color="#FAFAFA"/>
<stop offset="0.04" stop-color="#D8D8D8"/>
<stop offset="0.08" stop-color="#ABABAB"/>
<stop offset="0.11" stop-color="#E1E1E1"/>
<stop offset="0.9" stop-color="#D7D7D7"/>
<stop offset="0.94" stop-color="#ABABAB"/>
<stop offset="0.96" stop-color="#D8D8D8"/>
<stop offset="0.98" stop-color="#F5F5F5"/>
<stop offset="1" stop-color="#D6D6D6"/>
</linearGradient>
<linearGradient id="paint37_linear_974_165" x1="853.099" y1="138.349" x2="853.099" y2="156.681" gradientUnits="userSpaceOnUse">
<stop stop-color="#EDEDED"/>
<stop offset="0.06" stop-color="#D8D8D8"/>
<stop offset="0.19" stop-color="#E8E8E8"/>
<stop offset="0.81" stop-color="#E8E8E8"/>
<stop offset="0.92" stop-color="#D8D8D8"/>
<stop offset="1" stop-color="#EDEDED"/>
</linearGradient>
<linearGradient id="paint38_linear_974_165" x1="853" y1="156.687" x2="853.329" y2="138.349" gradientUnits="userSpaceOnUse">
<stop stop-color="#D9D9D9"/>
<stop offset="0.05" stop-color="#ABABAB"/>
<stop offset="0.52" stop-color="#D8D8D8"/>
<stop offset="0.96" stop-color="#ABABAB"/>
<stop offset="1" stop-color="#D6D6D6"/>
</linearGradient>
<linearGradient id="paint39_linear_974_165" x1="853.391" y1="93.6381" x2="853.391" y2="103.59" gradientUnits="userSpaceOnUse">
<stop stop-color="#D9D9D9"/>
<stop offset="0.02" stop-color="#FAFAFA"/>
<stop offset="0.04" stop-color="#D8D8D8"/>
<stop offset="0.08" stop-color="#ABABAB"/>
<stop offset="0.11" stop-color="#E1E1E1"/>
<stop offset="0.9" stop-color="#D7D7D7"/>
<stop offset="0.94" stop-color="#ABABAB"/>
<stop offset="0.96" stop-color="#D8D8D8"/>
<stop offset="0.98" stop-color="#F5F5F5"/>
<stop offset="1" stop-color="#D6D6D6"/>
</linearGradient>
<linearGradient id="paint40_linear_974_165" x1="853.099" y1="93.6446" x2="853.099" y2="103.59" gradientUnits="userSpaceOnUse">
<stop stop-color="#EDEDED"/>
<stop offset="0.06" stop-color="#D8D8D8"/>
<stop offset="0.19" stop-color="#E8E8E8"/>
<stop offset="0.81" stop-color="#E8E8E8"/>
<stop offset="0.92" stop-color="#D8D8D8"/>
<stop offset="1" stop-color="#EDEDED"/>
</linearGradient>
<linearGradient id="paint41_linear_974_165" x1="853" y1="103.596" x2="853.796" y2="93.6446" gradientUnits="userSpaceOnUse">
<stop stop-color="#D9D9D9"/>
<stop offset="0.05" stop-color="#ABABAB"/>
<stop offset="0.52" stop-color="#D8D8D8"/>
<stop offset="0.96" stop-color="#ABABAB"/>
<stop offset="1" stop-color="#D6D6D6"/>
</linearGradient>
<linearGradient id="paint42_linear_974_165" x1="834.362" y1="447.351" x2="834.362" y2="474.634" gradientUnits="userSpaceOnUse">
<stop stop-color="#D9D9D9"/>
<stop offset="0.02" stop-color="#FAFAFA"/>
<stop offset="0.04" stop-color="#D8D8D8"/>
<stop offset="0.08" stop-color="#ABABAB"/>
<stop offset="0.11" stop-color="#E1E1E1"/>
<stop offset="0.9" stop-color="#D7D7D7"/>
<stop offset="0.94" stop-color="#ABABAB"/>
<stop offset="0.96" stop-color="#D8D8D8"/>
<stop offset="0.98" stop-color="#F5F5F5"/>
<stop offset="1" stop-color="#D6D6D6"/>
</linearGradient>
<linearGradient id="paint43_linear_974_165" x1="834.658" y1="447.354" x2="834.658" y2="474.634" gradientUnits="userSpaceOnUse">
<stop stop-color="#EDEDED"/>
<stop offset="0.06" stop-color="#D8D8D8"/>
<stop offset="0.19" stop-color="#E8E8E8"/>
<stop offset="0.81" stop-color="#E8E8E8"/>
<stop offset="0.92" stop-color="#D8D8D8"/>
<stop offset="1" stop-color="#EDEDED"/>
</linearGradient>
<linearGradient id="paint44_linear_974_165" x1="711.391" y1="613.983" x2="711.391" y2="465.689" gradientUnits="userSpaceOnUse">
<stop stop-color="#D9D9D9"/>
<stop offset="0.02" stop-color="#FAFAFA"/>
<stop offset="0.04" stop-color="#D8D8D8"/>
<stop offset="0.08" stop-color="#ABABAB"/>
<stop offset="0.11" stop-color="#E1E1E1"/>
<stop offset="0.9" stop-color="#D7D7D7"/>
<stop offset="0.94" stop-color="#ABABAB"/>
<stop offset="0.96" stop-color="#D8D8D8"/>
<stop offset="0.98" stop-color="#F5F5F5"/>
<stop offset="1" stop-color="#D6D6D6"/>
</linearGradient>
<linearGradient id="paint45_linear_974_165" x1="711.099" y1="613.983" x2="711.099" y2="465.689" gradientUnits="userSpaceOnUse">
<stop stop-color="#EDEDED"/>
<stop offset="0.06" stop-color="#D8D8D8"/>
<stop offset="0.19" stop-color="#E8E8E8"/>
<stop offset="0.81" stop-color="#E8E8E8"/>
<stop offset="0.92" stop-color="#D8D8D8"/>
<stop offset="1" stop-color="#EDEDED"/>
</linearGradient>
<linearGradient id="paint46_linear_974_165" x1="711.796" y1="465.695" x2="711.796" y2="447.357" gradientUnits="userSpaceOnUse">
<stop stop-color="#D9D9D9"/>
<stop offset="0.05" stop-color="#ABABAB"/>
<stop offset="0.52" stop-color="#D8D8D8"/>
<stop offset="0.96" stop-color="#ABABAB"/>
<stop offset="1" stop-color="#D6D6D6"/>
</linearGradient>
<linearGradient id="paint47_linear_974_165" x1="711.391" y1="470.342" x2="711.391" y2="488.681" gradientUnits="userSpaceOnUse">
<stop stop-color="#D9D9D9"/>
<stop offset="0.02" stop-color="#FAFAFA"/>
<stop offset="0.04" stop-color="#D8D8D8"/>
<stop offset="0.08" stop-color="#ABABAB"/>
<stop offset="0.11" stop-color="#E1E1E1"/>
<stop offset="0.9" stop-color="#D7D7D7"/>
<stop offset="0.94" stop-color="#ABABAB"/>
<stop offset="0.96" stop-color="#D8D8D8"/>
<stop offset="0.98" stop-color="#F5F5F5"/>
<stop offset="1" stop-color="#D6D6D6"/>
</linearGradient>
<linearGradient id="paint48_linear_974_165" x1="711.099" y1="470.349" x2="711.099" y2="488.681" gradientUnits="userSpaceOnUse">
<stop stop-color="#EDEDED"/>
<stop offset="0.06" stop-color="#D8D8D8"/>
<stop offset="0.19" stop-color="#E8E8E8"/>
<stop offset="0.81" stop-color="#E8E8E8"/>
<stop offset="0.92" stop-color="#D8D8D8"/>
<stop offset="1" stop-color="#EDEDED"/>
</linearGradient>
<linearGradient id="paint49_linear_974_165" x1="711" y1="488.687" x2="711.329" y2="470.349" gradientUnits="userSpaceOnUse">
<stop stop-color="#D9D9D9"/>
<stop offset="0.05" stop-color="#ABABAB"/>
<stop offset="0.52" stop-color="#D8D8D8"/>
<stop offset="0.96" stop-color="#ABABAB"/>
<stop offset="1" stop-color="#D6D6D6"/>
</linearGradient>
<linearGradient id="paint50_linear_974_165" x1="711.391" y1="425.638" x2="711.391" y2="435.59" gradientUnits="userSpaceOnUse">
<stop stop-color="#D9D9D9"/>
<stop offset="0.02" stop-color="#FAFAFA"/>
<stop offset="0.04" stop-color="#D8D8D8"/>
<stop offset="0.08" stop-color="#ABABAB"/>
<stop offset="0.11" stop-color="#E1E1E1"/>
<stop offset="0.9" stop-color="#D7D7D7"/>
<stop offset="0.94" stop-color="#ABABAB"/>
<stop offset="0.96" stop-color="#D8D8D8"/>
<stop offset="0.98" stop-color="#F5F5F5"/>
<stop offset="1" stop-color="#D6D6D6"/>
</linearGradient>
<linearGradient id="paint51_linear_974_165" x1="711.099" y1="425.645" x2="711.099" y2="435.59" gradientUnits="userSpaceOnUse">
<stop stop-color="#EDEDED"/>
<stop offset="0.06" stop-color="#D8D8D8"/>
<stop offset="0.19" stop-color="#E8E8E8"/>
<stop offset="0.81" stop-color="#E8E8E8"/>
<stop offset="0.92" stop-color="#D8D8D8"/>
<stop offset="1" stop-color="#EDEDED"/>
</linearGradient>
<linearGradient id="paint52_linear_974_165" x1="711" y1="435.596" x2="711.796" y2="425.645" gradientUnits="userSpaceOnUse">
<stop stop-color="#D9D9D9"/>
<stop offset="0.05" stop-color="#ABABAB"/>
<stop offset="0.52" stop-color="#D8D8D8"/>
<stop offset="0.96" stop-color="#ABABAB"/>
<stop offset="1" stop-color="#D6D6D6"/>
</linearGradient>
<linearGradient id="paint53_linear_974_165" x1="976.362" y1="387.351" x2="976.362" y2="414.634" gradientUnits="userSpaceOnUse">
<stop stop-color="#D9D9D9"/>
<stop offset="0.02" stop-color="#FAFAFA"/>
<stop offset="0.04" stop-color="#D8D8D8"/>
<stop offset="0.08" stop-color="#ABABAB"/>
<stop offset="0.11" stop-color="#E1E1E1"/>
<stop offset="0.9" stop-color="#D7D7D7"/>
<stop offset="0.94" stop-color="#ABABAB"/>
<stop offset="0.96" stop-color="#D8D8D8"/>
<stop offset="0.98" stop-color="#F5F5F5"/>
<stop offset="1" stop-color="#D6D6D6"/>
</linearGradient>
<linearGradient id="paint54_linear_974_165" x1="976.658" y1="387.354" x2="976.658" y2="414.634" gradientUnits="userSpaceOnUse">
<stop stop-color="#EDEDED"/>
<stop offset="0.06" stop-color="#D8D8D8"/>
<stop offset="0.19" stop-color="#E8E8E8"/>
<stop offset="0.81" stop-color="#E8E8E8"/>
<stop offset="0.92" stop-color="#D8D8D8"/>
<stop offset="1" stop-color="#EDEDED"/>
</linearGradient>
<linearGradient id="paint55_linear_974_165" x1="853.391" y1="553.983" x2="853.391" y2="405.689" gradientUnits="userSpaceOnUse">
<stop stop-color="#D9D9D9"/>
<stop offset="0.02" stop-color="#FAFAFA"/>
<stop offset="0.04" stop-color="#D8D8D8"/>
<stop offset="0.08" stop-color="#ABABAB"/>
<stop offset="0.11" stop-color="#E1E1E1"/>
<stop offset="0.9" stop-color="#D7D7D7"/>
<stop offset="0.94" stop-color="#ABABAB"/>
<stop offset="0.96" stop-color="#D8D8D8"/>
<stop offset="0.98" stop-color="#F5F5F5"/>
<stop offset="1" stop-color="#D6D6D6"/>
</linearGradient>
<linearGradient id="paint56_linear_974_165" x1="853.099" y1="553.983" x2="853.099" y2="405.689" gradientUnits="userSpaceOnUse">
<stop stop-color="#EDEDED"/>
<stop offset="0.06" stop-color="#D8D8D8"/>
<stop offset="0.19" stop-color="#E8E8E8"/>
<stop offset="0.81" stop-color="#E8E8E8"/>
<stop offset="0.92" stop-color="#D8D8D8"/>
<stop offset="1" stop-color="#EDEDED"/>
</linearGradient>
<linearGradient id="paint57_linear_974_165" x1="853.796" y1="405.695" x2="853.796" y2="387.357" gradientUnits="userSpaceOnUse">
<stop stop-color="#D9D9D9"/>
<stop offset="0.05" stop-color="#ABABAB"/>
<stop offset="0.52" stop-color="#D8D8D8"/>
<stop offset="0.96" stop-color="#ABABAB"/>
<stop offset="1" stop-color="#D6D6D6"/>
</linearGradient>
<linearGradient id="paint58_linear_974_165" x1="853.391" y1="410.342" x2="853.391" y2="428.681" gradientUnits="userSpaceOnUse">
<stop stop-color="#D9D9D9"/>
<stop offset="0.02" stop-color="#FAFAFA"/>
<stop offset="0.04" stop-color="#D8D8D8"/>
<stop offset="0.08" stop-color="#ABABAB"/>
<stop offset="0.11" stop-color="#E1E1E1"/>
<stop offset="0.9" stop-color="#D7D7D7"/>
<stop offset="0.94" stop-color="#ABABAB"/>
<stop offset="0.96" stop-color="#D8D8D8"/>
<stop offset="0.98" stop-color="#F5F5F5"/>
<stop offset="1" stop-color="#D6D6D6"/>
</linearGradient>
<linearGradient id="paint59_linear_974_165" x1="853.099" y1="410.349" x2="853.099" y2="428.681" gradientUnits="userSpaceOnUse">
<stop stop-color="#EDEDED"/>
<stop offset="0.06" stop-color="#D8D8D8"/>
<stop offset="0.19" stop-color="#E8E8E8"/>
<stop offset="0.81" stop-color="#E8E8E8"/>
<stop offset="0.92" stop-color="#D8D8D8"/>
<stop offset="1" stop-color="#EDEDED"/>
</linearGradient>
<linearGradient id="paint60_linear_974_165" x1="853" y1="428.687" x2="853.329" y2="410.349" gradientUnits="userSpaceOnUse">
<stop stop-color="#D9D9D9"/>
<stop offset="0.05" stop-color="#ABABAB"/>
<stop offset="0.52" stop-color="#D8D8D8"/>
<stop offset="0.96" stop-color="#ABABAB"/>
<stop offset="1" stop-color="#D6D6D6"/>
</linearGradient>
<linearGradient id="paint61_linear_974_165" x1="853.391" y1="365.638" x2="853.391" y2="375.59" gradientUnits="userSpaceOnUse">
<stop stop-color="#D9D9D9"/>
<stop offset="0.02" stop-color="#FAFAFA"/>
<stop offset="0.04" stop-color="#D8D8D8"/>
<stop offset="0.08" stop-color="#ABABAB"/>
<stop offset="0.11" stop-color="#E1E1E1"/>
<stop offset="0.9" stop-color="#D7D7D7"/>
<stop offset="0.94" stop-color="#ABABAB"/>
<stop offset="0.96" stop-color="#D8D8D8"/>
<stop offset="0.98" stop-color="#F5F5F5"/>
<stop offset="1" stop-color="#D6D6D6"/>
</linearGradient>
<linearGradient id="paint62_linear_974_165" x1="853.099" y1="365.645" x2="853.099" y2="375.59" gradientUnits="userSpaceOnUse">
<stop stop-color="#EDEDED"/>
<stop offset="0.06" stop-color="#D8D8D8"/>
<stop offset="0.19" stop-color="#E8E8E8"/>
<stop offset="0.81" stop-color="#E8E8E8"/>
<stop offset="0.92" stop-color="#D8D8D8"/>
<stop offset="1" stop-color="#EDEDED"/>
</linearGradient>
<linearGradient id="paint63_linear_974_165" x1="853" y1="375.596" x2="853.796" y2="365.645" gradientUnits="userSpaceOnUse">
<stop stop-color="#D9D9D9"/>
<stop offset="0.05" stop-color="#ABABAB"/>
<stop offset="0.52" stop-color="#D8D8D8"/>
<stop offset="0.96" stop-color="#ABABAB"/>
<stop offset="1" stop-color="#D6D6D6"/>
</linearGradient>
<linearGradient id="paint64_linear_974_165" x1="688.362" y1="354.351" x2="688.362" y2="381.634" gradientUnits="userSpaceOnUse">
<stop stop-color="#D9D9D9"/>
<stop offset="0.02" stop-color="#FAFAFA"/>
<stop offset="0.04" stop-color="#D8D8D8"/>
<stop offset="0.08" stop-color="#ABABAB"/>
<stop offset="0.11" stop-color="#E1E1E1"/>
<stop offset="0.9" stop-color="#D7D7D7"/>
<stop offset="0.94" stop-color="#ABABAB"/>
<stop offset="0.96" stop-color="#D8D8D8"/>
<stop offset="0.98" stop-color="#F5F5F5"/>
<stop offset="1" stop-color="#D6D6D6"/>
</linearGradient>
<linearGradient id="paint65_linear_974_165" x1="688.658" y1="354.354" x2="688.658" y2="381.634" gradientUnits="userSpaceOnUse">
<stop stop-color="#EDEDED"/>
<stop offset="0.06" stop-color="#D8D8D8"/>
<stop offset="0.19" stop-color="#E8E8E8"/>
<stop offset="0.81" stop-color="#E8E8E8"/>
<stop offset="0.92" stop-color="#D8D8D8"/>
<stop offset="1" stop-color="#EDEDED"/>
</linearGradient>
<linearGradient id="paint66_linear_974_165" x1="565.391" y1="520.983" x2="565.391" y2="372.689" gradientUnits="userSpaceOnUse">
<stop stop-color="#D9D9D9"/>
<stop offset="0.02" stop-color="#FAFAFA"/>
<stop offset="0.04" stop-color="#D8D8D8"/>
<stop offset="0.08" stop-color="#ABABAB"/>
<stop offset="0.11" stop-color="#E1E1E1"/>
<stop offset="0.9" stop-color="#D7D7D7"/>
<stop offset="0.94" stop-color="#ABABAB"/>
<stop offset="0.96" stop-color="#D8D8D8"/>
<stop offset="0.98" stop-color="#F5F5F5"/>
<stop offset="1" stop-color="#D6D6D6"/>
</linearGradient>
<linearGradient id="paint67_linear_974_165" x1="565.099" y1="520.983" x2="565.099" y2="372.689" gradientUnits="userSpaceOnUse">
<stop stop-color="#EDEDED"/>
<stop offset="0.06" stop-color="#D8D8D8"/>
<stop offset="0.19" stop-color="#E8E8E8"/>
<stop offset="0.81" stop-color="#E8E8E8"/>
<stop offset="0.92" stop-color="#D8D8D8"/>
<stop offset="1" stop-color="#EDEDED"/>
</linearGradient>
<linearGradient id="paint68_linear_974_165" x1="565.796" y1="372.695" x2="565.796" y2="354.357" gradientUnits="userSpaceOnUse">
<stop stop-color="#D9D9D9"/>
<stop offset="0.05" stop-color="#ABABAB"/>
<stop offset="0.52" stop-color="#D8D8D8"/>
<stop offset="0.96" stop-color="#ABABAB"/>
<stop offset="1" stop-color="#D6D6D6"/>
</linearGradient>
<linearGradient id="paint69_linear_974_165" x1="565.391" y1="377.342" x2="565.391" y2="395.681" gradientUnits="userSpaceOnUse">
<stop stop-color="#D9D9D9"/>
<stop offset="0.02" stop-color="#FAFAFA"/>
<stop offset="0.04" stop-color="#D8D8D8"/>
<stop offset="0.08" stop-color="#ABABAB"/>
<stop offset="0.11" stop-color="#E1E1E1"/>
<stop offset="0.9" stop-color="#D7D7D7"/>
<stop offset="0.94" stop-color="#ABABAB"/>
<stop offset="0.96" stop-color="#D8D8D8"/>
<stop offset="0.98" stop-color="#F5F5F5"/>
<stop offset="1" stop-color="#D6D6D6"/>
</linearGradient>
<linearGradient id="paint70_linear_974_165" x1="565.099" y1="377.349" x2="565.099" y2="395.681" gradientUnits="userSpaceOnUse">
<stop stop-color="#EDEDED"/>
<stop offset="0.06" stop-color="#D8D8D8"/>
<stop offset="0.19" stop-color="#E8E8E8"/>
<stop offset="0.81" stop-color="#E8E8E8"/>
<stop offset="0.92" stop-color="#D8D8D8"/>
<stop offset="1" stop-color="#EDEDED"/>
</linearGradient>
<linearGradient id="paint71_linear_974_165" x1="565" y1="395.687" x2="565.329" y2="377.349" gradientUnits="userSpaceOnUse">
<stop stop-color="#D9D9D9"/>
<stop offset="0.05" stop-color="#ABABAB"/>
<stop offset="0.52" stop-color="#D8D8D8"/>
<stop offset="0.96" stop-color="#ABABAB"/>
<stop offset="1" stop-color="#D6D6D6"/>
</linearGradient>
<linearGradient id="paint72_linear_974_165" x1="565.391" y1="332.638" x2="565.391" y2="342.59" gradientUnits="userSpaceOnUse">
<stop stop-color="#D9D9D9"/>
<stop offset="0.02" stop-color="#FAFAFA"/>
<stop offset="0.04" stop-color="#D8D8D8"/>
<stop offset="0.08" stop-color="#ABABAB"/>
<stop offset="0.11" stop-color="#E1E1E1"/>
<stop offset="0.9" stop-color="#D7D7D7"/>
<stop offset="0.94" stop-color="#ABABAB"/>
<stop offset="0.96" stop-color="#D8D8D8"/>
<stop offset="0.98" stop-color="#F5F5F5"/>
<stop offset="1" stop-color="#D6D6D6"/>
</linearGradient>
<linearGradient id="paint73_linear_974_165" x1="565.099" y1="332.645" x2="565.099" y2="342.59" gradientUnits="userSpaceOnUse">
<stop stop-color="#EDEDED"/>
<stop offset="0.06" stop-color="#D8D8D8"/>
<stop offset="0.19" stop-color="#E8E8E8"/>
<stop offset="0.81" stop-color="#E8E8E8"/>
<stop offset="0.92" stop-color="#D8D8D8"/>
<stop offset="1" stop-color="#EDEDED"/>
</linearGradient>
<linearGradient id="paint74_linear_974_165" x1="565" y1="342.596" x2="565.796" y2="332.645" gradientUnits="userSpaceOnUse">
<stop stop-color="#D9D9D9"/>
<stop offset="0.05" stop-color="#ABABAB"/>
<stop offset="0.52" stop-color="#D8D8D8"/>
<stop offset="0.96" stop-color="#ABABAB"/>
<stop offset="1" stop-color="#D6D6D6"/>
</linearGradient>
<linearGradient id="paint75_linear_974_165" x1="1124.36" y1="264.351" x2="1124.36" y2="291.634" gradientUnits="userSpaceOnUse">
<stop stop-color="#D9D9D9"/>
<stop offset="0.02" stop-color="#FAFAFA"/>
<stop offset="0.04" stop-color="#D8D8D8"/>
<stop offset="0.08" stop-color="#ABABAB"/>
<stop offset="0.11" stop-color="#E1E1E1"/>
<stop offset="0.9" stop-color="#D7D7D7"/>
<stop offset="0.94" stop-color="#ABABAB"/>
<stop offset="0.96" stop-color="#D8D8D8"/>
<stop offset="0.98" stop-color="#F5F5F5"/>
<stop offset="1" stop-color="#D6D6D6"/>
</linearGradient>
<linearGradient id="paint76_linear_974_165" x1="1124.66" y1="264.354" x2="1124.66" y2="291.634" gradientUnits="userSpaceOnUse">
<stop stop-color="#EDEDED"/>
<stop offset="0.06" stop-color="#D8D8D8"/>
<stop offset="0.19" stop-color="#E8E8E8"/>
<stop offset="0.81" stop-color="#E8E8E8"/>
<stop offset="0.92" stop-color="#D8D8D8"/>
<stop offset="1" stop-color="#EDEDED"/>
</linearGradient>
<linearGradient id="paint77_linear_974_165" x1="1001.39" y1="430.983" x2="1001.39" y2="282.689" gradientUnits="userSpaceOnUse">
<stop stop-color="#D9D9D9"/>
<stop offset="0.02" stop-color="#FAFAFA"/>
<stop offset="0.04" stop-color="#D8D8D8"/>
<stop offset="0.08" stop-color="#ABABAB"/>
<stop offset="0.11" stop-color="#E1E1E1"/>
<stop offset="0.9" stop-color="#D7D7D7"/>
<stop offset="0.94" stop-color="#ABABAB"/>
<stop offset="0.96" stop-color="#D8D8D8"/>
<stop offset="0.98" stop-color="#F5F5F5"/>
<stop offset="1" stop-color="#D6D6D6"/>
</linearGradient>
<linearGradient id="paint78_linear_974_165" x1="1001.1" y1="430.983" x2="1001.1" y2="282.689" gradientUnits="userSpaceOnUse">
<stop stop-color="#EDEDED"/>
<stop offset="0.06" stop-color="#D8D8D8"/>
<stop offset="0.19" stop-color="#E8E8E8"/>
<stop offset="0.81" stop-color="#E8E8E8"/>
<stop offset="0.92" stop-color="#D8D8D8"/>
<stop offset="1" stop-color="#EDEDED"/>
</linearGradient>
<linearGradient id="paint79_linear_974_165" x1="1001.8" y1="282.695" x2="1001.8" y2="264.357" gradientUnits="userSpaceOnUse">
<stop stop-color="#D9D9D9"/>
<stop offset="0.05" stop-color="#ABABAB"/>
<stop offset="0.52" stop-color="#D8D8D8"/>
<stop offset="0.96" stop-color="#ABABAB"/>
<stop offset="1" stop-color="#D6D6D6"/>
</linearGradient>
<linearGradient id="paint80_linear_974_165" x1="1001.39" y1="287.342" x2="1001.39" y2="305.681" gradientUnits="userSpaceOnUse">
<stop stop-color="#D9D9D9"/>
<stop offset="0.02" stop-color="#FAFAFA"/>
<stop offset="0.04" stop-color="#D8D8D8"/>
<stop offset="0.08" stop-color="#ABABAB"/>
<stop offset="0.11" stop-color="#E1E1E1"/>
<stop offset="0.9" stop-color="#D7D7D7"/>
<stop offset="0.94" stop-color="#ABABAB"/>
<stop offset="0.96" stop-color="#D8D8D8"/>
<stop offset="0.98" stop-color="#F5F5F5"/>
<stop offset="1" stop-color="#D6D6D6"/>
</linearGradient>
<linearGradient id="paint81_linear_974_165" x1="1001.1" y1="287.349" x2="1001.1" y2="305.681" gradientUnits="userSpaceOnUse">
<stop stop-color="#EDEDED"/>
<stop offset="0.06" stop-color="#D8D8D8"/>
<stop offset="0.19" stop-color="#E8E8E8"/>
<stop offset="0.81" stop-color="#E8E8E8"/>
<stop offset="0.92" stop-color="#D8D8D8"/>
<stop offset="1" stop-color="#EDEDED"/>
</linearGradient>
<linearGradient id="paint82_linear_974_165" x1="1001" y1="305.687" x2="1001.33" y2="287.349" gradientUnits="userSpaceOnUse">
<stop stop-color="#D9D9D9"/>
<stop offset="0.05" stop-color="#ABABAB"/>
<stop offset="0.52" stop-color="#D8D8D8"/>
<stop offset="0.96" stop-color="#ABABAB"/>
<stop offset="1" stop-color="#D6D6D6"/>
</linearGradient>
<linearGradient id="paint83_linear_974_165" x1="1001.39" y1="242.638" x2="1001.39" y2="252.59" gradientUnits="userSpaceOnUse">
<stop stop-color="#D9D9D9"/>
<stop offset="0.02" stop-color="#FAFAFA"/>
<stop offset="0.04" stop-color="#D8D8D8"/>
<stop offset="0.08" stop-color="#ABABAB"/>
<stop offset="0.11" stop-color="#E1E1E1"/>
<stop offset="0.9" stop-color="#D7D7D7"/>
<stop offset="0.94" stop-color="#ABABAB"/>
<stop offset="0.96" stop-color="#D8D8D8"/>
<stop offset="0.98" stop-color="#F5F5F5"/>
<stop offset="1" stop-color="#D6D6D6"/>
</linearGradient>
<linearGradient id="paint84_linear_974_165" x1="1001.1" y1="242.645" x2="1001.1" y2="252.59" gradientUnits="userSpaceOnUse">
<stop stop-color="#EDEDED"/>
<stop offset="0.06" stop-color="#D8D8D8"/>
<stop offset="0.19" stop-color="#E8E8E8"/>
<stop offset="0.81" stop-color="#E8E8E8"/>
<stop offset="0.92" stop-color="#D8D8D8"/>
<stop offset="1" stop-color="#EDEDED"/>
</linearGradient>
<linearGradient id="paint85_linear_974_165" x1="1001" y1="252.596" x2="1001.8" y2="242.645" gradientUnits="userSpaceOnUse">
<stop stop-color="#D9D9D9"/>
<stop offset="0.05" stop-color="#ABABAB"/>
<stop offset="0.52" stop-color="#D8D8D8"/>
<stop offset="0.96" stop-color="#ABABAB"/>
<stop offset="1" stop-color="#D6D6D6"/>
</linearGradient>
</defs>
</svg>
