<svg width="40" height="40" viewBox="0 0 40 40" fill="none" xmlns="http://www.w3.org/2000/svg">
<path d="M33.3333 5H6.66667C6.22464 5 5.80072 5.17559 5.48816 5.48816C5.17559 5.80072 5 6.22464 5 6.66667V33.3333C5 33.7754 5.17559 34.1993 5.48816 34.5118C5.80072 34.8244 6.22464 35 6.66667 35H21.0167V23.3333H17.1333V18.8667H21.0167V15.5333C20.9391 14.7398 21.036 13.939 21.3006 13.1869C21.5652 12.4348 21.9912 11.7497 22.5486 11.1796C23.1059 10.6095 23.7813 10.1683 24.5272 9.88675C25.2731 9.60524 26.0716 9.49031 26.8667 9.55C28.0308 9.51959 29.1955 9.58089 30.35 9.73333V13.75H27.9667C26.0833 13.75 25.7167 14.65 25.7167 15.9667V18.85H30.2167L29.6333 23.3333H25.7167V35H33.3333C33.7754 35 34.1993 34.8244 34.5118 34.5118C34.8244 34.1993 35 33.7754 35 33.3333V6.66667C35 6.22464 34.8244 5.80072 34.5118 5.48816C34.1993 5.17559 33.7754 5 33.3333 5Z" fill="#141414"/>
</svg>
