<svg width="40" height="40" viewBox="0 0 40 40" fill="none" xmlns="http://www.w3.org/2000/svg">
<path d="M20.9833 18.8999L34.3167 9.14992C33.528 8.63329 32.6093 8.35018 31.6667 8.33325H8.33334C7.36794 8.33749 6.4244 8.62113 5.61668 9.14992L18.95 18.8999C19.2414 19.1243 19.5989 19.2459 19.9667 19.2459C20.3345 19.2459 20.6919 19.1243 20.9833 18.8999ZM36.4 11.7999L22.9333 21.6666C22.0802 22.2847 21.0535 22.6174 20 22.6174C18.9465 22.6174 17.9199 22.2847 17.0667 21.6666L3.60001 11.7999C3.42653 12.2927 3.3364 12.8109 3.33334 13.3333V26.6666C3.33334 27.9927 3.86013 29.2644 4.79781 30.2021C5.73549 31.1398 7.00726 31.6666 8.33334 31.6666H31.6667C32.9928 31.6666 34.2645 31.1398 35.2022 30.2021C36.1399 29.2644 36.6667 27.9927 36.6667 26.6666V13.3333C36.6636 12.8109 36.5735 12.2927 36.4 11.7999Z" fill="#141414"/>
</svg>
