<svg width="40" height="40" viewBox="0 0 40 40" fill="none" xmlns="http://www.w3.org/2000/svg">
<path d="M32.75 5.00025H7.25C6.95889 4.99584 6.66977 5.04882 6.39914 5.15616C6.12851 5.26351 5.88168 5.42311 5.67274 5.62586C5.46381 5.8286 5.29685 6.07053 5.18142 6.3378C5.06599 6.60508 5.00434 6.89248 5 7.18359V32.8169C5.00434 33.108 5.06599 33.3954 5.18142 33.6627C5.29685 33.93 5.46381 34.1719 5.67274 34.3747C5.88168 34.5774 6.12851 34.737 6.39914 34.8443C6.66977 34.9517 6.95889 35.0047 7.25 35.0003H32.75C33.0411 35.0047 33.3302 34.9517 33.6009 34.8443C33.8715 34.737 34.1183 34.5774 34.3273 34.3747C34.5362 34.1719 34.7031 33.93 34.8186 33.6627C34.934 33.3954 34.9957 33.108 35 32.8169V7.18359C34.9957 6.89248 34.934 6.60508 34.8186 6.3378C34.7031 6.07053 34.5362 5.8286 34.3273 5.62586C34.1183 5.42311 33.8715 5.26351 33.6009 5.15616C33.3302 5.04882 33.0411 4.99584 32.75 5.00025ZM13.8833 30.5669H9.5V16.3169H13.8833V30.5669ZM11.75 14.3169C11.0501 14.3125 10.3803 14.0314 9.88693 13.5349C9.39356 13.0384 9.11665 12.3669 9.11667 11.6669C9.11206 11.3214 9.17728 10.9785 9.30841 10.6588C9.43954 10.339 9.63389 10.0491 9.87979 9.80629C10.1257 9.56349 10.4181 9.37286 10.7395 9.24581C11.0608 9.11876 11.4045 9.05791 11.75 9.06692C12.4101 9.11956 13.0261 9.41894 13.4753 9.90542C13.9245 10.3919 14.174 11.0298 14.174 11.6919C14.174 12.3541 13.9245 12.992 13.4753 13.4784C13.0261 13.9649 12.4101 14.2643 11.75 14.3169ZM30.75 30.4336H26.25V23.4336C26.25 21.7669 26.25 19.5669 23.8833 19.5669C21.5167 19.5669 21.25 21.4336 21.25 23.1836V30.3169H16.8667V16.3169H21V18.1836H21.1167C21.565 17.4599 22.1907 16.8627 22.9344 16.4486C23.6782 16.0344 24.5154 15.817 25.3667 15.8169C29.8667 15.8169 30.75 18.8169 30.75 22.6836V30.4336Z" fill="#141414"/>
</svg>
