<svg width="149" height="140" viewBox="0 0 149 140" fill="none" xmlns="http://www.w3.org/2000/svg">
<path d="M0.631427 52.5006C-1.18427 63.0968 1.08616 74.1061 8.76818 81.9739C12.4508 85.7442 16.8399 88.7288 21.1109 91.8162C27.8226 96.6733 34.5188 102.089 38.2225 109.498C39.5998 112.257 39.0847 114.689 40.9655 117.757C42.5701 120.373 44.253 122.939 46.2686 125.265C52.9176 132.928 62.6686 137.517 72.688 139.108C82.7094 140.696 93.0078 139.466 102.815 136.898C111.281 134.682 119.634 131.387 126.394 125.839C130.609 122.377 134.113 118.115 137.083 113.542C144.43 102.215 148.554 88.7626 148.406 75.2578C148.258 61.753 143.775 48.2589 135.478 37.5769C131.034 31.8577 125.587 26.992 119.928 22.4684C114.354 18.011 108.526 13.8356 102.24 10.454C94.8189 6.45787 86.7969 3.59668 78.5509 1.85844C73.0522 0.701865 67.4403 0.0385047 61.8258 0.130376C47.2486 0.358611 32.8205 5.81727 21.7583 15.2823C10.696 24.7473 3.08753 38.1524 0.626082 52.502L0.631427 52.5006Z" fill="#FADAE2"/>
</svg>
