<svg width="201" height="213" viewBox="0 0 201 213" fill="none" xmlns="http://www.w3.org/2000/svg">
<path d="M75.5111 211.926C90.6808 214.525 106.442 211.275 117.705 200.277C123.103 195.005 127.376 188.721 131.796 182.607C138.749 172.998 146.502 163.412 157.109 158.11C161.059 156.138 164.541 156.875 168.933 154.183C172.678 151.886 176.352 149.476 179.682 146.591C190.653 137.072 197.222 123.112 199.5 108.768C201.773 94.4217 200.012 79.6784 196.335 65.6388C193.163 53.5188 188.446 41.5605 180.504 31.8825C175.547 25.8473 169.446 20.8322 162.898 16.5801C146.683 6.06176 127.424 0.157765 108.091 0.369668C88.757 0.581567 69.4386 6.99989 54.1462 18.877C45.9585 25.2396 38.9926 33.038 32.5165 41.1385C26.1354 49.1193 20.1577 57.4624 15.3167 66.4616C9.59568 77.0855 5.49957 88.57 3.01108 100.375C1.35532 108.247 0.405646 116.281 0.537164 124.319C0.86392 145.188 8.67863 165.843 22.2289 181.68C35.7792 197.517 54.97 208.409 75.5132 211.933L75.5111 211.926Z" fill="#BEB4D6"/>
</svg>
