<svg width="244" height="259" viewBox="0 0 244 259" fill="none" xmlns="http://www.w3.org/2000/svg">
<path d="M91.218 1.62075C109.669 -1.54092 128.84 2.41259 142.54 15.7894C149.106 22.202 154.303 29.8449 159.679 37.282C168.137 48.9692 177.567 60.6294 190.468 67.0787C195.273 69.477 199.508 68.5801 204.85 71.8551C209.405 74.6493 213.874 77.5796 217.924 81.0896C231.268 92.6675 239.259 109.647 242.029 127.094C244.794 144.544 242.652 162.477 238.18 179.554C234.321 194.296 228.584 208.841 218.924 220.613C212.894 227.953 205.474 234.054 197.509 239.225C177.787 252.019 154.362 259.2 130.845 258.943C107.329 258.685 83.8318 250.878 65.2312 236.432C55.2722 228.693 46.7994 219.207 38.9224 209.354C31.1608 199.647 23.89 189.499 18.0017 178.553C11.0431 165.631 6.06082 151.662 3.03399 137.303C1.02004 127.728 -0.135078 117.956 0.0248985 108.179C0.422334 82.7959 9.9276 57.6721 26.4092 38.4093C42.8908 19.1464 66.2332 5.8976 91.2205 1.61146L91.218 1.62075Z" fill="#CCE8DB"/>
</svg>
